<svg width="158" height="157" viewBox="0 0 158 157" fill="none" xmlns="http://www.w3.org/2000/svg">
<path d="M145 5.5H5V145L11.5 151.5H123L152.5 122.5V11.5L145 5.5Z" fill="#FCFCFC"/>
<path d="M152.052 11.1L145.905 5.31V116.86L117.121 145.56H5.24561L11.0425 151.69H123.188L152.052 122.92V11.1Z" stroke="#131313" stroke-width="4" stroke-linejoin="round"/>
<path d="M145.905 5.31H5.24561V145.56H117.121L145.905 116.86V5.31Z" stroke="#131313" stroke-width="4" stroke-linejoin="round"/>
<path d="M117.121 145.56L145.904 116.86H117.121V145.56Z" stroke="#131313" stroke-width="4" stroke-linejoin="round"/>
<path d="M117.121 145.56L123.188 151.69L152.052 122.92L145.904 116.86L117.121 145.56Z" stroke="#131313" stroke-width="4" stroke-linejoin="round"/>
<path d="M61.138 79.57L68.5195 114.07H63.9562L62.3716 105.38H55.3512L53.6864 114.07H49.1331L56.4344 79.57H61.0979H61.138ZM55.9229 101.93H61.6896L58.8313 86.39L55.963 101.93H55.9229ZM61.138 76.57H56.4344C55.7452 76.5827 55.0812 76.831 54.5536 77.2733C54.0261 77.7157 53.6668 78.3252 53.5359 79L46.1846 113.5C46.0926 113.937 46.0998 114.39 46.2056 114.824C46.3115 115.258 46.5133 115.663 46.7963 116.01C47.0785 116.357 47.4346 116.636 47.8389 116.828C48.2432 117.02 48.6853 117.12 49.1331 117.12H53.6563C54.3659 117.132 55.057 116.894 55.6075 116.448C56.1581 116.001 56.5327 115.375 56.665 114.68L57.8585 108.43H59.9145L61.0377 114.65C61.1638 115.351 61.5356 115.984 62.0868 116.436C62.638 116.889 63.3326 117.131 64.0465 117.12H68.6098C69.0576 117.111 69.4977 117.002 69.898 116.802C70.2983 116.601 70.6486 116.314 70.9235 115.962C71.1983 115.609 71.3908 115.2 71.4867 114.763C71.5827 114.327 71.5797 113.875 71.4781 113.44L64.0766 79C63.9342 78.3278 63.5646 77.7246 63.0298 77.2914C62.4949 76.8582 61.8271 76.6212 61.138 76.62V76.57Z" fill="#131313"/>
<path d="M79.9227 79.28C82.7108 79.28 84.7968 80.06 86.1608 81.64C87.6052 83.5041 88.3184 85.8293 88.1666 88.18C88.1928 89.4898 88.0134 90.7955 87.6351 92.05C87.2911 93.1348 86.8269 94.1779 86.2511 95.16C85.6794 96.16 85.0476 97.16 84.3656 98.16L76.4927 110.24H87.4245V114.07H71.087V110.83L79.8826 97.16C80.5345 96.16 81.1462 95.16 81.6978 94.31C82.252 93.4317 82.7093 92.4963 83.0618 91.52C83.4373 90.4299 83.6173 89.2824 83.5934 88.13C83.6594 86.8392 83.3972 85.5528 82.8311 84.39C82.5596 83.9274 82.1619 83.5511 81.6843 83.305C81.2067 83.0589 80.6688 82.9532 80.1333 83C79.6745 82.9732 79.215 83.039 78.7825 83.1937C78.3499 83.3484 77.9531 83.5886 77.616 83.9C76.991 84.5479 76.5632 85.3594 76.3824 86.24C76.1475 87.2599 76.0331 88.3037 76.0414 89.35V90.5H71.4781V89.33C71.437 87.519 71.7153 85.7149 72.3005 84C72.8007 82.5862 73.7429 81.3699 74.9883 80.53C76.4762 79.6456 78.1924 79.2178 79.9227 79.3V79.28ZM79.9227 76.3C77.6023 76.1989 75.3044 76.7909 73.3235 78C71.5339 79.184 70.1815 80.9187 69.4723 82.94C68.7604 84.9938 68.4208 87.1576 68.4694 89.33V90.52C68.4694 91.3157 68.7864 92.0787 69.3506 92.6413C69.9149 93.204 70.6802 93.52 71.4781 93.52H76.0514C76.8494 93.52 77.6147 93.204 78.1789 92.6413C78.7432 92.0787 79.0602 91.3157 79.0602 90.52V89.37C79.0507 88.573 79.1348 87.7776 79.3109 87C79.3704 86.6784 79.5082 86.3762 79.7121 86.12C79.8519 86.1021 79.9935 86.1021 80.1333 86.12H80.2837C80.518 86.7944 80.6202 87.5073 80.5846 88.22C80.6073 89.0244 80.4885 89.8265 80.2336 90.59C79.9542 91.3638 79.591 92.1048 79.1504 92.8C78.5988 93.68 77.9971 94.62 77.3452 95.64L68.5496 109.3C68.2404 109.784 68.0768 110.346 68.0783 110.92V114.16C68.0783 114.956 68.3952 115.719 68.9595 116.281C69.5237 116.844 70.289 117.16 71.087 117.16H87.3944C88.1924 117.16 88.9576 116.844 89.5219 116.281C90.0861 115.719 90.4031 114.956 90.4031 114.16V110.33C90.4031 109.534 90.0861 108.771 89.5219 108.209C88.9576 107.646 88.1924 107.33 87.3944 107.33H82.0288L86.923 99.88C87.6251 98.83 88.287 97.78 88.8787 96.77C89.5711 95.5796 90.1262 94.3149 90.5335 93C91.0041 91.4475 91.2308 89.8317 91.2055 88.21C91.3525 85.1334 90.3643 82.1095 88.4274 79.71C86.4216 77.45 83.6034 76.31 79.9127 76.31L79.9227 76.3Z" fill="#131313"/>
<path d="M110.471 34.43L119.678 77.43H113.982L111.976 66.61H103.2L101.164 77.4H95.5481L104.705 34.4H110.502L110.471 34.43ZM104.063 62.25H111.244L107.583 42.92L104.013 62.28L104.063 62.25ZM110.451 30.43H104.675C103.756 30.4307 102.865 30.7459 102.151 31.3229C101.437 31.8999 100.944 32.7037 100.753 33.6L91.5966 76.6C91.4772 77.1829 91.4898 77.785 91.6333 78.3624C91.7769 78.9399 92.0478 79.4781 92.4263 79.9379C92.8049 80.3978 93.2815 80.7676 93.8216 81.0205C94.3616 81.2735 94.9514 81.4031 95.5481 81.4H101.194C102.128 81.4002 103.033 81.0758 103.752 80.4825C104.471 79.8893 104.961 79.0644 105.136 78.15L106.58 70.58H108.696L110.07 78.11C110.237 79.0318 110.723 79.8659 111.443 80.4671C112.163 81.0684 113.072 81.3985 114.012 81.4H119.708C120.307 81.3999 120.897 81.2664 121.437 81.0092C121.977 80.752 122.452 80.3777 122.828 79.9137C123.204 79.4496 123.471 78.9076 123.61 78.3274C123.749 77.7471 123.755 77.1432 123.63 76.56L114.423 33.56C114.23 32.6656 113.736 31.864 113.022 31.289C112.309 30.714 111.419 30.4002 110.502 30.4L110.451 30.43Z" fill="#131313"/>
<path d="M135.474 34.43V77.43H129.788V41.86C129.394 41.9901 128.992 42.0936 128.584 42.17C127.822 42.35 126.959 42.53 126.007 42.7L123.449 43.18L122.286 43.39V39.1C122.888 38.96 123.59 38.76 124.382 38.51C125.215 38.2582 126.032 37.9577 126.829 37.61C127.672 37.2551 128.476 36.8127 129.226 36.29C129.968 35.7758 130.625 35.1481 131.172 34.43H135.474ZM135.474 30.43H131.172C130.549 30.43 129.935 30.5746 129.378 30.8523C128.821 31.13 128.336 31.5332 127.962 32.03C127.682 32.413 127.343 32.7504 126.959 33.03C126.438 33.3943 125.88 33.7027 125.295 33.95C124.582 34.25 123.88 34.51 123.229 34.71C122.577 34.91 121.905 35.11 121.393 35.22C120.513 35.4275 119.728 35.9257 119.168 36.6337C118.607 37.3417 118.303 38.2179 118.304 39.12V43.41C118.304 44.4709 118.727 45.4883 119.479 46.2385C120.232 46.9886 121.252 47.41 122.316 47.41C122.966 47.3823 123.611 47.2885 124.241 47.13L125.806 46.84V77.4C125.806 78.4609 126.229 79.4783 126.981 80.2284C127.733 80.9786 128.754 81.4 129.818 81.4H135.504C136.568 81.4 137.589 80.9786 138.341 80.2284C139.093 79.4783 139.516 78.4609 139.516 77.4V34.4C139.516 33.3392 139.093 32.3217 138.341 31.5716C137.589 30.8215 136.568 30.4 135.504 30.4L135.474 30.43Z" fill="#131313"/>
<path d="M21.924 110.57L27.5705 136.89H24.0803L22.8768 130.26H17.4912L16.2275 136.89H12.7674L18.3737 110.57H21.924ZM17.9826 127.63H22.3854L20.1689 115.77L17.9826 127.63ZM21.924 108.57H18.3737C17.9158 108.571 17.4721 108.729 17.1164 109.016C16.7606 109.303 16.5142 109.704 16.418 110.15L10.8117 136.48C10.7498 136.775 10.7553 137.079 10.828 137.372C10.9006 137.664 11.0385 137.936 11.2313 138.168C11.4242 138.399 11.6669 138.585 11.9416 138.71C12.2163 138.835 12.5157 138.896 12.8176 138.89H16.2776C16.7497 138.899 17.2097 138.741 17.5766 138.444C17.9435 138.148 18.1938 137.732 18.2835 137.27L19.2864 132.27H21.2922L22.1948 137.27C22.2803 137.736 22.5288 138.156 22.8961 138.457C23.2634 138.757 23.7257 138.918 24.2007 138.91H27.6908C27.9927 138.916 28.2921 138.855 28.5668 138.73C28.8414 138.605 29.0842 138.419 29.277 138.188C29.4699 137.956 29.6077 137.684 29.6804 137.392C29.7531 137.099 29.7586 136.795 29.6966 136.5L24.0602 110.17C23.9624 109.715 23.7086 109.309 23.3425 109.02C22.9763 108.732 22.5209 108.58 22.0544 108.59L21.924 108.57Z" fill="#131313"/>
<path d="M35.9749 110.34C37.2317 110.293 38.4791 110.572 39.5954 111.15C40.5387 111.682 41.2897 112.498 41.7417 113.48C42.2502 114.618 42.4969 115.855 42.4638 117.1C42.5415 118.441 42.1903 119.771 41.4608 120.9C40.7981 121.847 39.8272 122.536 38.7129 122.85C39.4803 123.078 40.1728 123.506 40.7187 124.09C41.3053 124.731 41.7435 125.492 42.0024 126.32C42.3295 127.331 42.4854 128.388 42.4638 129.45C42.4905 130.838 42.2697 132.219 41.8119 133.53C41.4245 134.63 40.6933 135.576 39.7258 136.23C38.594 136.933 37.277 137.281 35.9448 137.23C34.6971 137.27 33.4601 136.988 32.3544 136.41C31.3974 135.858 30.6447 135.013 30.2081 134C29.7026 132.868 29.4559 131.639 29.486 130.4V129.52H32.9461V130.1C32.9574 130.814 33.0482 131.525 33.2169 132.22C33.3579 132.792 33.6649 133.311 34.0994 133.71C34.6275 134.11 35.2832 134.306 35.9448 134.26C36.6395 134.309 37.3271 134.094 37.8704 133.66C38.3334 133.199 38.6388 132.604 38.7429 131.96C38.909 131.124 38.9863 130.272 38.9736 129.42C39.0253 128.243 38.7622 127.073 38.2114 126.03C37.9258 125.579 37.5285 125.208 37.0578 124.954C36.5871 124.7 36.0587 124.571 35.5236 124.58C35.4404 124.568 35.356 124.568 35.2729 124.58H35.0322V121.1H35.4835C35.9748 121.126 36.4661 121.05 36.9268 120.878C37.3875 120.706 37.8078 120.441 38.1612 120.1C38.7815 119.228 39.0696 118.165 38.9736 117.1C39.018 116.111 38.811 115.128 38.3719 114.24C38.1098 113.859 37.7473 113.557 37.3244 113.369C36.9015 113.18 36.4345 113.111 35.9749 113.17C35.5049 113.109 35.0274 113.19 34.6039 113.402C34.1803 113.615 33.83 113.948 33.598 114.36C33.1728 115.304 32.9507 116.326 32.9461 117.36V118H29.486V117.12C29.4517 115.878 29.6985 114.644 30.2081 113.51C30.6632 112.519 31.4169 111.694 32.3644 111.15C33.4747 110.576 34.7148 110.297 35.9649 110.34H35.9749ZM35.9649 108.34C34.3633 108.293 32.7771 108.662 31.3615 109.41C30.0486 110.133 28.9964 111.249 28.3527 112.6C27.7195 114.004 27.4078 115.531 27.4401 117.07V118C27.4401 118.53 27.6514 119.039 28.0276 119.414C28.4037 119.789 28.9139 120 29.4459 120H32.906C33.0716 120 33.2367 119.98 33.3974 119.94C33.1273 120.285 32.9823 120.712 32.9862 121.15V124.63C32.9862 125.16 33.1975 125.669 33.5737 126.044C33.9499 126.419 34.4601 126.63 34.992 126.63H35.1224H35.3431C36.2056 126.69 36.346 126.97 36.4362 127.09C36.8042 127.831 36.9735 128.654 36.9277 129.48C36.9365 130.194 36.8761 130.907 36.7471 131.61C36.7129 131.845 36.6159 132.066 36.4663 132.25C36.2845 132.305 36.0945 132.329 35.9047 132.32C35.7212 132.335 35.5367 132.311 35.3631 132.25C35.2368 132.117 35.153 131.95 35.1224 131.77C34.9934 131.232 34.9228 130.683 34.9118 130.13V129.58C34.9118 129.05 34.7005 128.541 34.3243 128.166C33.9481 127.791 33.438 127.58 32.906 127.58H29.486C28.954 127.58 28.4439 127.791 28.0677 128.166C27.6915 128.541 27.4802 129.05 27.4802 129.58V130.46C27.4529 131.992 27.7645 133.512 28.3929 134.91C29.0207 136.282 30.076 137.415 31.4016 138.14C32.8062 138.89 34.3823 139.262 35.9749 139.22C37.6999 139.284 39.4047 138.831 40.8691 137.92C42.1899 137.039 43.1891 135.755 43.7174 134.26C44.2635 132.726 44.5285 131.107 44.4997 129.48C44.5175 128.201 44.3279 126.928 43.938 125.71C43.615 124.684 43.09 123.732 42.3936 122.91C42.646 122.646 42.8806 122.365 43.0956 122.07C44.0834 120.594 44.575 118.843 44.4997 117.07C44.5298 115.528 44.2182 113.998 43.587 112.59C42.9503 111.232 41.8965 110.111 40.5783 109.39C39.1618 108.633 37.571 108.261 35.9649 108.31V108.34ZM35.3832 115.24C35.5721 115.186 35.7685 115.162 35.9649 115.17C36.1923 115.162 36.4196 115.192 36.6368 115.26C36.8857 115.84 36.9956 116.47 36.9578 117.1C36.9578 118.44 36.6669 118.78 36.6569 118.79C36.2977 119.024 35.8711 119.133 35.4433 119.1H35.0221C34.8565 119.1 34.6914 119.12 34.5307 119.16C34.7967 118.812 34.9412 118.387 34.9419 117.95V117.43C34.9358 116.677 35.086 115.932 35.3832 115.24Z" fill="#131313"/>
<path d="M92.6998 121.57L96.7115 140.24H94.2243L93.3718 135.54H89.5306L88.628 140.24H86.211L90.2226 121.57H92.7399H92.6998ZM89.9418 133.67H93.0709L91.4963 125.26L89.9418 133.67ZM92.7399 120.57H90.1825C89.9493 120.565 89.7215 120.641 89.5385 120.785C89.3554 120.929 89.2285 121.133 89.1796 121.36L85.1679 140.03C85.1361 140.178 85.1382 140.331 85.1741 140.477C85.21 140.624 85.2788 140.761 85.3753 140.877C85.4719 140.994 85.5936 141.087 85.7313 141.15C85.8691 141.213 86.0194 141.243 86.1708 141.24H88.618C88.854 141.244 89.084 141.165 89.2674 141.017C89.4509 140.869 89.5761 140.661 89.6209 140.43L90.3731 136.54H92.5394L93.2414 140.42C93.2841 140.653 93.4084 140.863 93.592 141.013C93.7757 141.164 94.0068 141.244 94.2443 141.24H96.7215C96.8713 141.241 97.0194 141.208 97.1548 141.144C97.2901 141.079 97.4094 140.986 97.5038 140.87C97.598 140.754 97.665 140.618 97.6997 140.473C97.7344 140.327 97.736 140.176 97.7044 140.03L93.6927 121.36C93.6438 121.133 93.5169 120.929 93.3338 120.785C93.1508 120.641 92.923 120.565 92.6898 120.57H92.7399ZM91.1453 132.67L91.5064 130.76L91.8574 132.67H91.1453Z" fill="#131313"/>
<path d="M105.858 121.57V133.05H107.954V135.24H105.858V140.24H103.501V135.24H98.0654V132.66L102.94 121.57H105.858ZM100.442 133.05H103.501V124.57L100.442 133.05ZM105.858 120.57H102.94C102.746 120.571 102.556 120.629 102.394 120.735C102.232 120.842 102.105 120.993 102.027 121.17L97.1427 132.26C97.0903 132.387 97.063 132.523 97.0625 132.66V135.24C97.0625 135.505 97.1682 135.76 97.3562 135.947C97.5443 136.135 97.7994 136.24 98.0654 136.24H102.498V140.24C102.498 140.505 102.604 140.76 102.792 140.947C102.98 141.135 103.235 141.24 103.501 141.24H105.858C106.124 141.24 106.379 141.135 106.567 140.947C106.755 140.76 106.861 140.505 106.861 140.24V136.24H107.954C108.22 136.24 108.475 136.135 108.663 135.947C108.851 135.76 108.957 135.505 108.957 135.24V133.05C108.957 132.785 108.851 132.53 108.663 132.343C108.475 132.155 108.22 132.05 107.954 132.05H106.861V121.57C106.861 121.305 106.755 121.05 106.567 120.863C106.379 120.675 106.124 120.57 105.858 120.57ZM101.846 132.05L102.478 130.32V132.05H101.846Z" fill="#131313"/>
<path d="M33.608 15.59L44.3994 65.74H37.7099L35.3731 53.11H25.1635L22.7364 65.74H16.1573L26.8383 15.59H33.608ZM26.0962 48.1H34.4805L30.2583 25.5L26.0962 48.1ZM33.608 11.59H26.8383C25.9194 11.5907 25.0286 11.9059 24.3148 12.4829C23.6011 13.0599 23.1076 13.8637 22.9169 14.76L12.2359 64.91C12.112 65.4926 12.12 66.0953 12.2595 66.6743C12.399 67.2533 12.6664 67.794 13.0422 68.2568C13.4179 68.7197 13.8926 69.093 14.4315 69.3496C14.9705 69.6062 15.5601 69.7396 16.1573 69.74H22.7364C23.67 69.7402 24.5745 69.4158 25.2939 68.8225C26.0134 68.2293 26.5028 67.4044 26.6779 66.49L28.4831 57.11H32.0635L33.7584 66.46C33.9276 67.3816 34.4158 68.2148 35.1379 68.8142C35.8601 69.4136 36.7703 69.7413 37.7099 69.74H44.3994C44.9966 69.7396 45.5862 69.6062 46.1251 69.3496C46.664 69.093 47.1387 68.7197 47.5145 68.2568C47.8902 67.794 48.1576 67.2533 48.2971 66.6743C48.4366 66.0953 48.4447 65.4926 48.3208 64.91L37.5294 14.75C37.3367 13.8556 36.8424 13.054 36.1288 12.479C35.4152 11.904 34.5255 11.5902 33.608 11.59Z" fill="#131313"/>
<path d="M61.6094 15.16C64.1015 15.049 66.5692 15.6902 68.69 17C70.5244 18.2754 71.9241 20.0793 72.7017 22.17C73.6124 24.637 74.0545 27.2516 74.0054 29.88V51.5C74.0499 54.1209 73.5973 56.7266 72.6716 59.18C71.8717 61.2914 70.4529 63.1138 68.5997 64.41C66.511 65.7467 64.0589 66.4069 61.5793 66.3C59.0965 66.398 56.6442 65.7273 54.5589 64.38C52.6946 63.0753 51.2657 61.243 50.457 59.12C49.5298 56.6879 49.077 54.1015 49.1231 51.5V29.89C49.0666 27.2619 49.5055 24.6466 50.4169 22.18C51.1933 20.0887 52.5933 18.2845 54.4285 17.01C56.5604 15.6995 59.0369 15.0552 61.5392 15.16H61.6094ZM61.5392 60.85C62.1979 60.8983 62.8593 60.8015 63.4763 60.5664C64.0933 60.3314 64.6509 59.9639 65.1096 59.49C65.9898 58.4992 66.5949 57.296 66.8647 56C67.1726 54.5433 67.3272 53.0586 67.326 51.57V29.83C67.3308 28.303 67.1864 26.7791 66.8948 25.28C66.6731 24.0047 66.1041 22.8146 65.25 21.84C64.7677 21.3821 64.1946 21.0299 63.5676 20.806C62.9406 20.5821 62.2736 20.4915 61.6094 20.54C60.9423 20.4936 60.2729 20.5851 59.6429 20.8088C59.013 21.0325 58.4362 21.3836 57.9488 21.84C57.0734 22.8043 56.4923 23.9977 56.2739 25.28C55.9773 26.7784 55.8329 28.3027 55.8426 29.83V51.56C55.8358 53.0522 55.9905 54.5409 56.304 56C56.5563 57.301 57.1556 58.5101 58.039 59.5C58.5033 59.9663 59.0618 60.3288 59.6774 60.5633C60.293 60.7977 60.9516 60.8989 61.6094 60.86L61.5392 60.85ZM61.6094 11.17C58.3082 11.0586 55.0503 11.944 52.2622 13.71C49.7259 15.4112 47.7839 17.8578 46.7061 20.71C45.607 23.6408 45.0695 26.7514 45.1215 29.88V51.5C45.0771 54.6079 45.6251 57.6959 46.7362 60.6C47.8367 63.4497 49.7641 65.9077 52.2723 67.66C55.0367 69.4799 58.2983 70.4021 61.6094 70.3C64.906 70.4077 68.1558 69.4998 70.9165 67.7C73.4079 65.9633 75.3246 63.5265 76.4225 60.7C77.5389 57.7762 78.0902 54.6682 78.0472 51.54V29.89C78.1088 26.7633 77.5815 23.6528 76.4927 20.72C75.4184 17.8801 73.4967 15.437 70.9867 13.72C68.2034 11.9423 64.9428 11.0528 61.6395 11.17H61.6094ZM60.8171 24.65C61.0729 24.5689 61.3414 24.535 61.6094 24.55C61.8634 24.5397 62.1173 24.5701 62.3616 24.64C62.6752 25.0686 62.8815 25.5658 62.9633 26.09C63.2029 27.3256 63.3204 28.5816 63.3144 29.84V51.56C63.3153 52.7629 63.1909 53.9627 62.9433 55.14C62.833 55.7332 62.5896 56.2939 62.2312 56.78C62.0292 56.8373 61.8191 56.861 61.6094 56.85C61.3947 56.8674 61.1788 56.8366 60.9776 56.76C60.581 56.3 60.3206 55.7391 60.2254 55.14C59.9729 53.9634 59.8485 52.7632 59.8543 51.56V29.83C59.8427 28.5713 59.9603 27.3148 60.2053 26.08C60.278 25.5545 60.4891 25.0576 60.8171 24.64V24.65Z" fill="#131313"/>
</svg>
