<svg width="48" height="48" viewBox="0 0 48 48" fill="none" xmlns="http://www.w3.org/2000/svg">
<path fill-rule="evenodd" clip-rule="evenodd" d="M24 48C37.2548 48 48 37.2548 48 24C48 10.7452 37.2548 0 24 0C10.7452 0 0 10.7452 0 24C0 37.2548 10.7452 48 24 48ZM11 15.3333C11 12.8778 12.8778 11 15.3333 11H32.6667C35.1222 11 37 12.8778 37 15.3333V32.6667C37 35.1222 35.1222 37 32.6667 37H15.3333C12.8778 37 11 35.1222 11 32.6667V15.3333ZM28.3333 24C28.3333 21.5444 26.4556 19.6667 24 19.6667C21.5444 19.6667 19.6667 21.5444 19.6667 24C19.6667 26.4556 21.5444 28.3333 24 28.3333C26.4556 28.3333 28.3333 26.4556 28.3333 24ZM31.2222 15.0444C30.3556 15.0444 29.4889 15.7667 29.4889 16.7778C29.4889 17.7889 30.2111 18.5111 31.2222 18.5111C32.2333 18.5111 32.9556 17.6444 32.9556 16.7778C32.9556 15.9111 32.0889 15.0444 31.2222 15.0444ZM13.8889 32.6667C13.8889 33.5333 14.4667 34.1111 15.3333 34.1111H32.6667C33.5333 34.1111 34.1111 33.5333 34.1111 32.6667V24H31.2222C31.2222 28.0444 28.0444 31.2222 24 31.2222C19.9556 31.2222 16.7778 28.0444 16.7778 24H13.8889V32.6667Z" fill="#51C0FF"/>
</svg>
