<svg width="101" height="101" viewBox="0 0 101 101" fill="none" xmlns="http://www.w3.org/2000/svg">
<path d="M82.8333 2H18.1667C9.00555 2 2 9.00555 2 18.1667V82.8333C2 91.9945 9.00555 99 18.1667 99H82.8333C91.9945 99 99 91.9945 99 82.8333V18.1667C99 9.00555 91.9945 2 82.8333 2ZM50.5 34.3333C59.6612 34.3333 66.6667 41.3388 66.6667 50.5C66.6667 59.6612 59.6612 66.6667 50.5 66.6667C41.3388 66.6667 34.3333 59.6612 34.3333 50.5C34.3333 41.3388 41.3388 34.3333 50.5 34.3333ZM70.9778 23.5555C70.9778 19.7833 74.2112 17.0889 77.4445 17.0889C80.6778 17.0889 83.9112 20.3222 83.9112 23.5555C83.9112 26.7888 81.2167 30.0222 77.4445 30.0222C73.6722 30.0222 70.9778 27.3278 70.9778 23.5555ZM82.8333 88.2222H18.1667C14.9333 88.2222 12.7778 86.0667 12.7778 82.8333V50.5H23.5555C23.5555 65.5888 35.4112 77.4445 50.5 77.4445C65.5888 77.4445 77.4445 65.5888 77.4445 50.5H88.2222V82.8333C88.2222 86.0667 86.0667 88.2222 82.8333 88.2222Z" stroke="#131313" stroke-width="4"/>
</svg>
