<svg width="157" height="157" viewBox="0 0 157 157" fill="none" xmlns="http://www.w3.org/2000/svg">
<g clip-path="url(#clip0)">
<path d="M131.27 10.2002H21.23V149.6H131.27V10.2002Z" stroke="#131313" stroke-width="4" stroke-linecap="round" stroke-linejoin="round"/>
<path d="M140.75 140.94L131.28 142.32V149.61H81.31L31.86 156.81L30.81 149.61H21.23V83.89L11.76 18.86L21.23 17.48V10.2H71.2L120.65 3L121.7 10.2H131.28V75.92L140.75 140.94Z" stroke="#131313" stroke-width="4" stroke-linecap="round" stroke-linejoin="round"/>
<path d="M21.23 115.39L45.74 88.6699L84.55 122.8" stroke="#131313" stroke-width="4" stroke-linecap="round" stroke-linejoin="round"/>
<path d="M73.8 113.34L110.34 72.25L131.28 91.14" stroke="#131313" stroke-width="4" stroke-linecap="round" stroke-linejoin="round"/>
<path d="M61.3199 82.2799C69.571 82.2799 76.2599 75.591 76.2599 67.3399C76.2599 59.0888 69.571 52.3999 61.3199 52.3999C53.0687 52.3999 46.3799 59.0888 46.3799 67.3399C46.3799 75.591 53.0687 82.2799 61.3199 82.2799Z" stroke="#131313" stroke-width="4" stroke-linecap="round" stroke-linejoin="round"/>
<path d="M34.5701 40.66V23.66H40.0001C40.8676 23.6211 41.729 23.8218 42.4901 24.24C43.1279 24.6255 43.6229 25.2082 43.9001 25.9C44.2414 26.7372 44.4048 27.6363 44.3801 28.54C44.4306 29.5315 44.2166 30.5185 43.7601 31.4C43.3701 32.0572 42.7769 32.5697 42.0701 32.86C41.2853 33.16 40.4501 33.306 39.6101 33.29H38.0001V40.66H34.5701ZM38.0001 30.85H39.2201C39.6242 30.8721 40.0272 30.7894 40.3901 30.61C40.5299 30.5266 40.651 30.4151 40.7456 30.2826C40.8403 30.1501 40.9065 29.9994 40.9401 29.84C41.0503 29.4022 41.1008 28.9514 41.0901 28.5C41.1024 28.0648 41.0722 27.6294 41.0001 27.2C40.9344 26.8717 40.7491 26.5794 40.4801 26.38C40.1003 26.1551 39.66 26.0538 39.2201 26.09H38.0001V30.85Z" fill="#131313"/>
<path d="M55.1101 40.89C54.067 40.9525 53.0274 40.7204 52.1101 40.22C51.3857 39.7748 50.8326 39.0984 50.5401 38.3C50.2073 37.3357 50.0482 36.32 50.0701 35.3V29C50.0456 27.9799 50.2048 26.9638 50.5401 26C50.8307 25.2084 51.3851 24.5409 52.1101 24.11C53.0332 23.6269 54.0698 23.4024 55.1101 23.46C56.1512 23.4069 57.1874 23.6349 58.1101 24.12C58.83 24.5495 59.3807 25.2132 59.6701 26C60.016 26.9613 60.1788 27.9788 60.1501 29V35.3C60.174 36.3209 60.0113 37.3376 59.6701 38.3C59.3811 39.1004 58.8271 39.7779 58.1001 40.22C57.1831 40.7116 56.1492 40.9433 55.1101 40.89ZM55.1101 38.39C55.4697 38.4238 55.8284 38.3162 56.1101 38.09C56.3289 37.8649 56.4752 37.5792 56.5301 37.27C56.6038 36.908 56.6406 36.5395 56.6401 36.17V28.17C56.6397 27.7765 56.5961 27.3841 56.5101 27C56.4528 26.6946 56.3067 26.4129 56.0901 26.19C55.8084 25.9639 55.4497 25.8563 55.0901 25.89C54.9118 25.8706 54.7314 25.8871 54.5597 25.9386C54.3879 25.9902 54.2282 26.0757 54.0901 26.19C53.8735 26.4129 53.7274 26.6946 53.6701 27C53.5998 27.359 53.5663 27.7243 53.5701 28.09V36.14C53.5681 36.5086 53.5983 36.8767 53.6601 37.24C53.7072 37.5497 53.8506 37.8366 54.0701 38.06C54.2112 38.1839 54.3765 38.2771 54.5555 38.3339C54.7345 38.3907 54.9233 38.4098 55.1101 38.39Z" fill="#131313"/>
<path d="M71.07 40.8901C70.1583 40.9238 69.253 40.7241 68.44 40.3101C67.733 39.9238 67.1765 39.311 66.86 38.5701C66.4596 37.6201 66.2489 36.601 66.24 35.5701L69.24 35.0601C69.2542 35.6527 69.3279 36.2423 69.46 36.8201C69.548 37.1955 69.7344 37.5407 70 37.8201C70.2499 38.0501 70.5805 38.1723 70.92 38.1601C71.0959 38.1843 71.2751 38.1576 71.4364 38.0832C71.5977 38.0088 71.7343 37.8897 71.83 37.7401C72.0004 37.4352 72.0834 37.0892 72.07 36.7401C72.0907 36.1017 71.9125 35.4727 71.56 34.9401C71.1648 34.4024 70.7084 33.9124 70.2 33.4801L68.44 31.9501C67.8293 31.4407 67.3088 30.8322 66.9 30.1501C66.4799 29.3927 66.2726 28.5358 66.3 27.6701C66.2615 27.075 66.3514 26.4786 66.5637 25.9213C66.7759 25.364 67.1054 24.8589 67.53 24.4401C68.4688 23.6497 69.6748 23.2489 70.9 23.3201C71.6232 23.2937 72.3426 23.4376 73 23.7401C73.5261 24.0351 73.9592 24.4716 74.25 25.0001C74.5511 25.4713 74.7645 25.993 74.88 26.5401C74.9968 27.0801 75.0703 27.6285 75.1 28.1801L72.1 28.6301C72.1 28.1101 72.02 27.6301 71.96 27.2601C71.9218 26.924 71.7902 26.6052 71.58 26.3401C71.4756 26.2199 71.344 26.1263 71.1962 26.0671C71.0483 26.008 70.8885 25.985 70.73 26.0001C70.5536 25.9889 70.3774 26.0246 70.2193 26.1037C70.0612 26.1827 69.9269 26.3023 69.83 26.4501C69.6353 26.7468 69.5342 27.0952 69.54 27.4501C69.5157 27.9731 69.6556 28.4906 69.94 28.9301C70.2693 29.3752 70.6484 29.7812 71.07 30.1401L72.79 31.6501C73.4992 32.2637 74.1186 32.974 74.63 33.7601C75.1628 34.6421 75.4269 35.6603 75.39 36.6901C75.4013 37.4449 75.2152 38.1895 74.85 38.8501C74.4955 39.4865 73.9687 40.0099 73.33 40.3601C72.6347 40.7279 71.8563 40.9104 71.07 40.8901Z" fill="#131313"/>
<path d="M83.0599 40.6599V26.2299H80.4299V23.6499H89.1299V26.2299H86.5399V40.6599H83.0599Z" fill="#131313"/>
<path d="M94.8601 40.6602V23.6602H102.27V26.0002H98.2701V30.5202H101.32V33.0002H98.3201V38.3402H102.32V40.6902L94.8601 40.6602Z" fill="#131313"/>
<path d="M108.26 40.6598V23.6598H112.67C113.684 23.6345 114.696 23.7661 115.67 24.0498C116.439 24.2745 117.107 24.7586 117.56 25.4198C118.043 26.2455 118.272 27.1948 118.22 28.1498C118.214 28.7726 118.14 29.3929 118 29.9998C117.894 30.5095 117.679 30.9904 117.37 31.4098C117.04 31.8347 116.601 32.1628 116.1 32.3598L118.45 40.6598H114.9L112.9 32.9498H111.68V40.6598H108.26ZM111.72 30.8998H112.72C113.177 30.9197 113.631 30.8233 114.04 30.6198C114.363 30.4379 114.605 30.1418 114.72 29.7898C114.867 29.3486 114.935 28.8847 114.92 28.4198C114.963 27.7901 114.813 27.1623 114.49 26.6198C114.295 26.3929 114.047 26.2175 113.768 26.1094C113.489 26.0013 113.187 25.9636 112.89 25.9998H111.71L111.72 30.8998Z" fill="#131313"/>
</g>
<defs>
<clipPath id="clip0">
<rect width="157" height="157" fill="white"/>
</clipPath>
</defs>
</svg>
