<svg width="158" height="157" viewBox="0 0 158 157" fill="none" xmlns="http://www.w3.org/2000/svg">
<path d="M104.567 7.71002H60.4071V110.21C60.4071 113.31 70.288 115.82 82.4768 115.82C94.6656 115.82 104.537 113.31 104.537 110.21C104.537 109.64 104.537 108.57 104.537 108.57L104.567 7.71002Z" fill="#FCFCFC" stroke="#131313" stroke-width="4" stroke-linecap="round" stroke-linejoin="round"/>
<path d="M82.4868 13.31C94.6701 13.31 104.547 10.8028 104.547 7.70999C104.547 4.61719 94.6701 2.10999 82.4868 2.10999C70.3035 2.10999 60.427 4.61719 60.427 7.70999C60.427 10.8028 70.3035 13.31 82.4868 13.31Z" fill="#FCFCFC" stroke="#131313" stroke-width="4" stroke-linecap="round" stroke-linejoin="round"/>
<path d="M60.4171 8.40997C60.4171 8.40997 62.5951 13.31 73.0255 16.49L75.5032 28.55L81.3079 55.94V118C81.3079 118 64.3235 117 60.447 109.8L60.4171 8.40997Z" fill="#FCFCFC" stroke="#131313" stroke-width="4" stroke-linecap="round" stroke-linejoin="round"/>
<path d="M72.7157 16.4L68.9092 31.08C68.9092 31.08 77.901 39.42 81.2779 59.51L72.7157 16.4Z" fill="#FCFCFC" stroke="#131313" stroke-width="4" stroke-linecap="round" stroke-linejoin="round"/>
<path d="M62.685 8.59002C65.6223 4.47002 84.495 4.34002 91.7983 6.30002C97.0734 7.72002 91.9681 9.23002 86.7129 9.93002C81.4577 10.63 69.7285 9.64002 72.416 8.19002C75.4133 6.59002 84.6148 7.95002 84.6148 7.95002" stroke="#131313" stroke-width="2" stroke-linecap="round" stroke-linejoin="round"/>
<path d="M81.2879 18.89H32.5426V132.12C32.5426 135.54 43.4526 138.31 56.9203 138.31C70.3879 138.31 81.2879 135.54 81.2879 132.12C81.2879 131.49 81.2879 130.31 81.2879 130.31V18.89Z" fill="#FCFCFC" stroke="#131313" stroke-width="4" stroke-linecap="round" stroke-linejoin="round"/>
<path d="M56.9003 25.08C70.3637 25.08 81.2779 22.3087 81.2779 18.89C81.2779 15.4714 70.3637 12.7 56.9003 12.7C43.4369 12.7 32.5226 15.4714 32.5226 18.89C32.5226 22.3087 43.4369 25.08 56.9003 25.08Z" fill="#FCFCFC" stroke="#131313" stroke-width="4" stroke-linecap="round" stroke-linejoin="round"/>
<path d="M32.5426 19.66C32.5426 19.66 34.9504 25.08 46.4699 28.59L49.1774 41.91L55.5915 72.16V140.75C55.5915 140.75 36.7987 139.69 32.5426 131.69V19.66Z" fill="#FCFCFC" stroke="#131313" stroke-width="4" stroke-linecap="round" stroke-linejoin="round"/>
<path d="M46.1102 28.49L41.9041 44.7C41.9041 44.7 51.8949 53.91 55.5715 76.11L46.1102 28.49Z" fill="#FCFCFC" stroke="#131313" stroke-width="4" stroke-linecap="round" stroke-linejoin="round"/>
<path d="M33.8914 19.66C37.538 15.12 61.1064 15 70.278 17.14C76.872 18.7 70.4978 20.37 63.9238 21.14C57.5297 21.9 42.6534 20.83 46.0502 19.22C49.7668 17.46 61.3062 19 61.3062 19" stroke="#131313" stroke-width="2" stroke-linecap="round" stroke-linejoin="round"/>
<path d="M130.043 18.89H81.2779V132.12C81.2779 135.54 92.1879 138.31 105.646 138.31C119.103 138.31 130.023 135.54 130.023 132.12C130.023 131.49 130.023 130.31 130.023 130.31L130.043 18.89Z" fill="#FCFCFC" stroke="#131313" stroke-width="4" stroke-linecap="round" stroke-linejoin="round"/>
<path d="M105.666 25.08C119.129 25.08 130.043 22.3087 130.043 18.89C130.043 15.4714 119.129 12.7 105.666 12.7C92.2021 12.7 81.2879 15.4714 81.2879 18.89C81.2879 22.3087 92.2021 25.08 105.666 25.08Z" fill="#FCFCFC" stroke="#131313" stroke-width="4" stroke-linecap="round" stroke-linejoin="round"/>
<path d="M81.2879 19.66C81.2879 19.66 83.6857 25.08 95.2151 28.59L97.9226 41.91L104.327 72.16V140.75C104.327 140.75 85.554 139.69 81.2879 131.69V19.66Z" fill="#FCFCFC" stroke="#131313" stroke-width="4" stroke-linecap="round" stroke-linejoin="round"/>
<path d="M94.8654 28.49L90.6593 44.7C90.6593 44.7 100.65 53.91 104.327 76.11L94.8654 28.49Z" fill="#FCFCFC" stroke="#131313" stroke-width="4" stroke-linecap="round" stroke-linejoin="round"/>
<path d="M82.6566 19.66C86.3233 15.12 109.862 14.97 119.043 17.14C125.637 18.7 119.253 20.37 112.679 21.14C106.285 21.9 91.4186 20.83 94.8055 19.22C98.4821 17.46 110.061 19 110.061 19" stroke="#131313" stroke-width="2" stroke-linecap="round" stroke-linejoin="round"/>
<path d="M54.1228 29.07H3.75903V146C3.75903 149.53 15.0287 152.39 28.9259 152.39C42.8232 152.39 54.0928 149.53 54.0928 146C54.0928 145.35 54.0928 144.13 54.0928 144.13L54.1228 29.07Z" fill="#FCFCFC" stroke="#131313" stroke-width="4" stroke-linecap="round" stroke-linejoin="round"/>
<path d="M28.9459 35.46C42.8452 35.46 54.1128 32.5991 54.1128 29.07C54.1128 25.5409 42.8452 22.68 28.9459 22.68C15.0466 22.68 3.77902 25.5409 3.77902 29.07C3.77902 32.5991 15.0466 35.46 28.9459 35.46Z" fill="#FCFCFC" stroke="#131313" stroke-width="4" stroke-linecap="round" stroke-linejoin="round"/>
<path d="M3.76904 29.87C3.76904 29.87 6.25675 35.46 18.1558 39.09L20.9433 52.84L27.5472 84.08V154.9C27.5472 154.9 8.165 153.81 3.74905 145.54L3.76904 29.87Z" fill="#FCFCFC" stroke="#131313" stroke-width="4" stroke-linecap="round" stroke-linejoin="round"/>
<path d="M17.7961 39L13.4501 55.73C13.4501 55.73 23.7507 65.24 27.5472 88.15L17.7961 39Z" fill="#FCFCFC" stroke="#131313" stroke-width="4" stroke-linecap="round" stroke-linejoin="round"/>
<path d="M4.40845 29.57C8.19497 24.88 32.5426 24.73 41.974 27C48.7877 28.61 42.2038 30.33 35.41 31.13C28.8061 31.91 13.4302 30.8 16.9569 29.13C20.8034 27.32 32.7125 28.86 32.7125 28.86" stroke="#131313" stroke-width="2" stroke-linecap="round" stroke-linejoin="round"/>
<path d="M103.627 29.07H53.2636V146C53.2636 149.53 64.5333 152.39 78.4305 152.39C92.3278 152.39 103.597 149.53 103.597 146C103.597 145.35 103.597 144.13 103.597 144.13L103.627 29.07Z" fill="#FCFCFC" stroke="#131313" stroke-width="4" stroke-linecap="round" stroke-linejoin="round"/>
<path d="M78.4405 35.46C92.3398 35.46 103.607 32.5991 103.607 29.07C103.607 25.5409 92.3398 22.68 78.4405 22.68C64.5412 22.68 53.2736 25.5409 53.2736 29.07C53.2736 32.5991 64.5412 35.46 78.4405 35.46Z" fill="#FCFCFC" stroke="#131313" stroke-width="4" stroke-linecap="round" stroke-linejoin="round"/>
<path d="M53.2736 29.87C53.2736 29.87 55.7513 35.46 67.6604 39.09L70.4479 52.84L77.0718 84.08V154.9C77.0718 154.9 57.6896 153.81 53.2736 145.54V29.87Z" fill="#FCFCFC" stroke="#131313" stroke-width="4" stroke-linecap="round" stroke-linejoin="round"/>
<path d="M67.3007 39L62.9547 55.73C62.9547 55.73 73.2553 65.24 77.0718 88.15L67.3007 39Z" fill="#FCFCFC" stroke="#131313" stroke-width="4" stroke-linecap="round" stroke-linejoin="round"/>
<path d="M53.913 29.57C57.6996 24.88 82.0073 24.73 91.4886 27C98.3023 28.61 91.7183 30.33 84.9246 31.13C78.3206 31.91 62.9447 30.8 66.4715 29.13C70.308 27.32 82.2271 28.86 82.2271 28.86" stroke="#131313" stroke-width="2" stroke-linecap="round" stroke-linejoin="round"/>
<path d="M154.241 29.07H103.877V146C103.877 149.53 115.147 152.39 129.044 152.39C142.941 152.39 154.211 149.53 154.211 146C154.211 145.35 154.211 144.13 154.211 144.13L154.241 29.07Z" fill="#FCFCFC" stroke="#131313" stroke-width="4" stroke-linecap="round" stroke-linejoin="round"/>
<path d="M129.054 35.46C142.953 35.46 154.221 32.5991 154.221 29.07C154.221 25.5409 142.953 22.68 129.054 22.68C115.155 22.68 103.887 25.5409 103.887 29.07C103.887 32.5991 115.155 35.46 129.054 35.46Z" fill="#FCFCFC" stroke="#131313" stroke-width="4" stroke-linecap="round" stroke-linejoin="round"/>
<path d="M103.887 29.87C103.887 29.87 106.365 35.46 118.274 39.09L121.061 52.84L127.685 84.08V154.9C127.685 154.9 108.303 153.81 103.887 145.54V29.87Z" fill="#FCFCFC" stroke="#131313" stroke-width="4" stroke-linecap="round" stroke-linejoin="round"/>
<path d="M117.914 39L113.568 55.73C113.568 55.73 123.869 65.24 127.685 88.15L117.914 39Z" fill="#FCFCFC" stroke="#131313" stroke-width="4" stroke-linecap="round" stroke-linejoin="round"/>
<path d="M104.527 29.57C108.313 24.88 132.621 24.73 142.092 26.97C148.906 28.58 142.312 30.3 135.528 31.1C128.924 31.88 113.548 30.77 117.075 29.1C120.912 27.29 132.831 28.83 132.831 28.83" stroke="#131313" stroke-width="2" stroke-linecap="round" stroke-linejoin="round"/>
</svg>
