<svg width="157" height="157" viewBox="0 0 157 157" fill="none" xmlns="http://www.w3.org/2000/svg">
<path d="M142.5 30H3.5V120L9 127.5H121.5L151 98V36L142.5 30Z" fill="#FCFCFC"/>
<path d="M150.25 35.57L144.12 29.78V92.39L115.41 121.09H3.86L9.65 127.22H121.47L150.25 98.45V35.57Z" stroke="#131313" stroke-width="4" stroke-linejoin="round"/>
<path d="M144.12 29.78H3.86V121.09H115.41L144.12 92.39V29.78Z" stroke="#131313" stroke-width="4" stroke-linejoin="round"/>
<path d="M115.41 121.09L144.12 92.39H115.41V121.09Z" stroke="#131313" stroke-width="4" stroke-linejoin="round"/>
<path d="M115.41 121.09L121.47 127.22L150.25 98.45L144.12 92.39L115.41 121.09Z" stroke="#131313" stroke-width="4" stroke-linejoin="round"/>
<path d="M37.5 43H27L14 101L24 103L28.5 88.5H35.5L38.5 103H47.5L50 101L37.5 43Z" fill="#FCFCFC"/>
<path d="M35.53 44.18L47.65 100.93H40.15L37.56 86.64H26L23.26 100.93H15.84L27.89 44.18H35.53ZM27.05 81H36.51L31.74 55.39L27.05 81ZM35.53 40.22H27.89C26.9841 40.2227 26.106 40.5328 25.3993 41.0996C24.6926 41.6664 24.1993 42.4563 24 43.34L11.92 100.1C11.7963 100.683 11.8045 101.287 11.9442 101.867C12.0838 102.446 12.3513 102.988 12.7271 103.451C13.1029 103.914 13.5775 104.287 14.1161 104.543C14.6547 104.799 15.2437 104.931 15.84 104.93H23.26C24.1909 104.93 25.0927 104.606 25.8101 104.012C26.5275 103.419 27.0155 102.594 27.19 101.68L29.3 90.68H34.22L36.22 101.68C36.3866 102.603 36.8724 103.439 37.5927 104.04C38.3129 104.642 39.2217 104.971 40.16 104.97H47.66C48.2555 104.97 48.8434 104.836 49.3807 104.58C49.9181 104.323 50.3914 103.95 50.766 103.487C51.1407 103.024 51.4073 102.483 51.5464 101.904C51.6855 101.325 51.6936 100.723 51.57 100.14L39.44 43.34C39.2479 42.4456 38.755 41.644 38.0435 41.069C37.332 40.4939 36.4448 40.1802 35.53 40.18V40.22Z" fill="#131313"/>
<path d="M65.72 43.69C68.4214 43.5872 71.1029 44.1903 73.5 45.44C75.5337 46.5746 77.1548 48.3253 78.13 50.44C79.2127 52.898 79.7386 55.565 79.67 58.25C79.8122 61.1476 79.0391 64.0164 77.46 66.45C76.0187 68.4795 73.9317 69.9602 71.54 70.65C73.2109 71.1307 74.723 72.0491 75.92 73.31C77.1751 74.6942 78.1195 76.3308 78.69 78.11C79.3848 80.2949 79.7225 82.5776 79.69 84.87C79.75 87.8632 79.2759 90.8432 78.29 93.67C77.4562 96.0387 75.8818 98.0759 73.8 99.48C71.3605 100.965 68.5326 101.686 65.68 101.55C63.0124 101.646 60.3656 101.047 58 99.81C55.9663 98.6755 54.3452 96.9248 53.37 94.81C52.2663 92.3572 51.7231 89.6892 51.78 87V85.1H59.21V86.36C59.2322 87.8942 59.4301 89.4209 59.8 90.91C60.0851 92.154 60.7489 93.279 61.7 94.13C62.839 95.0111 64.2641 95.4386 65.7 95.33C67.182 95.4161 68.6421 94.9413 69.79 94C70.7896 93.0014 71.4507 91.7143 71.68 90.32C72.0281 88.518 72.1923 86.6852 72.17 84.85C72.2742 82.3073 71.705 79.7822 70.52 77.53C69.4333 75.6367 67.5067 74.5967 64.74 74.41C64.5708 74.3624 64.3958 74.3388 64.22 74.34H63.69V66.88H64.69C67.36 66.78 69.27 66.08 70.44 64.78C71.61 63.48 72.19 61.3 72.19 58.26C72.2893 56.1262 71.8418 54.0024 70.89 52.09C70.03 50.55 68.3133 49.78 65.74 49.78C63.18 49.78 61.47 50.63 60.63 52.34C59.7082 54.4007 59.2311 56.6326 59.23 58.89V60.08H51.78V58.19C51.7041 55.5141 52.2304 52.8553 53.32 50.41C54.303 48.2908 55.9351 46.5396 57.98 45.41C60.366 44.1693 63.0323 43.5664 65.72 43.66V43.69ZM65.72 39.66C62.3324 39.589 58.9841 40.395 56 42C53.2403 43.5274 51.0324 45.8858 49.69 48.74C48.3454 51.7229 47.6859 54.969 47.76 58.24V60.13C47.76 61.1909 48.1814 62.2083 48.9316 62.9585C49.6817 63.7086 50.6991 64.13 51.76 64.13H59.19C60.2509 64.13 61.2683 63.7086 62.0184 62.9585C62.7686 62.2083 63.19 61.1909 63.19 60.13V59C63.1902 57.3322 63.5305 55.6819 64.19 54.15C64.28 53.96 64.92 53.82 65.71 53.82C66.2851 53.7578 66.8662 53.8547 67.39 54.1C67.9837 55.4168 68.248 56.8583 68.16 58.3C68.16 61.24 67.5 62.07 67.43 62.15C67.36 62.23 66.66 62.83 64.59 62.92H63.68C62.6191 62.92 61.6017 63.3415 60.8516 64.0916C60.1014 64.8417 59.68 65.8592 59.68 66.92V74.41C59.68 75.4709 60.1014 76.4883 60.8516 77.2384C61.6017 77.9886 62.6191 78.41 63.68 78.41H64L64.47 78.48C66.47 78.61 66.89 79.31 67.07 79.61C67.8848 81.2568 68.2636 83.0851 68.17 84.92C68.1884 86.4864 68.0511 88.0508 67.76 89.59C67.6821 90.1588 67.4426 90.6933 67.07 91.13C66.6287 91.3307 66.1429 91.4134 65.66 91.37C65.2028 91.4139 64.7419 91.3416 64.32 91.16C63.9834 90.835 63.7592 90.4111 63.68 89.95C63.3904 88.7677 63.2328 87.557 63.21 86.34V85.1C63.21 84.0392 62.7886 83.0217 62.0384 82.2716C61.2883 81.5215 60.2709 81.1 59.21 81.1H51.78C50.7191 81.1 49.7017 81.5215 48.9516 82.2716C48.2014 83.0217 47.78 84.0392 47.78 85.1V87C47.7192 90.2592 48.3746 93.4919 49.7 96.47C51.0259 99.3524 53.2316 101.74 56 103.29C58.978 104.876 62.3177 105.658 65.69 105.56C69.3224 105.69 72.9115 104.736 76 102.82C78.7726 100.944 80.8745 98.2327 82 95.08C83.1568 91.8061 83.719 88.3518 83.66 84.88C83.6973 82.1666 83.2955 79.4651 82.47 76.88C81.7483 74.6283 80.5667 72.5511 79 70.78C79.621 70.1643 80.1865 69.4951 80.69 68.78C82.777 65.6787 83.8273 61.9957 83.69 58.26C83.7606 54.9828 83.1014 51.731 81.76 48.74C80.4215 45.8929 78.2255 43.5361 75.48 42C72.4788 40.4092 69.1152 39.6268 65.72 39.73V39.66Z" fill="#131313"/>
<path d="M100.13 44.25L99.22 53.92L107.22 49.71L109 54.48L100.73 57.7L106.33 65.41L101.78 68.07L97.29 59.31L92.7 68.07L88.29 65.41L93.82 57.63L85.55 54.48L87.37 49.71L95.29 53.92L94.45 44.25H100.13ZM100.13 40.25H94.45C93.8948 40.248 93.3453 40.3616 92.8365 40.5835C92.3276 40.8054 91.8705 41.1309 91.4942 41.5391C91.118 41.9473 90.8308 42.4294 90.6511 42.9547C90.4713 43.4799 90.4028 44.0368 90.45 44.59L90.65 46.93L89.23 46.18C88.7299 45.9145 88.179 45.7582 87.614 45.7215C87.0489 45.6847 86.4825 45.7684 85.9522 45.9669C85.4219 46.1654 84.9397 46.4743 84.5377 46.873C84.1357 47.2718 83.8229 47.7513 83.62 48.28L81.8 53.05C81.4227 54.0406 81.4541 55.1405 81.8872 56.108C82.3204 57.0755 83.1198 57.8315 84.11 58.21L87.54 59.52L85 63.09C84.6806 63.5382 84.4571 64.0476 84.3435 64.5861C84.2299 65.1247 84.2287 65.6809 84.34 66.22C84.4522 66.7589 84.6744 67.2689 84.9927 67.718C85.311 68.1671 85.7186 68.5457 86.19 68.83L90.6 71.49C91.2241 71.8686 91.94 72.0692 92.67 72.07C93.4028 72.0697 94.1215 71.8681 94.7475 71.4872C95.3735 71.1062 95.8829 70.5607 96.22 69.91L97.22 68.03L98.22 69.89C98.4699 70.3714 98.815 70.7969 99.2345 71.1407C99.6539 71.4845 100.139 71.7395 100.66 71.89C101.023 71.9983 101.401 72.0522 101.78 72.05C102.483 72.0457 103.173 71.856 103.78 71.5L108.33 68.84C108.813 68.5586 109.231 68.1793 109.559 67.7263C109.886 67.2733 110.115 66.7568 110.23 66.21C110.346 65.6619 110.345 65.0956 110.228 64.5478C110.111 64 109.88 63.4829 109.55 63.03L107 59.54L110.44 58.2C111.414 57.8192 112.2 57.0722 112.63 56.119C113.06 55.1657 113.099 54.082 112.74 53.1L111 48.33C110.717 47.5606 110.205 46.8967 109.532 46.4281C108.86 45.9595 108.06 45.7088 107.24 45.71C106.592 45.7127 105.954 45.8705 105.38 46.17L103.93 46.93L104.15 44.62C104.206 44.0669 104.146 43.5082 103.974 42.9796C103.801 42.451 103.521 41.9641 103.15 41.55C102.77 41.1342 102.306 40.8035 101.789 40.5795C101.272 40.3554 100.713 40.2432 100.15 40.25H100.13Z" fill="#131313"/>
<path d="M120.5 45L112.5 49.5V53.5V58.5L120.5 57V92.5H133V46L132 42.5H125L120.5 45Z" fill="#FCFCFC"/>
<path d="M130.77 44.18V90.37H123.27V54C122.755 54.1845 122.227 54.3283 121.69 54.43C120.69 54.66 119.55 54.89 118.29 55.13L114.93 55.76L113.39 56.04V50.34C114.18 50.16 115.1 49.9 116.16 49.57C117.22 49.24 118.28 48.85 119.38 48.38C120.488 47.9073 121.543 47.3208 122.53 46.63C123.509 45.9561 124.374 45.1288 125.09 44.18H130.77ZM130.77 40.18H125.09C124.469 40.18 123.856 40.3246 123.301 40.6023C122.746 40.88 122.262 41.2832 121.89 41.78C121.426 42.3867 120.869 42.9165 120.24 43.35C119.479 43.8824 118.664 44.3348 117.81 44.7C116.88 45.0803 115.933 45.4141 114.97 45.7C113.97 46 113.17 46.23 112.47 46.4C111.594 46.6071 110.813 47.1038 110.254 47.8097C109.695 48.5157 109.391 49.3896 109.39 50.29V56C109.39 57.0609 109.811 58.0783 110.561 58.8284C111.312 59.5786 112.329 60 113.39 60C114.163 59.9575 114.93 59.8402 115.68 59.65L119 59H119.25V90.37C119.25 91.4309 119.671 92.4483 120.421 93.1984C121.172 93.9486 122.189 94.37 123.25 94.37H130.75C131.811 94.37 132.828 93.9486 133.578 93.1984C134.328 92.4483 134.75 91.4309 134.75 90.37V44.18C134.75 43.1191 134.328 42.1017 133.578 41.3516C132.828 40.6014 131.811 40.18 130.75 40.18H130.77Z" fill="#131313"/>
</svg>
