<svg width="36" height="36" viewBox="0 0 36 36" fill="none" xmlns="http://www.w3.org/2000/svg">
<rect x="1" y="1" width="34" height="34" rx="2" stroke="#131313" stroke-width="2"/>
<path d="M7.5 16.4999H25.29L19.845 9.95992C19.5904 9.6536 19.4679 9.25868 19.5045 8.86204C19.541 8.4654 19.7337 8.09953 20.04 7.84493C20.3463 7.59032 20.7412 7.46782 21.1379 7.50439C21.5345 7.54096 21.9004 7.7336 22.155 8.03993L29.655 17.0399C29.7055 17.1115 29.7506 17.1867 29.79 17.2649C29.79 17.3399 29.79 17.3849 29.895 17.4599C29.963 17.6319 29.9986 17.815 30 17.9999C29.9986 18.1849 29.963 18.3679 29.895 18.5399C29.895 18.6149 29.895 18.6599 29.79 18.7349C29.7506 18.8131 29.7055 18.8883 29.655 18.9599L22.155 27.9599C22.014 28.1292 21.8374 28.2654 21.6377 28.3588C21.4381 28.4521 21.2204 28.5003 21 28.4999C20.6495 28.5006 20.3099 28.3785 20.04 28.1549C19.8881 28.029 19.7626 27.8743 19.6705 27.6998C19.5785 27.5253 19.5218 27.3343 19.5037 27.1379C19.4856 26.9414 19.5064 26.7433 19.565 26.5549C19.6235 26.3665 19.7187 26.1915 19.845 26.0399L25.29 19.4999H7.5C7.10217 19.4999 6.72064 19.3419 6.43934 19.0606C6.15803 18.7793 6 18.3977 6 17.9999C6 17.6021 6.15803 17.2206 6.43934 16.9393C6.72064 16.658 7.10217 16.4999 7.5 16.4999Z" fill="#131313"/>
</svg>
