<svg width="158" height="157" viewBox="0 0 158 157" fill="none" xmlns="http://www.w3.org/2000/svg">
<g clip-path="url(#clip0)">
<path d="M97.9626 201.4L182.785 152.38" stroke="#131313" stroke-width="0.75" stroke-linecap="round" stroke-linejoin="round"/>
<path d="M112.829 67.69C97.4531 76.47 84.9845 97.69 84.9845 115.17C84.9845 132.65 105.326 149.88 120.702 141.1C128.694 136.53 136.497 124.43 141.573 115.39C146.248 107.07 147.018 94.01 147.018 85.65C147.018 83.12 152.812 82.1 152.323 80.02C149.435 67.79 125.977 60.19 112.829 67.69ZM110.201 108.82L111.35 120.57L118.224 113.34L123.06 116.07C120.156 119.501 116.702 122.424 112.839 124.72C106.824 128.17 110.191 108.85 110.191 108.85L110.201 108.82Z" fill="#FCFCFC" stroke="#131313" stroke-width="4" stroke-miterlimit="10"/>
<path d="M111.28 143.1C100.75 143.1 93.9463 134.67 93.9463 121.63C93.9463 103.57 106.934 81.49 122.79 72.41C126.863 69.9286 131.511 68.5502 136.277 68.41C146.818 68.41 153.622 76.84 153.622 89.88C153.622 107.94 140.683 130.02 124.778 139.1C120.705 141.581 116.057 142.96 111.29 143.1H111.28ZM111.22 132C112.045 132.195 112.89 132.293 113.738 132.29C116.942 132.153 120.058 131.2 122.79 129.52C125.761 127.771 128.471 125.614 130.842 123.11L120.042 117L111.22 132ZM105.426 107C104.101 110.734 103.392 114.658 103.328 118.62C103.217 121.753 103.942 124.859 105.426 127.62V107ZM137.197 114.94C137.796 113.94 138.376 112.94 138.915 111.94L120.322 101.46L118.754 104.13L137.197 114.94ZM114.467 110.94L115.826 108.7V99L114.467 99.77V110.94ZM142.831 102.45C143.757 99.3568 144.245 96.1489 144.28 92.92C144.28 87.99 142.951 84.12 140.504 81.76L131.961 96.33L142.831 102.45ZM132.311 79.32C129.648 79.7081 127.088 80.6189 124.778 82C121.972 83.6467 119.401 85.665 117.135 88L122.63 84.87V85L122.76 84.78L132.311 79.32Z" fill="#FCFCFC"/>
<path d="M136.277 70.37C145.379 70.37 151.623 77.5 151.623 89.84C151.623 107.29 139.165 128.54 123.779 137.32C120.014 139.642 115.71 140.945 111.29 141.1C102.189 141.1 95.9345 133.97 95.9345 121.63C95.9345 104.18 108.403 82.92 123.779 74.15C127.548 71.8289 131.855 70.5265 136.277 70.37ZM109.102 94.87L120.632 88.29V92.35L124.209 86.25L138.445 78.11C136.973 77.5148 135.398 77.2158 133.81 77.23C130.257 77.3463 126.795 78.3797 123.759 80.23C118.154 83.43 113.019 88.71 109.082 94.83L109.102 94.87ZM143.93 105.36C145.376 101.355 146.149 97.1379 146.218 92.88C146.218 85.99 143.781 81.12 139.854 78.77L129.164 97.07L143.95 105.4L143.93 105.36ZM117.784 101.78V95.53L112.469 98.59V118.12L119.353 106.72L137.876 117.56C139.267 115.491 140.515 113.329 141.613 111.09L122.96 100.6L130.103 88.42L123.369 92.26L117.784 101.78ZM107.474 132.49V97.65C103.697 104.36 101.379 111.81 101.379 118.55C101.379 125.29 103.697 130.09 107.474 132.49ZM113.788 134.24C117.321 134.116 120.762 133.083 123.779 131.24C127.649 128.954 131.107 126.033 134.01 122.6L119.313 114.31L108.323 133.02C110.015 133.871 111.885 134.303 113.778 134.28L113.788 134.24ZM136.317 66.41C131.201 66.5607 126.211 68.0427 121.841 70.71C113.848 75.3 106.295 83.09 100.69 92.65C95.0852 102.21 91.9781 112.53 91.9781 121.65C91.9781 135.91 99.5711 145.12 111.33 145.12C116.447 144.969 121.436 143.487 125.807 140.82C133.8 136.23 141.353 128.44 146.958 118.88C152.563 109.32 155.66 99 155.66 89.88C155.66 75.62 148.067 66.41 136.317 66.41ZM134.709 95.62L140.703 85.4C141.822 87.7585 142.36 90.3508 142.272 92.96C142.252 95.1504 142 97.3324 141.523 99.47L134.699 95.62H134.709ZM114.567 130.2L120.762 119.68L127.525 123.5C125.779 125.117 123.859 126.535 121.801 127.73C119.598 129.071 117.129 129.914 114.567 130.2Z" fill="#131313"/>
<path d="M91.9981 150.48L85.6639 154.17V78.61L18.3157 40.4L15.838 38.99L22.1721 35.31L91.9981 74.93V150.48Z" fill="#FCFCFC" stroke="#131313" stroke-width="4" stroke-linecap="round" stroke-linejoin="round"/>
<path d="M85.6639 154.17L15.838 114.55V38.99L85.6639 78.61V154.17Z" fill="#FCFCFC" stroke="#131313" stroke-width="4" stroke-linecap="round" stroke-linejoin="round"/>
<path d="M52.6542 118.42C52.3914 118.419 52.1333 118.35 51.9049 118.22L48.1783 116.09C47.9908 115.986 47.8277 115.843 47.7002 115.67C47.5726 115.498 47.4836 115.3 47.439 115.09L40.6152 76.5C40.5686 76.22 40.6017 75.9325 40.7108 75.6705C40.8199 75.4085 41.0006 75.1826 41.2322 75.0187C41.4638 74.8548 41.7368 74.7595 42.02 74.7438C42.3031 74.7281 42.585 74.7927 42.8332 74.93L46.8295 77.22C47.0171 77.3241 47.1801 77.4672 47.3077 77.6397C47.4352 77.8122 47.5243 78.0101 47.5689 78.22L51.0357 98.56L54.0329 83.56C54.0773 83.3262 54.1778 83.1066 54.3258 82.9202C54.4737 82.7339 54.6646 82.5862 54.8821 82.49C55.0857 82.4119 55.3044 82.3811 55.5216 82.4C55.781 82.4024 56.0356 82.4712 56.2609 82.6L60.1473 84.81C60.4244 84.9702 60.6435 85.2145 60.7728 85.5075C60.9021 85.8005 60.935 86.1271 60.8666 86.44L54.1128 117.24C54.0418 117.574 53.8581 117.874 53.5925 118.089C53.3269 118.304 52.9957 118.421 52.6542 118.42Z" fill="#FCFCFC"/>
<path d="M42.0938 76.24L46.0902 78.52L50.9158 106.82L55.5215 83.9L59.398 86.12L52.6542 116.92L48.9176 114.79L42.0938 76.24ZM42.0938 73.24C41.4748 73.2402 40.871 73.4324 40.3654 73.79C39.895 74.1196 39.5291 74.5777 39.3112 75.1095C39.0933 75.6413 39.0327 76.2246 39.1366 76.79L45.9703 115.34C46.0452 115.774 46.2147 116.187 46.4668 116.548C46.7189 116.909 47.0474 117.21 47.429 117.43L51.1655 119.56C51.6194 119.817 52.1325 119.952 52.6542 119.95C53.0739 119.948 53.4888 119.859 53.873 119.69C54.3024 119.499 54.6807 119.209 54.9775 118.844C55.2742 118.479 55.4811 118.05 55.5815 117.59L62.3253 86.79C62.4629 86.1655 62.3975 85.5134 62.1387 84.9287C61.8798 84.3441 61.4412 83.8575 60.8866 83.54L57.0002 81.3C56.5519 81.0368 56.0413 80.8986 55.5215 80.9C54.8292 80.9003 54.1583 81.1405 53.6228 81.5799C53.0874 82.0192 52.7204 82.6305 52.5842 83.31L51.1555 90.4L49.0475 78C48.9729 77.5631 48.8025 77.1482 48.5485 76.7851C48.2946 76.422 47.9634 76.1197 47.5788 75.9L43.5825 73.62C43.1316 73.3642 42.6221 73.2298 42.1038 73.23L42.0938 73.24Z" fill="#131313"/>
<path d="M91.9981 74.93L85.6639 78.61" stroke="#131313" stroke-width="4" stroke-linecap="round" stroke-linejoin="round"/>
<path d="M38.8169 44C38.1175 44 37.3982 44 36.6888 43.9C33.5831 43.5301 30.5905 42.5078 27.9069 40.9C24.4301 38.9 22.4719 36.9 21.9124 34.68C21.7425 34.02 20.4937 24.09 22.9115 21.46C23.1825 21.166 23.5117 20.9315 23.878 20.7715C24.2443 20.6114 24.6398 20.5292 25.0395 20.53C26.3054 20.645 27.5019 21.1598 28.4564 22C29.0456 22.499 29.7235 22.8823 30.4545 23.13L45.0811 14.78C47.8169 13.2043 50.7186 11.9365 53.7332 11C55.9098 10.338 58.1721 10.0011 60.447 10C61.2144 9.99698 61.9814 10.0337 62.7449 10.11C65.9651 10.4976 69.0723 11.5389 71.8765 13.17C72.3213 12.6362 72.7128 12.0601 73.0455 11.45C73.6749 10.38 74.3243 9.27002 75.693 9.27002C76.1337 9.28587 76.5595 9.4334 76.9156 9.69361C77.2717 9.95381 77.5419 10.3148 77.6912 10.73C78.4205 12.53 78.2906 22.73 76.6122 24.85C74.9317 26.7902 72.8973 28.3921 70.6177 29.57L67.3407 31.44C67.0362 31.6128 66.6916 31.7024 66.3416 31.7C65.9919 31.6997 65.6481 31.6102 65.3425 31.44L59.9375 28.3C59.6326 28.1238 59.3796 27.8701 59.2041 27.5645C59.0287 27.259 58.937 26.9124 58.9384 26.56V18.68L58.3489 18.89C56.7821 19.5379 55.2601 20.2895 53.7931 21.14L37.3682 30.51C35.9205 31.2539 34.5768 32.1853 33.3719 33.28C33.2359 33.419 33.1122 33.5696 33.0022 33.73C33.4188 34.1879 33.9168 34.5642 34.4709 34.84C35.501 35.4896 36.6815 35.8617 37.8977 35.92C39.0751 35.8995 40.2366 35.6445 41.3146 35.17C42.81 34.5304 44.2677 33.8059 45.6806 33L48.5779 31.35L53.933 26.7C54.2961 26.3843 54.7608 26.2104 55.2418 26.21C55.5279 26.2099 55.8107 26.2713 56.071 26.39C56.4197 26.5492 56.7154 26.8055 56.9226 27.1281C57.1299 27.4508 57.24 27.8264 57.24 28.21V36.13C57.2414 36.4824 57.1497 36.829 56.9743 37.1345C56.7988 37.4401 56.5458 37.6938 56.2409 37.87L53.1737 39.62C50.6516 41.0778 47.9696 42.2389 45.181 43.08C43.1147 43.6906 40.9714 44.0005 38.8169 44Z" fill="#FCFCFC"/>
<path d="M75.693 11.27C75.773 11.27 75.8329 11.34 75.8928 11.48C76.4623 12.89 76.2026 22.22 75.0936 23.61C73.5771 25.3404 71.7507 26.7717 69.7085 27.83L66.4315 29.7L60.9266 26.56V18.64C61.0451 18.5722 61.1797 18.5376 61.3162 18.54C62.9447 18.54 66.2217 22.54 67.4406 22.54C67.527 22.5393 67.6109 22.5113 67.6804 22.46C68.6994 21.7 69.189 20.94 69.149 20.18C69.149 19.42 68.2898 18.58 66.6813 17.66C65.2755 16.7918 63.6749 16.2899 62.0256 16.2H61.8058C60.3616 16.2142 58.9337 16.5062 57.5996 17.06C55.9425 17.7358 54.3336 18.5243 52.784 19.42L36.3791 28.77C34.7773 29.6135 33.2899 30.6586 31.9532 31.88C31.0939 32.76 30.7942 33.58 31.074 34.32C31.6239 35.3259 32.4919 36.1208 33.5417 36.58C34.8722 37.4035 36.3943 37.8654 37.9576 37.92C39.3911 37.8991 40.8053 37.5861 42.1138 37C43.6734 36.3174 45.1943 35.5496 46.6697 34.7L49.7368 33L55.2418 28.22V36.14L52.1746 37.89C49.7629 39.264 47.1974 40.3482 44.5316 41.12C42.6634 41.6741 40.7254 41.957 38.7769 41.96C38.1375 41.96 37.4881 41.96 36.8487 41.87C34.0226 41.5377 31.2987 40.6108 28.856 39.15C25.8587 37.46 24.2302 35.81 23.8606 34.15C23.4909 32.49 22.9814 24.33 24.4201 22.78C24.5039 22.6852 24.607 22.6094 24.7224 22.5577C24.8378 22.506 24.963 22.4795 25.0895 22.48C26.4282 22.48 28.4763 25.13 30.4246 25.13C30.7746 25.1324 31.1191 25.0427 31.4236 24.87L46.0402 16.52C48.6493 15.003 51.421 13.7853 54.3027 12.89C56.2951 12.289 58.3661 11.989 60.447 12C61.1464 12 61.8457 12 62.5451 12.11C65.5756 12.4647 68.4988 13.449 71.1272 15C71.3611 15.1465 71.6306 15.2261 71.9065 15.23C73.8148 15.23 75.0736 11.23 75.693 11.23V11.27ZM75.693 7.22998C73.1853 7.22998 72.0164 9.22998 71.317 10.4L71.2371 10.54C68.6395 9.23717 65.8321 8.40435 62.9447 8.07998C62.1155 7.99998 61.2763 7.99998 60.447 7.99998C57.975 8.00484 55.5174 8.37552 53.1537 9.09998C49.9897 10.0976 46.9443 11.4389 44.072 13.1L30.3446 20.91C30.0949 20.75 29.8251 20.55 29.6253 20.41C28.3636 19.3003 26.7745 18.6332 25.0994 18.51C24.4321 18.5131 23.7726 18.6542 23.1623 18.9243C22.552 19.1945 22.004 19.5879 21.5527 20.08C18.1059 23.77 20.0041 35.08 20.0241 35.14C20.7135 37.9 22.9714 40.35 26.9577 42.62C29.8858 44.366 33.1522 45.4671 36.5389 45.85C37.3082 45.92 38.0875 45.96 38.8568 45.96C41.187 45.9536 43.5046 45.6169 45.7405 44.96C48.6885 44.0764 51.5248 42.855 54.1927 41.32L57.2599 39.57C57.8698 39.2176 58.3758 38.7101 58.7267 38.099C59.0776 37.4879 59.2609 36.7948 59.2581 36.09V30.19L64.4733 33.19C65.0808 33.5411 65.77 33.7259 66.4715 33.7259C67.173 33.7259 67.8621 33.5411 68.4697 33.19L71.7367 31.33C74.2226 30.02 76.4393 28.2524 78.2707 26.12C78.8301 25.42 79.8492 24.12 80.1589 17.77C80.3488 13.93 80.1589 11.32 79.6494 9.99998C79.3426 9.20982 78.8066 8.52956 78.1105 8.04664C77.4144 7.56372 76.5899 7.30021 75.743 7.28998L75.693 7.22998ZM36.2892 33.52C36.8087 33.16 37.4781 32.74 38.3573 32.24L54.7722 22.88C55.5115 22.45 56.2309 22.06 56.9302 21.72V24.55C56.2331 24.2323 55.4594 24.1218 54.7013 24.2317C53.9432 24.3416 53.2326 24.6673 52.6542 25.17L47.4389 29.69L44.7214 31.25C43.365 32.0191 41.9675 32.7135 40.5353 33.33C39.7108 33.6994 38.8208 33.9 37.9177 33.92C37.3538 33.8953 36.8004 33.7593 36.2892 33.52Z" fill="#131313"/>
<path d="M71.5069 65.62C71.1572 65.6197 70.8134 65.5302 70.5078 65.36L65.0028 62.21C64.6994 62.0346 64.4473 61.7825 64.272 61.4788C64.0966 61.1752 64.0041 60.8307 64.0038 60.48V52.56C64.003 52.1318 64.1396 51.7147 64.3934 51.37L54.3226 55.27C54.0919 55.3536 53.8487 55.3975 53.6033 55.4C53.2536 55.3997 52.9098 55.3102 52.6042 55.14L47.1492 52C46.8458 51.8246 46.5937 51.5725 46.4184 51.2688C46.243 50.9652 46.1505 50.6207 46.1501 50.27V42.37C46.1496 41.9601 46.2748 41.56 46.5089 41.2238C46.743 40.8875 47.0746 40.6314 47.4589 40.49L97.7128 21.9C97.9859 21.7996 98.2776 21.7601 98.5675 21.7843C98.8574 21.8085 99.1386 21.8957 99.3913 22.04L104.996 25.24C105.301 25.4162 105.554 25.6699 105.73 25.9755C105.905 26.281 105.997 26.6276 105.995 26.98V34.9C105.996 35.1832 105.937 35.4634 105.822 35.7219C105.706 35.9805 105.537 36.2116 105.326 36.4L72.8257 65.12C72.4614 65.4415 71.9926 65.6193 71.5069 65.62ZM77.6812 48.21L82.297 44.36L75.5632 47L77.6812 48.21Z" fill="#FCFCFC"/>
<path d="M98.4022 23.78L104.007 26.98V34.9L71.5069 63.62L66.0019 60.48V52.56L74.5341 53.44L66.0419 48.59L53.5933 53.4L48.1383 50.29V42.37L98.4022 23.78ZM93.0571 38L70.9474 46.67L77.941 50.67L93.0571 38ZM98.4022 19.8C97.928 19.7985 97.4574 19.8832 97.0135 20.05L46.7596 38.61C45.9909 38.8928 45.3276 39.4051 44.8595 40.0776C44.3913 40.7501 44.1408 41.5503 44.142 42.37V50.29C44.1409 50.9931 44.3251 51.6841 44.6759 52.2933C45.0267 52.9025 45.5318 53.4084 46.1401 53.76L51.5951 56.87C52.2032 57.219 52.8923 57.4018 53.5933 57.4C54.0854 57.3994 54.5731 57.3079 55.032 57.13L62.0256 54.44V60.44C62.0245 61.1431 62.2087 61.8341 62.5595 62.4433C62.9103 63.0525 63.4153 63.5584 64.0237 63.91L69.5087 67.09C70.1153 67.4426 70.8054 67.6256 71.5069 67.62C72.4817 67.621 73.4233 67.2654 74.1544 66.62L106.655 37.9C107.079 37.5242 107.419 37.0624 107.651 36.5452C107.884 36.028 108.004 35.4672 108.003 34.9V27C108.004 26.2968 107.82 25.6058 107.469 24.9966C107.119 24.3874 106.614 23.8816 106.005 23.53L100.38 20.3C99.7701 19.9575 99.0819 19.7784 98.3822 19.78L98.4022 19.8Z" fill="#131313"/>
<path d="M101.379 79.66C100.287 79.6577 99.195 79.5809 98.1125 79.43C94.8518 78.9117 91.7191 77.7783 88.8809 76.09L79.3597 70.66C79.0547 70.4838 78.8017 70.2301 78.6263 69.9245C78.4508 69.619 78.3592 69.2724 78.3606 68.92V61C78.3605 60.5943 78.4838 60.1981 78.714 59.8641C78.9442 59.5301 79.2704 59.2741 79.6494 59.13L121.061 43.42C121.288 43.3327 121.528 43.2886 121.771 43.29C122.121 43.2876 122.465 43.3773 122.77 43.55L131.832 48.72C131.922 48.7765 132.025 48.8076 132.131 48.81C132.661 48.81 133.55 48.05 134.129 47.54C134.843 46.7301 135.834 46.2165 136.907 46.1C137.352 46.1036 137.788 46.2284 138.169 46.4609C138.549 46.6934 138.858 47.0249 139.065 47.42C140.304 49.66 139.574 59.08 138.006 61.23C136.231 63.3986 134.027 65.1759 131.532 66.45L116.306 75.14C113.464 76.8005 110.413 78.0719 107.234 78.92C105.321 79.4077 103.354 79.6563 101.379 79.66ZM94.5857 70C96.0367 70.9213 97.6889 71.4771 99.4013 71.62H99.6111C101.037 71.6024 102.444 71.282 103.737 70.68C105.426 69.92 107.374 68.91 109.522 67.68L122.97 60C124.553 59.1384 126.054 58.1343 127.456 57C127.656 56.8424 127.825 56.6492 127.955 56.43C127.255 55.626 126.394 54.9786 125.427 54.53L123.279 53.31L94.3059 69.83L94.5857 70Z" fill="#FCFCFC"/>
<path d="M121.761 45.29L130.812 50.45C131.205 50.685 131.654 50.8094 132.111 50.81C134.219 50.81 135.968 48.1 136.897 48.1C136.986 48.1046 137.071 48.1343 137.144 48.1856C137.216 48.237 137.273 48.3078 137.306 48.39C138.176 49.96 137.486 58.54 136.387 60.05C134.769 61.9821 132.778 63.5671 130.533 64.71L115.297 73.41C112.616 74.9847 109.736 76.1921 106.735 77C104.984 77.4466 103.186 77.675 101.379 77.68C100.377 77.6807 99.3751 77.6105 98.3822 77.47C95.3697 76.9849 92.4752 75.9366 89.85 74.38L80.3288 68.94V61L121.761 45.29ZM99.6111 73.64C101.337 73.631 103.041 73.2489 104.606 72.52C106.355 71.74 108.343 70.71 110.601 69.45L124.049 61.77C125.744 60.8524 127.349 59.7777 128.844 58.56C129.903 57.64 130.273 56.75 129.963 55.87C129.654 54.99 128.455 54 126.456 52.85L123.319 51.06L90.3496 69.88L93.6366 71.76C95.3724 72.8481 97.3484 73.4936 99.3913 73.64H99.651H99.6111ZM121.761 41.29C121.276 41.2871 120.795 41.3753 120.342 41.55L78.9301 57.26C78.1721 57.5481 77.5196 58.0601 77.0592 58.7281C76.5988 59.3961 76.3523 60.1885 76.3524 61V68.92C76.3496 69.6248 76.533 70.3179 76.8838 70.929C77.2347 71.5401 77.7407 72.0476 78.3506 72.4L87.8718 77.83C90.931 79.6385 94.3036 80.8531 97.8127 81.41C98.988 81.5728 100.173 81.6564 101.359 81.66C103.496 81.6574 105.625 81.3852 107.694 80.85C111.05 79.9549 114.269 78.6094 117.265 76.85L132.501 68.16C135.238 66.7424 137.652 64.7747 139.594 62.38C139.954 61.88 141.083 60.38 141.593 54.53C142.102 48.68 141.163 47.04 140.833 46.43C140.456 45.7178 139.892 45.1219 139.202 44.7062C138.512 44.2904 137.722 44.0705 136.917 44.07C135.353 44.1685 133.885 44.8584 132.811 46C132.621 46.17 132.361 46.39 132.121 46.58L123.739 41.79C123.13 41.4445 122.441 41.2652 121.741 41.27L121.761 41.29ZM98.8818 69.59L123.279 55.66L124.438 56.32L124.818 56.54C124.139 57.01 123.219 57.59 121.981 58.3L108.533 66C106.445 67.19 104.537 68.17 102.918 68.9C101.884 69.3907 100.756 69.6533 99.6111 69.67H99.4812C99.2916 69.6823 99.1013 69.6823 98.9117 69.67L98.8818 69.59Z" fill="#131313"/>
<path d="M38.8169 36C38.1175 36 37.3982 36 36.6888 35.9C33.5831 35.5301 30.5905 34.5078 27.9069 32.9C24.4301 30.9 22.4719 28.9 21.9124 26.68C21.5127 25.08 21.5527 22.68 23.9105 20.06C25.8142 18.1203 27.9962 16.4755 30.3846 15.18L45.0611 6.89001C47.8024 5.30599 50.7109 4.03151 53.7332 3.09001C55.912 2.42268 58.1784 2.08561 60.457 2.09001C61.2212 2.09062 61.9848 2.13067 62.7449 2.21001C66.056 2.6111 69.2474 3.69746 72.1163 5.40001C75.1136 7.14001 76.9918 8.89001 77.7412 10.75C78.1595 11.7809 78.2802 12.9086 78.0894 14.0048C77.8986 15.101 77.4041 16.1214 76.6622 16.95C74.9817 18.8902 72.9472 20.4921 70.6677 21.67L67.3907 23.54C67.0861 23.7128 66.7416 23.8024 66.3916 23.8C66.0419 23.7997 65.698 23.7102 65.3925 23.54L59.8875 20.39C59.5841 20.2146 59.332 19.9625 59.1567 19.6588C58.9813 19.3552 58.8888 19.0107 58.8885 18.66C58.8871 18.3076 58.9787 17.9611 59.1542 17.6555C59.3296 17.3499 59.5826 17.0962 59.8875 16.92L62.8049 15.26C64.0853 14.5536 65.323 13.7723 66.5115 12.92C66.7211 12.7736 66.9123 12.6023 67.0809 12.41C66.667 12.0363 66.207 11.717 65.7122 11.46C64.5974 10.7617 63.3277 10.3495 62.0156 10.26H61.8358C60.6456 10.2747 59.4691 10.5156 58.3689 10.97C56.8002 11.6138 55.278 12.3656 53.8131 13.22L37.3682 22.58C35.9215 23.3297 34.5782 24.2641 33.3719 25.36C33.2325 25.4933 33.1116 25.6447 33.0122 25.81C33.441 26.2802 33.9611 26.6579 34.5408 26.92C35.5522 27.5627 36.7115 27.9346 37.9077 28C39.0851 27.9795 40.2466 27.7245 41.3246 27.25C42.8164 26.58 44.2706 25.8289 45.6806 25L48.7478 23.25C49.0523 23.0772 49.3968 22.9876 49.7468 22.99C50.0965 22.9903 50.4404 23.0798 50.7459 23.25L56.2509 26.39C56.5584 26.5644 56.8142 26.8174 56.9921 27.1231C57.1701 27.4288 57.2638 27.7762 57.2638 28.13C57.2638 28.4838 57.1701 28.8313 56.9921 29.1369C56.8142 29.4426 56.5584 29.6956 56.2509 29.87L53.1837 31.62C50.6616 33.0778 47.9796 34.2388 45.191 35.08C43.1215 35.6916 40.9747 36.0014 38.8169 36Z" fill="#FCFCFC"/>
<path d="M60.447 4.07001C61.1464 4.07001 61.8457 4.07001 62.5451 4.18001C65.5794 4.55007 68.5027 5.55153 71.1272 7.12001C73.7315 8.60667 75.32 10.06 75.8929 11.48C76.1723 12.1854 76.2455 12.9557 76.104 13.7012C75.9625 14.4466 75.612 15.1364 75.0936 15.69C73.5771 17.4204 71.7507 18.8517 69.7085 19.91L66.4315 21.78L60.9266 18.64L63.8439 17C65.1707 16.2611 66.4518 15.443 67.6804 14.55C68.6995 13.79 69.189 13.03 69.149 12.27C69.149 11.51 68.2898 10.67 66.6813 9.75001C65.2755 8.88186 63.6749 8.37992 62.0256 8.29001H61.8058C60.3616 8.30427 58.9337 8.59623 57.5996 9.15001C55.9425 9.82578 54.3336 10.6143 52.7841 11.51L36.3791 20.85C34.7729 21.7024 33.285 22.7614 31.9532 24C31.094 24.88 30.7942 25.7 31.074 26.44C31.6308 27.431 32.498 28.2111 33.5417 28.66C34.8576 29.4753 36.3614 29.9368 37.9077 30C39.3479 29.9819 40.7692 29.6688 42.0839 29.08C43.6434 28.3974 45.1643 27.6296 46.6397 26.78L49.7369 25L55.2418 28.14L52.1746 29.89C49.7645 31.2876 47.1994 32.3985 44.5316 33.2C42.6634 33.7542 40.7254 34.0371 38.7769 34.04C38.1375 34.04 37.4881 34.04 36.8487 33.95C34.0226 33.6178 31.2987 32.6908 28.856 31.23C25.8588 29.54 24.2303 27.89 23.8606 26.23C23.6773 25.368 23.725 24.4728 23.9987 23.6351C24.2724 22.7974 24.7624 22.0471 25.4192 21.46C27.1831 19.6651 29.2033 18.1418 31.4137 16.94L46.0502 8.63001C48.6593 7.11305 51.431 5.89536 54.3127 5.00001C56.2999 4.38641 58.3674 4.07297 60.447 4.07001ZM60.447 0.0700073C57.975 0.0748679 55.5174 0.445543 53.1537 1.17001C49.9897 2.16761 46.9444 3.50893 44.0721 5.17001L29.4555 13.5C26.9035 14.8966 24.5762 16.6698 22.5518 18.76C19.5545 21.99 19.5545 25.14 20.0241 27.22C20.7135 29.98 22.9714 32.43 26.9578 34.7C29.8858 36.446 33.1522 37.5472 36.539 37.93C37.3083 38 38.0875 38.04 38.8568 38.04C41.1871 38.0336 43.5046 37.697 45.7405 37.04C48.6886 36.1565 51.5248 34.935 54.1928 33.4L57.26 31.65C57.8726 31.3004 58.3819 30.7948 58.7362 30.1845C59.0905 29.5742 59.2771 28.8809 59.2771 28.175C59.2771 27.4691 59.0905 26.7759 58.7362 26.1655C58.3819 25.5552 57.8726 25.0496 57.26 24.7L51.755 21.55C51.1459 21.2045 50.4569 21.0252 49.7568 21.03C49.0568 21.0252 48.3677 21.2045 47.7587 21.55L44.6915 23.3C43.3473 24.0819 41.9597 24.7864 40.5353 25.41C39.7108 25.7794 38.8208 25.98 37.9177 26C37.3526 25.976 36.7984 25.8364 36.2892 25.59C36.8087 25.24 37.4781 24.82 38.3573 24.32L54.7722 15C56.1579 14.1936 57.5966 13.4819 59.0783 12.87C59.9427 12.5073 60.8686 12.3138 61.8058 12.3H61.9357C62.4428 12.3242 62.9425 12.4323 63.4143 12.62C62.9347 12.92 62.4152 13.22 61.8657 13.54L58.9484 15.2C58.3238 15.5459 57.8031 16.053 57.4406 16.6685C57.078 17.284 56.8868 17.9855 56.8868 18.7C56.8868 19.4145 57.078 20.116 57.4406 20.7315C57.8031 21.347 58.3238 21.8541 58.9484 22.2L64.4533 25.34C65.0609 25.6911 65.75 25.8759 66.4515 25.8759C67.153 25.8759 67.8422 25.6911 68.4497 25.34L71.7167 23.48C74.2026 22.17 76.4194 20.4025 78.2507 18.27C79.2174 17.1511 79.8553 15.7858 80.0934 14.3259C80.3315 12.866 80.1605 11.3685 79.5994 10C78.6703 7.70001 76.5423 5.63001 73.1054 3.67001C70.0004 1.81018 66.5379 0.627711 62.9447 0.200007C62.1155 0.120007 61.2763 0.0700073 60.447 0.0700073Z" fill="#131313"/>
<path d="M71.5069 57.7C71.1559 57.6994 70.8113 57.6062 70.5078 57.43L65.0028 54.29C64.72 54.1298 64.4804 53.903 64.3049 53.6292C64.1295 53.3554 64.0233 53.043 63.9958 52.7188C63.9682 52.3947 64.0201 52.0688 64.1468 51.7693C64.2735 51.4697 64.4714 51.2057 64.7231 51L71.0173 45.81L65.862 42.87L54.3126 47.34C54.0835 47.4306 53.8397 47.4781 53.5933 47.48C53.2436 47.4797 52.8998 47.3902 52.5942 47.22L47.1492 44.1C46.8198 43.9108 46.551 43.6315 46.3745 43.295C46.1979 42.9584 46.1209 42.5784 46.1523 42.1996C46.1838 41.8207 46.3224 41.4587 46.5521 41.1559C46.7817 40.8531 47.0928 40.6221 47.4489 40.49L97.7128 21.9C97.9859 21.7996 98.2776 21.7601 98.5675 21.7843C98.8574 21.8085 99.1386 21.8957 99.3913 22.04L104.996 25.24C105.273 25.3981 105.509 25.6205 105.683 25.8884C105.857 26.1564 105.964 26.4621 105.995 26.78C106.028 27.0954 105.985 27.414 105.87 27.7096C105.756 28.0052 105.572 28.2692 105.336 28.48L72.8257 57.2C72.4614 57.5215 71.9926 57.6993 71.5069 57.7ZM77.6812 40.29L82.297 36.44L75.5731 39.08L77.6812 40.29Z" fill="#FCFCFC"/>
<path d="M98.4022 23.78L104.007 26.98L71.5069 55.7L66.0019 52.56L74.5341 45.56L66.0419 40.71L53.5933 45.48L48.1383 42.37L98.4022 23.78ZM93.0571 30.06L70.9474 38.75L77.941 42.75L93.0571 30.06ZM98.4022 19.78C97.928 19.7785 97.4574 19.8632 97.0135 20.03L46.7596 38.61C46.0447 38.873 45.4199 39.3349 44.9585 39.9415C44.4972 40.548 44.2186 41.2739 44.1557 42.0336C44.0927 42.7933 44.2479 43.5552 44.603 44.2295C44.9581 44.9039 45.4984 45.4626 46.1601 45.84L51.6151 49C52.2232 49.349 52.9123 49.5318 53.6133 49.53C54.1054 49.5294 54.5931 49.4379 55.052 49.26L65.7222 45.14L67.5305 46.14L63.4742 49.49C62.9845 49.9014 62.6004 50.4244 62.3544 51.0151C62.1084 51.6058 62.0076 52.247 62.0605 52.8848C62.1133 53.5225 62.3183 54.1383 62.6582 54.6804C62.9981 55.2225 63.4629 55.675 64.0138 56L69.5087 59.17C70.1153 59.5226 70.8054 59.7056 71.5069 59.7C72.4817 59.701 73.4233 59.3454 74.1545 58.7L106.655 30C107.131 29.5792 107.5 29.0509 107.731 28.4588C107.963 27.8667 108.05 27.2279 107.985 26.5954C107.921 25.9629 107.707 25.3549 107.361 24.8218C107.015 24.2887 106.546 23.8459 105.995 23.53L100.38 20.3C99.7701 19.9575 99.0819 19.7784 98.3822 19.78H98.4022Z" fill="#131313"/>
<path d="M101.379 71.74C100.286 71.7393 99.1942 71.6591 98.1125 71.5C94.8519 70.9871 91.7188 69.857 88.8809 68.17L79.3597 62.74C79.0545 62.5649 78.801 62.3122 78.6247 62.0076C78.4483 61.7029 78.3555 61.3571 78.3555 61.005C78.3555 60.6529 78.4483 60.3071 78.6247 60.0025C78.801 59.6978 79.0545 59.4452 79.3597 59.27L120.772 35.63C121.076 35.4573 121.421 35.3676 121.771 35.37C122.121 35.3642 122.467 35.4541 122.77 35.63L131.832 40.8C135.268 42.8 137.456 44.64 138.515 46.55C139.123 47.5959 139.4 48.801 139.311 50.0074C139.222 51.2137 138.77 52.365 138.016 53.31C136.241 55.4786 134.037 57.2559 131.542 58.53L116.316 67.22C113.468 68.8822 110.41 70.1536 107.224 71C105.314 71.4869 103.351 71.7355 101.379 71.74ZM94.5857 62.1C96.0367 63.0213 97.689 63.5771 99.4013 63.72H99.6111C101.037 63.7024 102.444 63.382 103.737 62.78C105.426 62.02 107.374 61.01 109.522 59.78L122.97 52.1C124.553 51.2384 126.054 50.2343 127.456 49.1C127.656 48.9424 127.825 48.7492 127.955 48.53C127.255 47.726 126.394 47.0786 125.427 46.63L123.279 45.41L94.3359 62L94.5857 62.1Z" fill="#FCFCFC"/>
<path d="M121.761 37.37L130.812 42.53C133.896 44.2966 135.874 45.9633 136.747 47.53C137.171 48.2411 137.365 49.0665 137.3 49.8923C137.236 50.718 136.917 51.5034 136.387 52.14C134.769 54.0721 132.778 55.6571 130.533 56.8L115.297 65.5C112.615 67.0677 109.735 68.2684 106.735 69.07C104.984 69.5166 103.186 69.745 101.379 69.75C100.376 69.7524 99.3743 69.6788 98.3822 69.53C95.369 69.0533 92.4736 68.0082 89.85 66.45L80.3488 61L121.761 37.37ZM99.6111 65.72C101.337 65.711 103.041 65.3289 104.607 64.6C106.355 63.82 108.343 62.79 110.601 61.53L124.049 53.85C125.744 52.9323 127.349 51.8576 128.844 50.64C129.903 49.72 130.273 48.83 129.963 47.95C129.654 47.07 128.495 46.06 126.506 44.95L123.369 43.16L90.3096 62L93.5966 63.88C95.3325 64.968 97.3084 65.6135 99.3513 65.76H99.6111V65.72ZM121.761 33.37C121.061 33.3651 120.372 33.5444 119.763 33.89L78.3706 57.53C77.746 57.8759 77.2253 58.383 76.8627 58.9985C76.5002 59.614 76.309 60.3154 76.309 61.03C76.309 61.7445 76.5002 62.446 76.8627 63.0615C77.2253 63.677 77.746 64.1841 78.3706 64.53L87.8918 69.96C90.9495 71.7698 94.323 72.9813 97.8327 73.53C99.0073 73.7011 100.193 73.788 101.379 73.79C103.516 73.7874 105.645 73.5152 107.714 72.98C111.068 72.0805 114.287 70.7352 117.285 68.98L132.521 60.28C135.259 58.869 137.675 56.9042 139.614 54.51C140.591 53.2568 141.172 51.741 141.284 50.156C141.396 48.5709 141.034 46.9883 140.244 45.61C138.985 43.34 136.617 41.26 132.801 39.08L123.739 33.91C123.13 33.5644 122.441 33.3851 121.741 33.39L121.761 33.37ZM98.8818 61.67L123.279 47.74L124.438 48.4L124.818 48.62C124.139 49.09 123.219 49.67 121.981 50.38L108.533 58.05C106.445 59.24 104.537 60.22 102.918 60.95C101.884 61.4407 100.756 61.7033 99.6111 61.72H99.4812C99.2916 61.7323 99.1014 61.7323 98.9117 61.72L98.8818 61.67Z" fill="#131313"/>
<path d="M53.5933 45.48V53.4" stroke="#131313" stroke-width="4" stroke-linejoin="round"/>
<path d="M71.4969 55.7V63.62" stroke="#131313" stroke-width="4" stroke-linejoin="round"/>
<path d="M66.4315 21.78V29.7" stroke="#131313" stroke-width="4" stroke-linejoin="round"/>
</g>
<defs>
<clipPath id="clip0">
<rect width="156.856" height="157" fill="white" transform="translate(0.57196)"/>
</clipPath>
</defs>
</svg>
