<svg width="157" height="157" viewBox="0 0 157 157" fill="none" xmlns="http://www.w3.org/2000/svg">
<path d="M93.5299 7.87988H12.3799V115.17H67.1099V44.3099H93.5299V7.87988Z" stroke="#131313" stroke-width="4" stroke-linecap="round" stroke-linejoin="round"/>
<path d="M21.9697 19.3398H77.4297" stroke="#131313" stroke-width="4" stroke-linecap="round" stroke-linejoin="round"/>
<path d="M21.6396 26.2402H40.1497" stroke="#131313" stroke-width="4" stroke-linecap="round" stroke-linejoin="round"/>
<path d="M45.2803 26.2402H58.8903" stroke="#131313" stroke-width="4" stroke-linecap="round" stroke-linejoin="round"/>
<path d="M22.96 58.7798H36.21" stroke="#131313" stroke-width="4" stroke-linecap="round" stroke-linejoin="round"/>
<path d="M40.8398 58.7798H67.1098" stroke="#131313" stroke-width="4" stroke-linecap="round" stroke-linejoin="round"/>
<path d="M22.96 68.1001H67.11" stroke="#131313" stroke-width="4" stroke-linecap="round" stroke-linejoin="round"/>
<path d="M22.96 77.4302H60.7" stroke="#131313" stroke-width="4" stroke-linecap="round" stroke-linejoin="round"/>
<path d="M22.96 49.46H60.7" stroke="#131313" stroke-width="4" stroke-linecap="round" stroke-linejoin="round"/>
<path d="M22.96 86.75H67.11" stroke="#131313" stroke-width="4" stroke-linecap="round" stroke-linejoin="round"/>
<path d="M148.26 44.3101H67.1104V151.6H133.16L148.26 136.5V44.3101Z" stroke="#131313" stroke-width="4" stroke-linecap="round" stroke-linejoin="round"/>
<path d="M133.16 151.6L148.26 136.5H133.16V151.6Z" stroke="#131313" stroke-width="4" stroke-linecap="round" stroke-linejoin="round"/>
<path d="M76.7002 55.7798H132.16" stroke="#131313" stroke-width="4" stroke-linecap="round" stroke-linejoin="round"/>
<path d="M76.3701 62.6699H94.8801" stroke="#131313" stroke-width="4" stroke-linecap="round" stroke-linejoin="round"/>
<path d="M100.01 62.6699H113.61" stroke="#131313" stroke-width="4" stroke-linecap="round" stroke-linejoin="round"/>
<path d="M77.6904 95.2202H90.9304" stroke="#131313" stroke-width="4" stroke-linecap="round" stroke-linejoin="round"/>
<path d="M95.5596 95.2202H128.04" stroke="#131313" stroke-width="4" stroke-linecap="round" stroke-linejoin="round"/>
<path d="M77.6904 104.54H123.95" stroke="#131313" stroke-width="4" stroke-linecap="round" stroke-linejoin="round"/>
<path d="M77.6904 113.86H115.42" stroke="#131313" stroke-width="4" stroke-linecap="round" stroke-linejoin="round"/>
<path d="M77.6904 85.8901H115.42" stroke="#131313" stroke-width="4" stroke-linecap="round" stroke-linejoin="round"/>
<path d="M77.6904 123.18H130.84" stroke="#131313" stroke-width="4" stroke-linecap="round" stroke-linejoin="round"/>
</svg>
