<svg width="157" height="157" viewBox="0 0 157 157" fill="none" xmlns="http://www.w3.org/2000/svg">
<path d="M143.22 85.24C143.22 83.54 135.6 60.68 135.6 60.68H104.41V85.24H143.22Z" stroke="#131313" stroke-width="4" stroke-linecap="round" stroke-linejoin="round"/>
<path d="M104.41 60.68H137C138.061 60.68 139.078 60.2586 139.828 59.5084C140.579 58.7583 141 57.7409 141 56.68C141 55.6191 140.579 54.6017 139.828 53.8516C139.078 53.1014 138.061 52.68 137 52.68H104.41V60.68Z" stroke="#131313" stroke-width="4" stroke-linecap="round" stroke-linejoin="round"/>
<path d="M148.66 100.56C149.388 100.529 150.115 100.645 150.797 100.902C151.479 101.159 152.101 101.551 152.628 102.055C153.154 102.559 153.573 103.165 153.859 103.835C154.145 104.505 154.292 105.226 154.292 105.955C154.292 106.684 154.145 107.405 153.859 108.075C153.573 108.745 153.154 109.351 152.628 109.855C152.101 110.359 151.479 110.751 150.797 111.008C150.115 111.265 149.388 111.381 148.66 111.35" stroke="#131313" stroke-width="4" stroke-linecap="round" stroke-linejoin="round"/>
<path d="M104.41 35.59C104.41 33.9642 103.764 32.4051 102.615 31.2555C101.465 30.1059 99.9058 29.46 98.28 29.46H26.57C25.7655 29.46 24.9688 29.6187 24.2257 29.9268C23.4825 30.235 22.8074 30.6867 22.239 31.2561C21.6705 31.8254 21.22 32.5013 20.913 33.2449C20.606 33.9886 20.4487 34.7855 20.45 35.59V109.74C20.4487 110.545 20.606 111.341 20.913 112.085C21.22 112.829 21.6705 113.505 22.239 114.074C22.8074 114.643 23.4825 115.095 24.2257 115.403C24.9688 115.711 25.7655 115.87 26.57 115.87H30.26C30.26 115.67 30.26 115.48 30.26 115.29C30.26 113.211 30.6695 111.153 31.465 109.232C32.2605 107.312 33.4266 105.566 34.8965 104.097C36.3665 102.627 38.1115 101.461 40.0321 100.665C41.9527 99.8695 44.0112 99.46 46.09 99.46C48.1688 99.46 50.2273 99.8695 52.1479 100.665C54.0685 101.461 55.8136 102.627 57.2835 104.097C58.7535 105.566 59.9195 107.312 60.715 109.232C61.5105 111.153 61.92 113.211 61.92 115.29C61.92 115.48 61.92 115.67 61.92 115.87H104.47L104.41 35.59Z" stroke="#131313" stroke-width="4" stroke-linecap="round" stroke-linejoin="round"/>
<path d="M148.66 89.46C148.661 88.9063 148.553 88.3578 148.342 87.8458C148.131 87.3339 147.822 86.8686 147.43 86.4766C147.039 86.0846 146.575 85.7736 146.063 85.5614C145.552 85.3492 145.004 85.24 144.45 85.24H104.45V115.87H110.77C110.77 115.67 110.77 115.48 110.77 115.29C110.717 113.178 111.087 111.077 111.858 109.111C112.63 107.145 113.787 105.352 115.262 103.84C116.736 102.328 118.499 101.126 120.445 100.305C122.392 99.4849 124.483 99.0622 126.595 99.0622C128.707 99.0622 130.798 99.4849 132.745 100.305C134.691 101.126 136.454 102.328 137.928 103.84C139.403 105.352 140.56 107.145 141.332 109.111C142.103 111.077 142.473 113.178 142.42 115.29C142.42 115.48 142.42 115.67 142.42 115.87H148.74L148.66 89.46Z" stroke="#131313" stroke-width="4" stroke-linecap="round" stroke-linejoin="round"/>
<path d="M45.92 127.54C51.6638 127.54 56.32 122.884 56.32 117.14C56.32 111.396 51.6638 106.74 45.92 106.74C40.1762 106.74 35.52 111.396 35.52 117.14C35.52 122.884 40.1762 127.54 45.92 127.54Z" stroke="#131313" stroke-width="4" stroke-linecap="round" stroke-linejoin="round"/>
<path d="M126.54 127.54C132.284 127.54 136.94 122.884 136.94 117.14C136.94 111.396 132.284 106.74 126.54 106.74C120.796 106.74 116.14 111.396 116.14 117.14C116.14 122.884 120.796 127.54 126.54 127.54Z" stroke="#131313" stroke-width="4" stroke-linecap="round" stroke-linejoin="round"/>
<path d="M62.43 86.29C74.7515 86.29 84.74 76.3015 84.74 63.98C84.74 51.6585 74.7515 41.67 62.43 41.67C50.1085 41.67 40.12 51.6585 40.12 63.98C40.12 76.3015 50.1085 86.29 62.43 86.29Z" stroke="#131313" stroke-width="4" stroke-linecap="round" stroke-linejoin="round"/>
<path d="M104.41 104.56H57.83" stroke="#131313" stroke-width="4" stroke-linecap="round" stroke-linejoin="round"/>
<path d="M34.42 104.56H20.45" stroke="#131313" stroke-width="4" stroke-linecap="round" stroke-linejoin="round"/>
<path d="M51.86 63.98L59.99 75.47L75.16 54.6" stroke="#131313" stroke-width="4" stroke-linecap="round" stroke-linejoin="round"/>
<path d="M14.91 36.09H2.94" stroke="#131313" stroke-width="4" stroke-linecap="round" stroke-linejoin="round"/>
<path d="M14.91 54.6H8.92999" stroke="#131313" stroke-width="4" stroke-linecap="round" stroke-linejoin="round"/>
<path d="M13.56 80.21H4.37" stroke="#131313" stroke-width="4" stroke-linecap="round" stroke-linejoin="round"/>
</svg>
