<svg width="157" height="157" viewBox="0 0 157 157" fill="none" xmlns="http://www.w3.org/2000/svg">
<path d="M154.159 35H3.00879V123.51H154.159V35Z" stroke="#131313" stroke-width="4" stroke-linecap="round" stroke-linejoin="round"/>
<path d="M51.4687 73.8599H50.9087C49.8907 75.2822 48.5481 76.4413 46.9924 77.241C45.4368 78.0406 43.7128 78.4578 41.9637 78.4578C40.2145 78.4578 38.4906 78.0406 36.9349 77.241C35.3793 76.4413 34.0367 75.2822 33.0187 73.8599H32.4687C29.2056 73.8599 26.076 75.1554 23.7677 77.4618C21.4595 79.7683 20.1613 82.8968 20.1587 86.1599V93.6099H63.7787V86.1599C63.776 82.8968 62.4779 79.7683 60.1696 77.4618C57.8614 75.1554 54.7318 73.8599 51.4687 73.8599V73.8599Z" stroke="#131313" stroke-width="4" stroke-linecap="round" stroke-linejoin="round"/>
<path d="M41.9688 48.9399C39.7932 48.9399 37.6664 49.5851 35.8575 50.7938C34.0485 52.0025 32.6386 53.7204 31.8061 55.7304C30.9735 57.7404 30.7557 59.9521 31.1801 62.0859C31.6046 64.2197 32.6522 66.1797 34.1906 67.7181C35.729 69.2565 37.689 70.3041 39.8228 70.7286C41.9566 71.153 44.1683 70.9352 46.1783 70.1026C48.1883 69.2701 49.9062 67.8602 51.1149 66.0512C52.3236 64.2423 52.9688 62.1155 52.9688 59.9399C52.9688 57.0226 51.8098 54.2247 49.7469 52.1618C47.684 50.0989 44.8861 48.9399 41.9688 48.9399V48.9399Z" stroke="#131313" stroke-width="4" stroke-linecap="round" stroke-linejoin="round"/>
<path d="M72.9685 42.0596H10.9585V100.49H72.9685V42.0596Z" stroke="#131313" stroke-width="4" stroke-linecap="round" stroke-linejoin="round"/>
<path d="M90.5586 47.0498H136.499" stroke="#131313" stroke-width="4" stroke-linecap="round" stroke-linejoin="round"/>
<path d="M90.5586 56.2397H134.169" stroke="#131313" stroke-width="4" stroke-linecap="round" stroke-linejoin="round"/>
<path d="M90.5586 66.4497H121.899" stroke="#131313" stroke-width="4" stroke-linecap="round" stroke-linejoin="round"/>
<path d="M90.5586 76.1499H139.699" stroke="#131313" stroke-width="4" stroke-linecap="round" stroke-linejoin="round"/>
<path d="M90.5586 103.3H115.869" stroke="#131313" stroke-width="4" stroke-linecap="round" stroke-linejoin="round"/>
<path d="M90.5586 111.73H121.899" stroke="#131313" stroke-width="4" stroke-linecap="round" stroke-linejoin="round"/>
</svg>
