<svg width="157" height="157" viewBox="0 0 157 157" fill="none" xmlns="http://www.w3.org/2000/svg">
<path d="M36.9604 40.02H6.86035V154H101.17V130.57V40.02H36.9604Z" stroke="#131313" stroke-width="4" stroke-linecap="round" stroke-linejoin="round"/>
<path d="M85.9201 3H55.8301V16.59H131.28V116.98H150.14V93.55V3H85.9201Z" stroke="#131313" stroke-width="4" stroke-linecap="round" stroke-linejoin="round"/>
<path d="M36.96 16.5898V40.0198H101.17V116.98V130.57H131.28V116.98V16.5898H36.96Z" stroke="#131313" stroke-width="4" stroke-linecap="round" stroke-linejoin="round"/>
<path d="M101.17 40.0198L36.96 16.5898V40.0198H101.17Z" stroke="#131313" stroke-width="4" stroke-linecap="round" stroke-linejoin="round"/>
<path d="M131.28 16.59L55.8301 3V16.59H131.28Z" stroke="#131313" stroke-width="4" stroke-linecap="round" stroke-linejoin="round"/>
<path d="M107.09 115.27H120.74" stroke="#131313" stroke-width="4" stroke-linecap="round" stroke-linejoin="round"/>
<path d="M107.09 106.04H120.74" stroke="#131313" stroke-width="4" stroke-linecap="round" stroke-linejoin="round"/>
<path d="M107.09 96.21H120.74" stroke="#131313" stroke-width="4" stroke-linecap="round" stroke-linejoin="round"/>
<path d="M120.74 28.3101H85.7197" stroke="#131313" stroke-width="4" stroke-linecap="round" stroke-linejoin="round"/>
<path d="M120.74 36.1099H107.09" stroke="#131313" stroke-width="4" stroke-linecap="round" stroke-linejoin="round"/>
<path d="M107.09 48.75H120.74V85.47H107.09" stroke="#131313" stroke-width="4" stroke-linecap="round" stroke-linejoin="round"/>
<path d="M29.1201 48.75V60.19" stroke="#131313" stroke-width="4" stroke-linecap="round" stroke-linejoin="round"/>
<path d="M90.1396 48.75V60.19" stroke="#131313" stroke-width="4" stroke-linecap="round" stroke-linejoin="round"/>
<path d="M29.1201 54.4702H90.1401" stroke="#131313" stroke-width="4" stroke-linecap="round" stroke-linejoin="round"/>
<path d="M12.6201 140H22.3001" stroke="#131313" stroke-width="4" stroke-linecap="round" stroke-linejoin="round"/>
<path d="M12.6201 68.0698H22.3001" stroke="#131313" stroke-width="4" stroke-linecap="round" stroke-linejoin="round"/>
<path d="M17.46 140V68.0698" stroke="#131313" stroke-width="4" stroke-linecap="round" stroke-linejoin="round"/>
<path d="M62.0001 128.56C49.3901 128.36 50.0001 140 50.0001 140H29.1201V68.0698H90.1201V140H63.0601V134.78" stroke="#131313" stroke-width="4" stroke-linecap="round" stroke-linejoin="round"/>
<path d="M59.6299 68.0698V118.13H77.4599" stroke="#131313" stroke-width="4" stroke-linecap="round" stroke-linejoin="round"/>
<path d="M74.6299 89.9702H90.1399" stroke="#131313" stroke-width="4" stroke-linecap="round" stroke-linejoin="round"/>
<path d="M58.8301 102.58H43.6201" stroke="#131313" stroke-width="4" stroke-linecap="round" stroke-linejoin="round"/>
<path d="M44.7197 68.6299V88.0399" stroke="#131313" stroke-width="4" stroke-linecap="round" stroke-linejoin="round"/>
</svg>
