<svg width="157" height="157" viewBox="0 0 157 157" fill="none" xmlns="http://www.w3.org/2000/svg">
<path d="M116.62 9.23996L71.79 12.32L90.24 20.32L121.3 95.7C121.864 97.0621 121.865 98.5922 121.302 99.9549C120.74 101.318 119.66 102.402 118.3 102.97L61.47 126.37L124.47 121.99C125.942 121.885 127.313 121.201 128.282 120.088C129.25 118.974 129.739 117.523 129.64 116.05L124 34.69L122.59 14.41C122.539 13.6778 122.344 12.9629 122.017 12.3064C121.689 11.6498 121.234 11.0645 120.68 10.584C120.125 10.1036 119.481 9.73754 118.784 9.50688C118.087 9.27622 117.352 9.18551 116.62 9.23996V9.23996Z" stroke="#131313" stroke-width="4" stroke-linecap="round" stroke-linejoin="round"/>
<path d="M149.69 41.3099L124 34.6899L129.67 116.05C129.769 117.522 129.28 118.974 128.312 120.088C127.343 121.201 125.972 121.885 124.5 121.99L61.5 126.37L49.69 131.24C49.2191 131.43 48.7245 131.554 48.22 131.61C48.6738 131.891 49.1654 132.107 49.68 132.25L121.56 150.75C122.268 150.933 123.005 150.975 123.729 150.873C124.453 150.772 125.15 150.528 125.78 150.156C126.41 149.785 126.96 149.293 127.399 148.708C127.838 148.124 128.158 147.458 128.34 146.75L153.74 48.0899C153.923 47.3787 153.963 46.6384 153.857 45.9117C153.752 45.185 153.504 44.4863 153.128 43.8559C152.751 43.2256 152.254 42.676 151.664 42.2391C151.074 41.8021 150.403 41.4863 149.69 41.3099V41.3099Z" stroke="#131313" stroke-width="4" stroke-linecap="round" stroke-linejoin="round"/>
<path d="M60.33 14.6598L64.33 24.4998C64.8981 25.8601 65.9823 26.9398 67.345 27.5021C68.7078 28.0644 70.2379 28.0636 71.6 27.4998L90.05 19.8998L56.79 6.06982L60.33 14.6598Z" stroke="#131313" stroke-width="4" stroke-linecap="round" stroke-linejoin="round"/>
<path d="M56.76 6.08008L6.58 26.7501C5.21968 27.3182 4.14005 28.4024 3.57771 29.7652C3.01538 31.1279 3.0162 32.658 3.58 34.0201L42.39 128.22C42.8257 129.28 43.5806 130.178 44.55 130.79C45.3038 131.263 46.1586 131.551 47.0449 131.631C47.9311 131.711 48.8238 131.58 49.65 131.25L61.46 126.38L118.26 103C119.62 102.432 120.7 101.348 121.262 99.985C121.825 98.6223 121.824 97.0922 121.26 95.7301L90.22 20.3001L90.07 19.9401L56.76 6.08008Z" stroke="#131313" stroke-width="4" stroke-linecap="round" stroke-linejoin="round"/>
<path d="M43.81 79.0701L37 62.4701L43.41 59.8301L44.1 61.4901L40 63.1801L42.28 68.7101L45.46 67.4001L46.1 69.0001L42.92 70.3101L46.12 78.0801L43.81 79.0701Z" fill="#131313"/>
<path d="M51.82 75.7699L45 59.1699L47.32 58.1699L53.48 73.1099L57.72 71.3599L58.41 73.0199L51.82 75.7699Z" fill="#131313"/>
<path d="M61.92 71.5999L59.51 65.7399L51.51 56.4799L53.66 55.5899L59.51 62.5899L58.7 53.5399L60.88 52.6499L61.74 64.8599L64.16 70.7199L61.92 71.5999Z" fill="#131313"/>
<path d="M69.24 68.5801L62.39 52.0001L68.83 49.3501L69.54 51.0701L65.42 52.7701L67.68 58.2601L71 56.8701L71.68 58.5101L68.34 59.8801L70.87 66.0001L75 64.2501L75.68 65.9101L69.24 68.5801Z" fill="#131313"/>
<path d="M77.58 65.1401L70.73 48.5401L74.07 47.1701C74.9929 46.753 75.9879 46.5186 77 46.4801C77.7974 46.4518 78.5772 46.7189 79.19 47.2301C79.8997 47.8655 80.4423 48.6656 80.77 49.5601C81.0183 50.1497 81.193 50.7677 81.29 51.4001C81.3714 51.935 81.3338 52.4813 81.18 53.0001C81.0198 53.4993 80.7216 53.943 80.32 54.2801L86.11 61.6301L83.87 62.5501L78.49 55.6601L76.68 56.4001L79.9 64.1901L77.58 65.1401ZM76 54.7401L76.88 54.3801C77.4344 54.1771 77.9439 53.868 78.38 53.4701C78.5469 53.3146 78.6814 53.1276 78.7758 52.92C78.8702 52.7123 78.9226 52.488 78.93 52.2601C78.9312 51.6454 78.7981 51.0379 78.54 50.4801C78.292 49.7169 77.8001 49.0563 77.14 48.6001C76.7498 48.4663 76.3356 48.4177 75.9251 48.4574C75.5146 48.497 75.1173 48.6241 74.76 48.8301L73.76 49.2501L76 54.7401Z" fill="#131313"/>
<path d="M83.9779 34.1137L25.4491 58.2495L38.735 90.4676L97.2638 66.3318L83.9779 34.1137Z" stroke="#131313" stroke-width="4" stroke-linecap="round" stroke-linejoin="round"/>
</svg>
