<svg width="157" height="157" viewBox="0 0 157 157" fill="none" xmlns="http://www.w3.org/2000/svg">
<path d="M154.45 45.7798H2.54004V146.63H154.45V45.7798Z" stroke="#131313" stroke-width="4" stroke-linecap="round" stroke-linejoin="round"/>
<path d="M24 45.78L74.15 11.71C75.4337 10.8394 76.949 10.374 78.5 10.374C80.051 10.374 81.5663 10.8394 82.85 11.71L133 45.78" stroke="#131313" stroke-width="4" stroke-linecap="round" stroke-linejoin="round"/>
<path d="M78.5 18.4501C80.7312 18.4501 82.54 16.6413 82.54 14.4101C82.54 12.1789 80.7312 10.3701 78.5 10.3701C76.2687 10.3701 74.46 12.1789 74.46 14.4101C74.46 16.6413 76.2687 18.4501 78.5 18.4501Z" stroke="#131313" stroke-width="4" stroke-linecap="round" stroke-linejoin="round"/>
<path d="M20.4299 71.4999C25.2845 71.4999 29.2199 67.5645 29.2199 62.7099C29.2199 57.8553 25.2845 53.9199 20.4299 53.9199C15.5753 53.9199 11.6399 57.8553 11.6399 62.7099C11.6399 67.5645 15.5753 71.4999 20.4299 71.4999Z" stroke="#131313" stroke-width="4" stroke-linecap="round" stroke-linejoin="round"/>
<path d="M2.54004 123.9C2.54004 123.9 16.9 110.37 56.54 110.37C96.18 110.37 116.54 133.61 116.54 133.61" stroke="#131313" stroke-width="4" stroke-linecap="round" stroke-linejoin="round"/>
<path d="M59.54 110.42C59.54 110.42 82.59 89.8198 115 89.8198C128.406 89.8283 141.725 91.9822 154.45 96.1998" stroke="#131313" stroke-width="4" stroke-linecap="round" stroke-linejoin="round"/>
<path d="M78.5 98.4301C78.5 98.4301 50.41 79.3001 2.54004 92.0001" stroke="#131313" stroke-width="4" stroke-linecap="round" stroke-linejoin="round"/>
</svg>
