<svg width="48" height="48" viewBox="0 0 48 48" fill="none" xmlns="http://www.w3.org/2000/svg">
<path fill-rule="evenodd" clip-rule="evenodd" d="M24 48C37.2548 48 48 37.2548 48 24C48 10.7452 37.2548 0 24 0C10.7452 0 0 10.7452 0 24C0 37.2548 10.7452 48 24 48ZM35.2971 14.6956C34.847 14.2502 34.2365 14 33.6 14H14.4C13.068 14 12 15.0569 12 16.375V30.625C12 31.9312 13.068 33 14.4 33H33.6C34.2365 33 34.847 32.7498 35.2971 32.3044C35.7471 31.859 36 31.2549 36 30.625V16.375C36 15.7451 35.7471 15.141 35.2971 14.6956ZM33.6 16.375L24 22.3125L14.4 16.375H33.6ZM33.6 19.1894V30.625H14.4V19.1894L24 25.115L33.6 19.1894Z" fill="#51C0FF"/>
</svg>
