<svg width="157" height="157" viewBox="0 0 157 157" fill="none" xmlns="http://www.w3.org/2000/svg">
<path d="M41.42 152.8L3.81 127.14V18.9902L41.42 44.6502V152.8Z" stroke="#131313" stroke-width="4" stroke-linecap="round" stroke-linejoin="round"/>
<path d="M41.42 152.8L79.03 127.14V18.9902L41.42 44.6502V152.8Z" stroke="#131313" stroke-width="4" stroke-linecap="round" stroke-linejoin="round"/>
<path d="M116.64 152.8L79.03 127.14V18.9902L116.64 44.6502V152.8Z" stroke="#131313" stroke-width="4" stroke-linecap="round" stroke-linejoin="round"/>
<path d="M116.64 152.8L154.25 127.14V18.9902L116.64 44.6502V152.8Z" stroke="#131313" stroke-width="4" stroke-linecap="round" stroke-linejoin="round"/>
<path d="M53.87 131.72L69.49 121.07V98.6099L53.87 109.26V131.72Z" stroke="#131313" stroke-width="4" stroke-linecap="round" stroke-linejoin="round"/>
<path d="M27.44 77.4401L11.81 66.7801V44.3101L27.44 54.9701V77.4401Z" stroke="#131313" stroke-width="4" stroke-linecap="round" stroke-linejoin="round"/>
<path d="M102.83 103.31L87.2 92.6499V70.1899L102.83 80.8499V103.31Z" stroke="#131313" stroke-width="4" stroke-linecap="round" stroke-linejoin="round"/>
<path d="M102.83 70.1898L87.2 59.5298V37.0698L102.83 47.7298V70.1898Z" stroke="#131313" stroke-width="4" stroke-linecap="round" stroke-linejoin="round"/>
<path d="M127.81 137.92L143.43 127.26V104.8L127.81 115.45V137.92Z" stroke="#131313" stroke-width="4" stroke-linecap="round" stroke-linejoin="round"/>
<path d="M10.19 123.01L29.06 135.89" stroke="#131313" stroke-width="4" stroke-linecap="round" stroke-linejoin="round"/>
<path d="M10.19 112.93L29.06 125.8" stroke="#131313" stroke-width="4" stroke-linecap="round" stroke-linejoin="round"/>
<path d="M10.19 102.84L29.06 115.71" stroke="#131313" stroke-width="4" stroke-linecap="round" stroke-linejoin="round"/>
<path d="M10.19 92.75L29.06 105.62" stroke="#131313" stroke-width="4" stroke-linecap="round" stroke-linejoin="round"/>
<path d="M10.19 82.6602L29.06 95.5302" stroke="#131313" stroke-width="4" stroke-linecap="round" stroke-linejoin="round"/>
<path d="M85.58 121.36L104.45 134.23" stroke="#131313" stroke-width="4" stroke-linecap="round" stroke-linejoin="round"/>
<path d="M85.58 111.27L104.45 124.14" stroke="#131313" stroke-width="4" stroke-linecap="round" stroke-linejoin="round"/>
<path d="M85.58 101.18L104.45 114.05" stroke="#131313" stroke-width="4" stroke-linecap="round" stroke-linejoin="round"/>
<path d="M145.06 96.3999L126.18 109.27" stroke="#131313" stroke-width="4" stroke-linecap="round" stroke-linejoin="round"/>
<path d="M145.06 86.3101L126.18 99.1901" stroke="#131313" stroke-width="4" stroke-linecap="round" stroke-linejoin="round"/>
<path d="M145.06 76.2202L126.18 89.1002" stroke="#131313" stroke-width="4" stroke-linecap="round" stroke-linejoin="round"/>
<path d="M67.41 67.7598L48.54 80.6298" stroke="#131313" stroke-width="4" stroke-linecap="round" stroke-linejoin="round"/>
<path d="M63 60.8701L48.54 70.7301" stroke="#131313" stroke-width="4" stroke-linecap="round" stroke-linejoin="round"/>
<path d="M72.03 44.3101L48.54 60.3401" stroke="#131313" stroke-width="4" stroke-linecap="round" stroke-linejoin="round"/>
<path d="M147.14 39.3501L123.64 55.3801" stroke="#131313" stroke-width="4" stroke-linecap="round" stroke-linejoin="round"/>
<path d="M140.09 52.3301L123.87 63.3901" stroke="#131313" stroke-width="4" stroke-linecap="round" stroke-linejoin="round"/>
</svg>
