<svg width="157" height="157" viewBox="0 0 157 157" fill="none" xmlns="http://www.w3.org/2000/svg">
<path d="M137.57 2.70996H23.3501V153.86H137.57V2.70996Z" stroke="#131313" stroke-width="4" stroke-linecap="round" stroke-linejoin="round"/>
<path d="M126.16 105.52V14.1299L34.7702 14.1299V105.52H126.16Z" stroke="#131313" stroke-width="4" stroke-linecap="round" stroke-linejoin="round"/>
<path d="M34.77 112.84H75.79" stroke="#131313" stroke-width="4" stroke-linecap="round" stroke-linejoin="round"/>
<path d="M34.77 120.16H64.72" stroke="#131313" stroke-width="4" stroke-linecap="round" stroke-linejoin="round"/>
<path d="M77.7301 77.61H89.2001C89.0801 77.38 88.9601 77.15 88.8201 76.93C86.0226 76.8381 83.3055 75.9714 80.9714 74.4266C78.6373 72.8817 76.7779 70.7192 75.6001 68.18C74.7386 68.0603 73.8699 68.0002 73.0001 68H60.1801C55.2665 68 50.5538 69.9506 47.0774 73.4232C43.6011 76.8958 41.6454 81.6063 41.6401 86.52V100H59.1901V96.15C59.1901 91.2329 61.1435 86.5172 64.6204 83.0402C68.0973 79.5633 72.813 77.61 77.7301 77.61V77.61Z" stroke="#131313" stroke-width="4" stroke-linecap="round" stroke-linejoin="round"/>
<path d="M100.91 77.6099H77.7299C72.8128 77.6099 68.0971 79.5632 64.6202 83.0401C61.1433 86.517 59.1899 91.2328 59.1899 96.1499V99.9999H119.45V96.1499C119.45 91.2328 117.497 86.517 114.02 83.0401C110.543 79.5632 105.827 77.6099 100.91 77.6099Z" stroke="#131313" stroke-width="4" stroke-linecap="round" stroke-linejoin="round"/>
<path d="M78.55 51.1798C77.7577 48.6134 76.163 46.3688 74.0002 44.7761C71.8375 43.1834 69.2208 42.3266 66.5349 42.3316C63.8489 42.3366 61.2355 43.2032 59.0787 44.804C56.9219 46.4047 55.3356 48.6552 54.5529 51.2246C53.7703 53.794 53.8326 56.5467 54.7307 59.078C55.6288 61.6094 57.3154 63.7858 59.5424 65.2873C61.7694 66.7888 64.4195 67.5363 67.1029 67.4197C69.7863 67.3032 72.3615 66.3288 74.45 64.6398C74.2736 63.7067 74.1832 62.7594 74.18 61.8098C74.1763 57.8286 75.7472 54.0074 78.55 51.1798V51.1798Z" stroke="#131313" stroke-width="4" stroke-linecap="round" stroke-linejoin="round"/>
<path d="M89.3202 46.6699C85.3064 46.6752 81.4586 48.272 78.6204 51.1101C75.7823 53.9483 74.1855 57.7961 74.1802 61.8099C74.1834 62.7595 74.2738 63.7068 74.4502 64.6399C75.1036 68.0111 76.88 71.0615 79.4897 73.2935C82.0994 75.5254 85.3884 76.8073 88.8202 76.9299H89.3202C93.3356 76.9299 97.1865 75.3348 100.026 72.4955C102.865 69.6562 104.46 65.8053 104.46 61.7899C104.46 57.7745 102.865 53.9236 100.026 51.0843C97.1865 48.245 93.3356 46.6499 89.3202 46.6499V46.6699Z" stroke="#131313" stroke-width="4" stroke-linecap="round" stroke-linejoin="round"/>
</svg>
