<svg width="157" height="157" viewBox="0 0 157 157" fill="none" xmlns="http://www.w3.org/2000/svg">
<path d="M146.8 9.30999H144.94C143.163 9.30999 141.459 10.0159 140.202 11.2724C138.946 12.5289 138.24 14.233 138.24 16.01V50.18C138.241 50.6369 138.288 51.0925 138.38 51.54C137.62 51.74 138.24 14.54 138.24 14.54H133.24L87.09 4.29999C80.4712 2.82777 73.5619 3.39251 67.27 5.91999L19.58 25.05C13.12 27.61 18.73 42.84 28.25 39.05L70 26.57C63 29.67 64.21 41.89 73.54 41.89H91C91 41.89 104.52 51.54 122.05 51.54H138.34C138.653 53.0486 139.476 54.4034 140.671 55.3761C141.866 56.3487 143.359 56.8799 144.9 56.88H146.76C148.537 56.88 150.241 56.1741 151.498 54.9176C152.754 53.6611 153.46 51.9569 153.46 50.18V16C153.457 14.2317 152.756 12.5361 151.508 11.2829C150.261 10.0297 148.568 9.32055 146.8 9.30999Z" fill="#FCFCFC" stroke="#131313" stroke-width="4" stroke-miterlimit="10"/>
<path d="M123.11 119.59L83.26 131.47C89.92 128.47 88.79 116.84 79.88 116.84H63.14C63.14 116.84 50.23 107.62 33.49 107.62H18.07V108.92C18.07 107.223 17.3957 105.595 16.1955 104.395C14.9953 103.194 13.3674 102.52 11.67 102.52H9.9C8.20343 102.523 6.5771 103.198 5.37744 104.397C4.17778 105.597 3.50265 107.223 3.5 108.92V141.55C3.4934 142.395 3.65407 143.232 3.97275 144.015C4.29142 144.797 4.76179 145.508 5.35675 146.108C5.9517 146.707 6.65946 147.183 7.43922 147.508C8.21898 147.833 9.05532 148 9.9 148H11.67C12.5108 148.001 13.3437 147.837 14.1207 147.516C14.8978 147.194 15.6039 146.723 16.1984 146.128C16.793 145.534 17.2643 144.828 17.5855 144.051C17.9067 143.274 18.0713 142.441 18.07 141.6V142.98H22.82L66.92 152.78C73.2409 154.188 79.8398 153.651 85.85 151.24L131.39 132.97C137.56 130.47 132.2 115.93 123.11 119.59Z" fill="#FCFCFC" stroke="#131313" stroke-width="4" stroke-miterlimit="10"/>
<path d="M78.33 108.05C94.9096 108.05 108.35 94.4842 108.35 77.75C108.35 61.0158 94.9096 47.45 78.33 47.45C61.7504 47.45 48.31 61.0158 48.31 77.75C48.31 94.4842 61.7504 108.05 78.33 108.05Z" fill="#FCFCFC" stroke="#131313" stroke-width="4" stroke-miterlimit="10"/>
<path d="M3.5 108.92L3.5 141.55C3.5 145.085 6.36538 147.95 9.9 147.95H11.67C15.2046 147.95 18.07 145.085 18.07 141.55V108.92C18.07 105.385 15.2046 102.52 11.67 102.52H9.9C6.36538 102.52 3.5 105.385 3.5 108.92Z" stroke="#131313" stroke-width="4" stroke-miterlimit="10"/>
<path d="M18.07 142.93H22.82L66.92 152.73C73.2409 154.138 79.8398 153.601 85.85 151.19L131.39 132.92C137.56 130.47 132.2 115.92 123.11 119.59L81 132.14H63C58.29 131.57 56.21 133.07 57.16 136.92" stroke="#131313" stroke-width="4" stroke-miterlimit="10"/>
<path d="M79.88 132.14C90.08 132.14 90.08 116.84 79.88 116.84H63.14C63.14 116.84 50.23 107.62 33.49 107.62H18.07" stroke="#131313" stroke-width="4" stroke-miterlimit="10"/>
<path d="M153.5 50.18V16.01C153.5 12.3097 150.5 9.31 146.8 9.31H144.94C141.24 9.31 138.24 12.3097 138.24 16.01V50.18C138.24 53.8803 141.24 56.88 144.94 56.88H146.8C150.5 56.88 153.5 53.8803 153.5 50.18Z" stroke="#131313" stroke-width="4" stroke-miterlimit="10"/>
<path d="M138.24 14.57H133.24L87.09 4.29999C80.4712 2.82777 73.5619 3.39251 67.27 5.91999L19.58 25.05C13.12 27.61 18.73 42.84 28.25 39.05L72.35 25.91H91.21C96.15 26.5 98.32 24.91 97.33 20.91" stroke="#131313" stroke-width="4" stroke-miterlimit="10"/>
<path d="M73.52 25.87C62.84 25.87 62.84 41.87 73.52 41.87H91C91 41.87 104.52 51.52 122.05 51.52H138.2" stroke="#131313" stroke-width="4" stroke-miterlimit="10"/>
<path d="M62.9253 61.9183C62.9253 59.9925 63.5354 58.4048 64.7555 57.1553C65.9904 55.9057 67.5707 55.281 69.4965 55.281C71.4516 55.281 73.0319 55.9131 74.2374 57.1773C75.4575 58.4269 76.0676 60.0513 76.0676 62.0506V63.6162C76.0676 65.5566 75.4502 67.1443 74.2153 68.3791C72.9952 69.5993 71.4369 70.2094 69.5406 70.2094C67.6295 70.2094 66.0492 69.5993 64.7996 68.3791C63.5501 67.1443 62.9253 65.5052 62.9253 63.4618V61.9183ZM65.9683 63.6162C65.9683 64.7628 66.2918 65.711 66.9386 66.4607C67.5854 67.1957 68.4527 67.5633 69.5406 67.5633C70.5843 67.5633 71.4222 67.2031 72.0544 66.4828C72.7012 65.7624 73.0246 64.7775 73.0246 63.528V61.9183C73.0246 60.7716 72.7085 59.8234 72.0764 59.0737C71.4443 58.324 70.5843 57.9491 69.4965 57.9491C68.4086 57.9491 67.5486 58.324 66.9165 59.0737C66.2844 59.8234 65.9683 60.801 65.9683 62.0065V63.6162ZM78.5593 79.9778C78.5593 78.0521 79.1694 76.4718 80.3896 75.2369C81.6244 73.9874 83.2047 73.3626 85.1305 73.3626C87.0562 73.3626 88.6365 73.98 89.8714 75.2149C91.1062 76.4497 91.7237 78.0888 91.7237 80.1322V81.6978C91.7237 83.6236 91.1062 85.2112 89.8714 86.4608C88.6512 87.6956 87.0856 88.313 85.1746 88.313C83.2635 88.313 81.6832 87.703 80.4337 86.4828C79.1841 85.248 78.5593 83.6089 78.5593 81.5655V79.9778ZM81.6023 81.6978C81.6023 82.8591 81.9258 83.8147 82.5726 84.5644C83.2194 85.2994 84.0867 85.6669 85.1746 85.6669C86.233 85.6669 87.0783 85.3068 87.7104 84.5865C88.3425 83.8514 88.6586 82.8591 88.6586 81.6096V79.9778C88.6586 78.8165 88.3352 77.8683 87.6884 77.1333C87.0562 76.3983 86.2036 76.0308 85.1305 76.0308C84.0867 76.0308 83.2341 76.3983 82.5726 77.1333C81.9258 77.8536 81.6023 78.8312 81.6023 80.066V81.6978ZM70.4667 85.4244L68.1514 83.969L83.8295 58.8752L86.1448 60.3306L70.4667 85.4244Z" fill="#131313"/>
<path d="M78.33 108.05C94.9096 108.05 108.35 94.4842 108.35 77.75C108.35 61.0158 94.9096 47.45 78.33 47.45C61.7504 47.45 48.31 61.0158 48.31 77.75C48.31 94.4842 61.7504 108.05 78.33 108.05Z" stroke="#131313" stroke-width="4" stroke-miterlimit="10"/>
</svg>
