<svg width="150" height="150" viewBox="0 0 150 150" fill="none" xmlns="http://www.w3.org/2000/svg">
<path d="M69.2124 84.12C67.3621 84.12 66.0261 83.52 65.2044 82.32C64.3142 80.8634 63.8813 79.1394 63.9689 77.4V75.12C63.9689 72.996 64.3658 71.358 65.1708 70.212C65.9758 69.066 67.3174 68.49 69.2124 68.49C71.1075 68.49 72.4491 69.042 73.254 70.14C74.059 71.238 74.4559 72.84 74.4559 74.94V77.484C74.4559 79.56 74.0497 81.184 73.2373 82.356C72.4249 83.528 71.0832 84.116 69.2124 84.12ZM69.2124 81.216C69.4494 81.2362 69.6875 81.1999 69.9098 81.1097C70.1321 81.0194 70.333 80.8775 70.4981 80.694C70.7944 80.2948 70.9873 79.8188 71.0572 79.314C71.1589 78.7202 71.2094 78.1177 71.2081 77.514V74.97C71.2273 74.1184 71.1081 73.2697 70.8559 72.462C70.6267 71.766 70.0733 71.418 69.1789 71.418C68.2845 71.418 67.7646 71.772 67.541 72.474C67.3229 73.2945 67.2304 74.1476 67.2671 75V77.55C67.2642 78.1538 67.3147 78.7565 67.418 79.35C67.4879 79.8494 67.6809 80.3196 67.977 80.712C68.1355 80.8886 68.3285 81.0254 68.5421 81.1126C68.7557 81.1997 68.9846 81.235 69.2124 81.216ZM65.8584 95.784L80.9516 74.376C81.1483 74.0987 81.4242 73.8981 81.7371 73.8049C82.05 73.7118 82.3828 73.7311 82.6845 73.86C82.8954 73.9517 83.0839 74.0942 83.2355 74.2765C83.387 74.4587 83.4975 74.6759 83.5586 74.9112C83.6196 75.1466 83.6295 75.3938 83.5874 75.6339C83.5454 75.874 83.4526 76.1005 83.3162 76.296L68.223 97.716C68.0269 97.9941 67.751 98.1953 67.4378 98.2885C67.1247 98.3818 66.7917 98.3619 66.4901 98.232C66.2787 98.1389 66.0902 97.9947 65.9392 97.8107C65.7881 97.6267 65.6786 97.4078 65.6191 97.1711C65.5597 96.9343 65.5518 96.686 65.5962 96.4454C65.6406 96.2049 65.7361 95.9785 65.8752 95.784H65.8584ZM80.0404 87.984C81.8907 87.984 83.2211 88.584 84.0317 89.784C84.8423 90.984 85.2503 92.634 85.2503 94.71V96.972C85.2503 99.072 84.8553 100.702 84.0652 101.862C83.2752 103.022 81.9336 103.602 80.0404 103.602C78.1286 103.602 76.7758 103.046 75.982 101.934C75.1882 100.822 74.7932 99.222 74.7969 97.134V94.626C74.7969 92.526 75.2031 90.896 76.0155 89.736C76.8485 88.56 78.1901 87.984 80.0572 87.984H80.0404ZM80.0404 90.888C79.8015 90.8692 79.5617 90.9055 79.3371 90.9945C79.1124 91.0835 78.9081 91.2231 78.7379 91.404C78.4305 91.7959 78.2362 92.2754 78.1789 92.784C78.083 93.3784 78.0362 93.9807 78.0391 94.584V97.164C78.0199 98.0156 78.1391 98.8643 78.3913 99.672C78.6261 100.368 79.1795 100.716 80.0683 100.716C80.9572 100.716 81.4826 100.362 81.7062 99.654C81.9459 98.8373 82.0591 97.984 82.0416 97.128V94.584C82.0442 93.9802 81.9936 93.3776 81.8907 92.784C81.8185 92.2853 81.6258 91.8157 81.3317 91.422C81.1705 91.2356 80.9722 91.0907 80.7514 90.9982C80.5307 90.9058 80.2934 90.8681 80.0572 90.888H80.0404Z" fill="#131313"/>
<path d="M105.766 65.508V88.122V89.826C105.498 94.626 102.412 99.33 96.5646 102.966C84.2106 110.622 64.1423 110.58 51.6988 102.882C45.1472 98.82 42.028 93.438 42.3578 88.14L42.1118 65.508" stroke="#131313" stroke-width="4" stroke-linejoin="round"/>
<path d="M142.839 65.508H6.3969L37.4721 41.652H105.017L142.839 65.508Z" stroke="#131313" stroke-width="4" stroke-linejoin="round"/>
<path d="M16.3975 91.2V65.508H13.6025V91.248C12.7192 91.6153 11.9844 92.3045 11.5268 93.1947C11.0691 94.085 10.9178 95.1196 11.0994 96.1175C11.2809 97.1155 11.7836 98.0131 12.5196 98.6532C13.2556 99.2933 14.178 99.6352 15.1252 99.6189C16.0723 99.6026 16.984 99.2293 17.7005 98.5642C18.4171 97.8991 18.8928 96.9848 19.0445 95.9811C19.1962 94.9775 19.0142 93.9485 18.5302 93.0744C18.0463 92.2003 17.2913 91.5368 16.3975 91.2V91.2Z" stroke="#131313" stroke-width="2" stroke-miterlimit="10" stroke-linejoin="round"/>
</svg>
