<svg width="150" height="150" viewBox="0 0 150 150" fill="none" xmlns="http://www.w3.org/2000/svg">
<path d="M129.263 121.339C121.526 130.61 111.592 137.768 100.379 142.151C89.1671 146.533 77.0385 147.999 65.1148 146.412C53.1911 144.825 41.8572 140.237 32.1608 133.071C22.4645 125.906 14.7187 116.395 9.6396 105.417C4.56048 94.4396 2.31194 82.3499 3.10187 70.2656C3.89179 58.1813 7.69468 46.4925 14.159 36.2799C20.6232 26.0674 29.5403 17.6606 40.0857 11.8367C50.6311 6.01291 62.4645 2.96006 74.4919 2.96039" stroke="#131313" stroke-width="4" stroke-miterlimit="10" stroke-linecap="round"/>
<path d="M74 2.96039C75.3252 2.96039 76.6447 2.96039 77.9474 2.96039" stroke="#131313" stroke-width="4" stroke-miterlimit="10" stroke-linecap="round"/>
<path d="M85.8421 3.9472C97.9192 5.97326 109.287 10.9059 118.917 18.2984C128.547 25.6908 136.134 35.3096 140.992 46.2836C145.849 57.2577 147.823 69.2402 146.735 81.1462C145.648 93.0522 141.532 104.505 134.762 114.469" stroke="#131313" stroke-width="4" stroke-miterlimit="10" stroke-linecap="round" stroke-dasharray="14.05 14.05"/>
<path d="M132.224 118.416C131.271 119.426 130.284 120.409 129.263 121.376" stroke="#131313" stroke-width="4" stroke-miterlimit="10" stroke-linecap="round"/>
<path d="M74 23.6832V74.9967" stroke="#131313" stroke-width="4" stroke-miterlimit="10" stroke-linecap="round"/>
<path d="M107.553 98.6799L74 74.9967" stroke="#131313" stroke-width="4" stroke-miterlimit="10" stroke-linecap="round"/>
</svg>
