<svg width="18" height="8" viewBox="0 0 18 8" fill="none" xmlns="http://www.w3.org/2000/svg">
<path d="M8.98588 0.00270224C8.686 0.00218078 8.39537 0.0951329 8.16446 0.265423L0.463656 5.97676C0.20155 6.17064 0.0367216 6.44926 0.005431 6.7513C-0.0258596 7.05335 0.0789508 7.35408 0.296805 7.58735C0.514659 7.82062 0.827711 7.96732 1.16709 7.99517C1.50648 8.02301 1.84439 7.92974 2.10649 7.73585L8.98588 2.61849L15.8653 7.55309C15.9966 7.64797 16.1476 7.71883 16.3098 7.76158C16.4719 7.80434 16.642 7.81815 16.8101 7.80223C16.9783 7.78631 17.1413 7.74097 17.2897 7.6688C17.4381 7.59664 17.569 7.49909 17.675 7.38175C17.7925 7.2643 17.8815 7.12651 17.9364 6.97702C17.9914 6.82752 18.011 6.66955 17.9941 6.51298C17.9773 6.35642 17.9243 6.20465 17.8384 6.06717C17.7526 5.92969 17.6358 5.80947 17.4953 5.71404L9.79447 0.196888C9.55692 0.0535152 9.27223 -0.0148554 8.98588 0.00270224V0.00270224Z" fill="#131313"/>
</svg>
