<svg width="157" height="157" viewBox="0 0 157 157" fill="none" xmlns="http://www.w3.org/2000/svg">
<path d="M133.03 56.6899H3V132.42H133.03V56.6899Z" stroke="#1D1D1B" stroke-width="4" stroke-linecap="round" stroke-linejoin="round"/>
<path d="M38.45 87.19H38C37.1164 88.4008 35.9593 89.3858 34.623 90.0649C33.2867 90.744 31.8089 91.098 30.31 91.098C28.811 91.098 27.3333 90.744 25.997 90.0649C24.6607 89.3858 23.5036 88.4008 22.62 87.19H22.1C20.7145 87.186 19.3419 87.455 18.0604 87.9816C16.7789 88.5081 15.6137 89.2819 14.6312 90.2588C13.6488 91.2357 12.8684 92.3965 12.3345 93.6749C11.8007 94.9534 11.5239 96.3245 11.52 97.71V104.09H49V97.71C48.992 94.9171 47.877 92.2414 45.8994 90.2694C43.9217 88.2974 41.2428 87.19 38.45 87.19V87.19Z" stroke="#1D1D1B" stroke-width="4" stroke-linecap="round" stroke-linejoin="round"/>
<path d="M30.28 65.8702C29.0351 65.8662 27.8015 66.1075 26.6499 66.5803C25.4982 67.0531 24.4509 67.7481 23.5678 68.6256C22.6847 69.5031 21.9831 70.5459 21.5031 71.6946C21.023 72.8433 20.7739 74.0752 20.77 75.3202C20.7678 77.3141 21.4057 79.256 22.59 80.8602C23.471 82.0747 24.6272 83.0634 25.9638 83.7451C27.3004 84.4268 28.7795 84.7822 30.28 84.7822C31.7804 84.7822 33.2596 84.4268 34.5962 83.7451C35.9328 83.0634 37.089 82.0747 37.97 80.8602C39.1543 79.256 39.7922 77.3141 39.79 75.3202C39.7861 74.0752 39.537 72.8433 39.0569 71.6946C38.5769 70.5459 37.8753 69.5031 36.9922 68.6256C36.1091 67.7481 35.0618 67.0531 33.9101 66.5803C32.7584 66.1075 31.5249 65.8662 30.28 65.8702Z" stroke="#1D1D1B" stroke-width="4" stroke-linecap="round" stroke-linejoin="round"/>
<path d="M125.5 105.77H76.52V124.68H125.5V105.77Z" stroke="#1D1D1B" stroke-width="4" stroke-linecap="round" stroke-linejoin="round"/>
<path d="M81.25 67H120.77" stroke="#1D1D1B" stroke-width="4" stroke-linecap="round" stroke-linejoin="round"/>
<path d="M81.25 72.79H118.77" stroke="#1D1D1B" stroke-width="4" stroke-linecap="round" stroke-linejoin="round"/>
<path d="M11.52 115.23H38.49" stroke="#1D1D1B" stroke-width="4" stroke-linecap="round" stroke-linejoin="round"/>
<path d="M11.71 51.4399L13.34 39.6499L142.16 57.3999L133.03 123.59" stroke="#1D1D1B" stroke-width="4" stroke-linecap="round" stroke-linejoin="round"/>
<path d="M142.16 60.8501L154 64.7001L133.38 128.25" stroke="#1D1D1B" stroke-width="4" stroke-linecap="round" stroke-linejoin="round"/>
<path d="M26.76 35.5198L30.31 24.5698L125.5 55.4498" stroke="#1D1D1B" stroke-width="4" stroke-linecap="round" stroke-linejoin="round"/>
</svg>
