<svg width="157" height="157" viewBox="0 0 157 157" fill="none" xmlns="http://www.w3.org/2000/svg">
<path d="M129.49 142.15H29.0599C28.2808 142.149 27.5091 142.301 26.789 142.599C26.069 142.896 25.4147 143.333 24.8638 143.884C24.3129 144.435 23.8761 145.089 23.5786 145.809C23.2811 146.529 23.1286 147.301 23.1299 148.08C23.1299 148.858 23.2833 149.629 23.5815 150.348C23.8796 151.067 24.3166 151.72 24.8674 152.27C25.4181 152.819 26.0719 153.255 26.7913 153.552C27.5107 153.849 28.2816 154.001 29.0599 154H129.49C132.253 154 134.904 152.902 136.858 150.948C138.812 148.994 139.91 146.344 139.91 143.58V131.73C139.91 133.098 139.64 134.453 139.117 135.718C138.593 136.982 137.826 138.13 136.858 139.098C135.89 140.066 134.742 140.833 133.477 141.357C132.213 141.88 130.858 142.15 129.49 142.15V142.15Z" stroke="#131313" stroke-width="4" stroke-linecap="round" stroke-linejoin="round"/>
<path d="M129.49 3H23.1299V148.08C23.1299 148.858 23.2833 149.629 23.5815 150.348C23.8796 151.067 24.3166 151.72 24.8673 152.27C25.4181 152.819 26.0719 153.255 26.7913 153.552C27.5107 153.849 28.2816 154.001 29.0599 154H129.49C132.253 154 134.904 152.902 136.858 150.948C138.812 148.994 139.91 146.344 139.91 143.58V13.42C139.91 10.6564 138.812 8.00608 136.858 6.05195C134.904 4.09782 132.253 3 129.49 3Z" stroke="#131313" stroke-width="4" stroke-linecap="round" stroke-linejoin="round"/>
<path d="M23.1301 138.58C16.2001 138.58 16.2001 129.95 23.1301 129.95H32.1301" stroke="#131313" stroke-width="4" stroke-linecap="round" stroke-linejoin="round"/>
<path d="M36.0298 133.89C38.2058 133.89 39.9698 132.126 39.9698 129.95C39.9698 127.774 38.2058 126.01 36.0298 126.01C33.8538 126.01 32.0898 127.774 32.0898 129.95C32.0898 132.126 33.8538 133.89 36.0298 133.89Z" stroke="#131313" stroke-width="4" stroke-linecap="round" stroke-linejoin="round"/>
<path d="M23.1301 122.26C16.2001 122.26 16.2001 113.63 23.1301 113.63H32.1301" stroke="#131313" stroke-width="4" stroke-linecap="round" stroke-linejoin="round"/>
<path d="M36.0298 117.57C38.2058 117.57 39.9698 115.806 39.9698 113.63C39.9698 111.454 38.2058 109.69 36.0298 109.69C33.8538 109.69 32.0898 111.454 32.0898 113.63C32.0898 115.806 33.8538 117.57 36.0298 117.57Z" stroke="#131313" stroke-width="4" stroke-linecap="round" stroke-linejoin="round"/>
<path d="M22.2903 105.94C15.3603 105.94 15.3603 97.3101 22.2903 97.3101H31.2903" stroke="#131313" stroke-width="4" stroke-linecap="round" stroke-linejoin="round"/>
<path d="M35.19 101.25C37.366 101.25 39.13 99.4861 39.13 97.3101C39.13 95.1341 37.366 93.3701 35.19 93.3701C33.014 93.3701 31.25 95.1341 31.25 97.3101C31.25 99.4861 33.014 101.25 35.19 101.25Z" stroke="#131313" stroke-width="4" stroke-linecap="round" stroke-linejoin="round"/>
<path d="M23.1301 89.6202C16.2001 89.6202 16.2001 80.9902 23.1301 80.9902H32.1301" stroke="#131313" stroke-width="4" stroke-linecap="round" stroke-linejoin="round"/>
<path d="M36.0298 84.9298C38.2058 84.9298 39.9698 83.1658 39.9698 80.9898C39.9698 78.8138 38.2058 77.0498 36.0298 77.0498C33.8538 77.0498 32.0898 78.8138 32.0898 80.9898C32.0898 83.1658 33.8538 84.9298 36.0298 84.9298Z" stroke="#131313" stroke-width="4" stroke-linecap="round" stroke-linejoin="round"/>
<path d="M23.1301 73.2999C16.2001 73.2999 16.2001 64.6699 23.1301 64.6699H32.1301" stroke="#131313" stroke-width="4" stroke-linecap="round" stroke-linejoin="round"/>
<path d="M36.0298 68.61C38.2058 68.61 39.9698 66.846 39.9698 64.67C39.9698 62.494 38.2058 60.73 36.0298 60.73C33.8538 60.73 32.0898 62.494 32.0898 64.67C32.0898 66.846 33.8538 68.61 36.0298 68.61Z" stroke="#131313" stroke-width="4" stroke-linecap="round" stroke-linejoin="round"/>
<path d="M22.2903 57.0001C15.3603 57.0001 15.3603 48.3701 22.2903 48.3701H31.2903" stroke="#131313" stroke-width="4" stroke-linecap="round" stroke-linejoin="round"/>
<path d="M35.19 52.2902C37.366 52.2902 39.13 50.5262 39.13 48.3502C39.13 46.1742 37.366 44.4102 35.19 44.4102C33.014 44.4102 31.25 46.1742 31.25 48.3502C31.25 50.5262 33.014 52.2902 35.19 52.2902Z" stroke="#131313" stroke-width="4" stroke-linecap="round" stroke-linejoin="round"/>
<path d="M22.2903 40.6598C15.3603 40.6598 15.3603 32.0298 22.2903 32.0298H31.2903" stroke="#131313" stroke-width="4" stroke-linecap="round" stroke-linejoin="round"/>
<path d="M35.19 35.9698C37.366 35.9698 39.13 34.2058 39.13 32.0298C39.13 29.8538 37.366 28.0898 35.19 28.0898C33.014 28.0898 31.25 29.8538 31.25 32.0298C31.25 34.2058 33.014 35.9698 35.19 35.9698Z" stroke="#131313" stroke-width="4" stroke-linecap="round" stroke-linejoin="round"/>
<path d="M22.2903 24.34C15.3603 24.34 15.3603 15.71 22.2903 15.71H31.2903" stroke="#131313" stroke-width="4" stroke-linecap="round" stroke-linejoin="round"/>
<path d="M35.19 19.65C37.366 19.65 39.13 17.886 39.13 15.71C39.13 13.534 37.366 11.77 35.19 11.77C33.014 11.77 31.25 13.534 31.25 15.71C31.25 17.886 33.014 19.65 35.19 19.65Z" stroke="#131313" stroke-width="4" stroke-linecap="round" stroke-linejoin="round"/>
<path d="M116.93 51.02H56.6699V75.77H116.93V51.02Z" stroke="#131313" stroke-width="4" stroke-linecap="round" stroke-linejoin="round"/>
<path d="M70.1602 67.3398H103.43" stroke="#131313" stroke-width="4" stroke-linecap="round" stroke-linejoin="round"/>
<path d="M63.9404 59.4502H109.65" stroke="#131313" stroke-width="4" stroke-linecap="round" stroke-linejoin="round"/>
</svg>
