<svg width="39" height="39" viewBox="0 0 39 39" fill="none" xmlns="http://www.w3.org/2000/svg">
<circle cx="19.5" cy="19.5" r="18.5" stroke="#131313" stroke-width="2"/>
<path d="M18.9859 24.997C18.686 24.9975 18.3954 24.893 18.1645 24.7014L10.4637 18.2761C10.2016 18.058 10.0367 17.7446 10.0054 17.4048C9.97414 17.065 10.079 16.7267 10.2968 16.4642C10.5147 16.2018 10.8277 16.0368 11.1671 16.0054C11.5065 15.9741 11.8444 16.079 12.1065 16.2972L18.9859 22.0542L25.8653 16.5028C25.9966 16.396 26.1476 16.3163 26.3098 16.2682C26.4719 16.2201 26.642 16.2046 26.8101 16.2225C26.9783 16.2404 27.1413 16.2914 27.2897 16.3726C27.4381 16.4538 27.569 16.5635 27.675 16.6955C27.7925 16.8277 27.8815 16.9827 27.9364 17.1509C27.9914 17.319 28.011 17.4968 27.9941 17.6729C27.9773 17.849 27.9243 18.0198 27.8384 18.1744C27.7526 18.3291 27.6358 18.4644 27.4953 18.5717L19.7945 24.7785C19.5569 24.9398 19.2722 25.0167 18.9859 24.997Z" fill="black"/>
</svg>
