<svg width="157" height="157" viewBox="0 0 157 157" fill="none" xmlns="http://www.w3.org/2000/svg">
<path d="M149.5 44.5L78.5 3.5L15 40.5V113L84 154.5L149.5 117.5V44.5Z" fill="#FCFCFC"/>
<path d="M63.72 51.56L60.58 49.61" stroke="#131313" stroke-width="4" stroke-linecap="round" stroke-linejoin="round"/>
<path d="M75 45.68L87.09 46.88L117.09 63.8L108.397 79.25L77.1872 59.93C76.5609 59.5381 75.9864 59.2735 75.2578 59.1514C74.5292 59.0292 73.7837 59.0519 73.0638 59.2182C72.344 59.3844 71.6641 59.691 71.0628 60.1203C70.4616 60.5496 69.9509 61.0932 69.56 61.72L63.98 70.72C63.2466 71.8692 62.0882 72.6815 60.7579 72.9794C59.4276 73.2773 58.0334 73.0367 56.88 72.31C56.3054 71.9535 55.8067 71.4871 55.4127 70.9376C55.0186 70.388 54.7369 69.7661 54.5836 69.1075C54.4303 68.4488 54.4085 67.7664 54.5194 67.0993C54.6304 66.4323 54.8718 65.7936 55.23 65.22L65.36 48.91C65.7114 48.3423 66.1729 47.8508 66.7174 47.4643C67.2618 47.0779 67.8781 46.8044 68.53 46.66L72.17 45.85C73.0978 45.6397 74.0537 45.5823 75 45.68Z" stroke="#131313" stroke-width="4" stroke-linecap="round" stroke-linejoin="round"/>
<path d="M53.73 93.02L25.57 75.28" stroke="#131313" stroke-width="4" stroke-linecap="round" stroke-linejoin="round"/>
<path d="M88.86 103.23L98.26 108.95C98.8388 109.316 99.3385 109.795 99.7295 110.357C100.121 110.919 100.395 111.554 100.537 112.224C100.678 112.894 100.684 113.586 100.554 114.259C100.424 114.931 100.161 115.571 99.78 116.14C98.9915 117.245 97.8069 118.004 96.473 118.257C95.1391 118.511 93.7588 118.239 92.62 117.5L88.43 114.86" stroke="#131313" stroke-width="4" stroke-linecap="round" stroke-linejoin="round"/>
<path d="M88.88 103.19L98.28 108.91C99.4285 109.634 100.817 109.872 102.141 109.572C103.465 109.272 104.616 108.458 105.34 107.31C105.699 106.74 105.943 106.105 106.057 105.441C106.17 104.777 106.152 104.098 106.002 103.441C105.853 102.784 105.575 102.163 105.185 101.614C104.795 101.065 104.301 100.598 103.73 100.24L94.41 94.58" stroke="#131313" stroke-width="4" stroke-linecap="round" stroke-linejoin="round"/>
<path d="M94.41 94.58L103.73 100.24C104.298 100.6 104.932 100.844 105.595 100.958C106.258 101.072 106.936 101.054 107.592 100.906C108.248 100.757 108.868 100.48 109.417 100.092C109.966 99.7028 110.432 99.2095 110.79 98.64V98.64C111.501 97.505 111.74 96.1364 111.454 94.8278C111.168 93.5192 110.38 92.3747 109.26 91.64H109.18L99.94 86" stroke="#131313" stroke-width="4" stroke-linecap="round" stroke-linejoin="round"/>
<path d="M99.94 86L109.18 91.61L109.26 91.67C110.41 92.3677 111.788 92.5857 113.098 92.277C114.407 91.9684 115.543 91.1579 116.26 90.02C116.625 89.4645 116.873 88.8399 116.986 88.1849C117.1 87.5298 117.078 86.8584 116.921 86.2123C116.765 85.5662 116.477 84.9591 116.076 84.4289C115.675 83.8986 115.169 83.4565 114.59 83.13L77.47 60.13" stroke="#131313" stroke-width="4" stroke-linecap="round" stroke-linejoin="round"/>
<path d="M63.2144 97.1959C64.7358 94.8123 64.0369 91.6467 61.6533 90.1253C59.2698 88.6039 56.1042 89.3028 54.5828 91.6864L46.9965 103.572C45.4751 105.955 46.174 109.121 48.5576 110.642C50.9411 112.163 54.1067 111.465 55.6281 109.081L63.2144 97.1959Z" stroke="#131313" stroke-width="4" stroke-linecap="round" stroke-linejoin="round"/>
<path d="M71.8787 102.717C73.4001 100.333 72.7012 97.1675 70.3177 95.6461C67.9342 94.1247 64.7686 94.8236 63.2472 97.2071L55.6609 109.092C54.1395 111.476 54.8384 114.641 57.2219 116.163C59.6055 117.684 62.771 116.985 64.2924 114.602L71.8787 102.717Z" stroke="#131313" stroke-width="4" stroke-linecap="round" stroke-linejoin="round"/>
<path d="M80.517 108.23C82.0384 105.846 81.3396 102.681 78.956 101.159C76.5725 99.6378 73.4069 100.337 71.8855 102.72L64.2992 114.605C62.7778 116.989 63.4767 120.154 65.8602 121.676C68.2438 123.197 71.4093 122.498 72.9307 120.115L80.517 108.23Z" stroke="#131313" stroke-width="4" stroke-linecap="round" stroke-linejoin="round"/>
<path d="M88.6792 113.596C90.2062 111.22 89.5185 108.057 87.1432 106.53C84.7679 105.003 81.6046 105.691 80.0776 108.066L72.4636 119.91C70.9366 122.285 71.6243 125.449 73.9996 126.976C76.3749 128.502 79.5383 127.815 81.0652 125.44L88.6792 113.596Z" stroke="#131313" stroke-width="3.9944" stroke-linecap="round" stroke-linejoin="round"/>
<path d="M129.003 44.1829L98.6478 26.6996C96.1161 25.2415 92.8817 26.1118 91.4236 28.6435L87.0366 36.2604C85.5784 38.7921 86.4487 42.0266 88.9804 43.4847L119.336 60.9679C121.867 62.4261 125.102 61.5558 126.56 59.0241L130.947 51.4071C132.405 48.8754 131.535 45.641 129.003 44.1829Z" stroke="#131313" stroke-width="4" stroke-linecap="round" stroke-linejoin="round"/>
<path d="M142.76 113.43L78.89 150.3L15.02 113.43V39.67L78.89 2.79999L142.76 39.67V113.43Z" stroke="#131313" stroke-width="4" stroke-linecap="round" stroke-linejoin="round"/>
<path d="M84.7 153.53L78.89 150.3L142.76 113.43L148.57 116.65L84.7 153.53Z" stroke="#131313" stroke-width="4" stroke-linejoin="round"/>
<path d="M142.76 39.67L148.57 42.9V116.65L142.76 113.43V39.67Z" stroke="#131313" stroke-width="4" stroke-linejoin="round"/>
</svg>
