<svg width="157" height="157" viewBox="0 0 157 157" fill="none" xmlns="http://www.w3.org/2000/svg">
<path d="M27.4699 57.6699C21.8263 57.6699 17.2297 52.7299 17.2297 46.6699C17.2297 40.6099 21.8263 35.6699 27.4699 35.6699C33.1134 35.6699 37.72 40.6099 37.72 46.6699C37.72 52.7299 33.1234 57.6699 27.4699 57.6699Z" stroke="#1D1D1B" stroke-width="4" stroke-linecap="round" stroke-linejoin="round"/>
<path d="M121.107 20.3398H27.47C41.0005 20.3398 51.9586 32.1198 51.9586 46.6598C51.9586 61.1998 41.0005 72.9998 27.47 72.9998H121.107C134.608 72.9998 145.576 61.1898 145.576 46.6598C145.576 32.1298 134.608 20.3398 121.107 20.3398Z" stroke="#1D1D1B" stroke-width="4" stroke-linecap="round" stroke-linejoin="round"/>
<path d="M27.47 72.9798C40.9891 72.9798 51.9486 61.196 51.9486 46.6598C51.9486 32.1237 40.9891 20.3398 27.47 20.3398C13.9508 20.3398 2.99133 32.1237 2.99133 46.6598C2.99133 61.196 13.9508 72.9798 27.47 72.9798Z" stroke="#1D1D1B" stroke-width="4" stroke-linecap="round" stroke-linejoin="round"/>
<path d="M27.4699 110.32C21.8263 110.32 17.2297 105.37 17.2297 99.3198C17.2297 93.2698 21.8263 88.3198 27.4699 88.3198C33.1134 88.3198 37.72 93.3198 37.72 99.3198C37.72 105.32 33.1234 110.32 27.4699 110.32Z" stroke="#1D1D1B" stroke-width="4" stroke-linecap="round" stroke-linejoin="round"/>
<path d="M27.47 125.62C40.9891 125.62 51.9486 113.836 51.9486 99.3C51.9486 84.7638 40.9891 72.98 27.47 72.98C13.9508 72.98 2.99133 84.7638 2.99133 99.3C2.99133 113.836 13.9508 125.62 27.47 125.62Z" stroke="#1D1D1B" stroke-width="4" stroke-linecap="round" stroke-linejoin="round"/>
<path d="M119.342 73H61.9194L122.114 73.15C121.193 73.0494 120.268 72.9993 119.342 73V73Z" stroke="#1D1D1B" stroke-width="4" stroke-linecap="round" stroke-linejoin="round"/>
<path d="M49.416 73H27.4799C40.9906 73 51.9586 84.76 51.9586 99.3C51.9586 113.84 40.9906 125.62 27.47 125.62H85.3014C81.2731 88 49.416 73 49.416 73Z" stroke="#1D1D1B" stroke-width="4" stroke-linecap="round" stroke-linejoin="round"/>
<path d="M67.543 73H49.4159H67.6029H67.543Z" stroke="#1D1D1B" stroke-width="4" stroke-linecap="round" stroke-linejoin="round"/>
<path d="M146.024 93.89C140.979 85.22 132.743 77.44 119.442 73.13H119.392L67.6029 73H49.4159C49.4159 73 81.3229 88 85.3112 125.64C85.706 129.292 85.8326 132.969 85.6901 136.64H152.625C152.625 136.64 157.172 113.08 146.024 93.89Z" stroke="#1D1D1B" stroke-width="4" stroke-linecap="round" stroke-linejoin="round"/>
</svg>
