<svg width="150" height="150" viewBox="0 0 150 150" fill="none" xmlns="http://www.w3.org/2000/svg">
<g clip-path="url(#clip0)">
<path d="M138.747 52.0595L109.595 43.0186C104.908 41.5649 99.9294 44.1863 98.4757 48.8737L79.0912 111.379C77.6376 116.066 80.259 121.045 84.9463 122.498L114.099 131.539C118.786 132.993 123.764 130.371 125.218 125.684L144.602 63.1788C146.056 58.4914 143.435 53.5131 138.747 52.0595Z" stroke="#131313" stroke-width="4" stroke-miterlimit="10" stroke-linecap="round"/>
<path d="M102.534 121.776C104.996 121.776 106.992 119.78 106.992 117.318C106.992 114.856 104.996 112.86 102.534 112.86C100.072 112.86 98.076 114.856 98.076 117.318C98.076 119.78 100.072 121.776 102.534 121.776Z" stroke="#131313" stroke-width="4" stroke-miterlimit="10"/>
<path d="M69.7728 7.44635L23.7736 26.1808C20.1829 27.6432 18.4576 31.7395 19.92 35.3302L28.8278 57.2018C30.2902 60.7924 34.3865 62.5177 37.9772 61.0553L83.9764 42.3209C87.5671 40.8585 89.2924 36.7621 87.83 33.1715L78.9222 11.2999C77.4598 7.70924 73.3634 5.98395 69.7728 7.44635Z" stroke="#131313" stroke-width="4" stroke-miterlimit="10"/>
<path d="M79.0981 11.734L20.096 35.7643L22.8887 42.6214L81.8909 18.5911L79.0981 11.734Z" fill="#131313"/>
<path d="M68.9968 36L34 50.2534L36.1455 55.5213L71.1422 41.2678L68.9968 36Z" stroke="#131313" stroke-width="2" stroke-miterlimit="10"/>
<path d="M44.8994 47.1766C45.0797 46.8819 45.2998 46.6133 45.5534 46.3786H44.7554C45.1994 48.1786 43.8074 50.2906 42.6374 51.5806C42.2774 51.9706 43.0454 52.0366 43.2794 51.8686C44.7254 50.8366 46.1294 49.7386 47.4794 48.5686C48.5474 47.6326 49.8074 46.5406 50.1134 45.0886C50.1674 44.8126 49.7474 44.8186 49.5974 44.8486C48.4694 45.0946 47.5574 46.2766 46.8734 47.1406C46.1894 48.0046 45.2113 49.1146 45.3253 50.2306C45.3253 50.3806 45.6014 50.4286 45.7154 50.4106C47.2154 50.1586 48.5774 48.9526 49.7714 48.0826C50.9654 47.2126 52.3393 46.2166 53.1913 44.8786C53.3713 44.5846 52.8854 44.5126 52.7054 44.5666C52.1472 44.7263 51.6346 45.0155 51.2092 45.4106C50.7839 45.8058 50.4577 46.2957 50.2573 46.8406C50.0893 47.3146 50.8574 47.1706 51.0314 46.9906C52.467 45.6679 53.6823 44.1245 54.6313 42.4186H53.7794C53.4227 44.1102 52.9659 45.7792 52.4114 47.4166C52.1534 48.1606 51.8834 48.8926 51.5893 49.6246C51.4333 50.0086 51.2714 50.3926 51.1034 50.7706C50.9834 51.0526 50.8214 51.7126 50.5454 51.8866L51.0794 51.7846C50.7254 51.6946 50.2994 50.9746 50.1134 50.6926C50.0174 50.5486 49.6034 49.9786 49.6274 49.8466C49.6607 49.7151 49.7233 49.5928 49.8106 49.4889C49.8979 49.385 50.0075 49.3021 50.1314 49.2466C50.6229 49.071 51.1288 48.9385 51.6433 48.8506L53.0114 48.4786C54.7859 48.0415 56.5154 47.4389 58.1774 46.6786C58.6934 46.4146 61.1773 45.1306 60.3013 44.3206C59.8453 43.9126 59.1014 44.1346 58.5793 44.2846C57.6674 44.5606 56.7794 44.8846 55.8854 45.2146L56.3534 45.6286L59.6173 43.3126C60.5283 42.7267 61.3593 42.0248 62.0893 41.2246C62.2033 41.0866 62.1913 40.8766 61.9873 40.8346C61.2087 40.6908 60.4055 40.7634 59.6653 41.0446C58.5913 41.3926 57.5294 41.7826 56.4614 42.1546L53.3653 43.2286C52.8553 43.4086 52.3034 43.5466 51.8114 43.7686C51.4994 43.8166 51.4334 43.8586 51.6194 43.8886C51.8054 43.9186 51.8953 43.8886 51.9433 43.6066C52.1639 43.36 52.4284 43.1565 52.7234 43.0066C53.2514 42.7366 52.7773 42.3166 52.3513 42.5386C51.9253 42.7606 50.6113 43.5406 50.8093 44.1766C51.0433 44.9626 52.8793 43.9906 53.2093 43.8646L57.1753 42.4786L59.1493 41.7946C59.8701 41.4366 60.6758 41.2851 61.4774 41.3566L61.3694 40.9666C60.6148 41.7833 59.753 42.4937 58.8073 43.0786L55.8073 45.2326C55.3393 45.5626 55.9693 45.7606 56.2753 45.6466C57.0433 45.3526 57.8233 45.0826 58.6093 44.8366L59.0893 44.6926C59.5574 44.8186 59.6413 44.9806 59.3293 45.1666C59.1199 45.3857 58.8769 45.57 58.6093 45.7126C57.3701 46.4479 56.0356 47.0091 54.6433 47.3806C53.2933 47.8066 51.9253 48.2026 50.5513 48.5806C49.8793 48.7546 48.6133 48.9886 48.7513 49.9426C48.9215 50.5151 49.2213 51.0407 49.6274 51.4786C49.8734 51.8026 50.1733 52.2886 50.6234 52.3366C51.5953 52.4506 51.9253 50.8606 52.2013 50.2006C53.2596 47.6571 54.0831 45.0221 54.6614 42.3286C54.7514 41.9026 53.9353 42.1066 53.8093 42.3286C52.8853 43.9806 51.7045 45.4752 50.3114 46.7566L51.0854 46.9066C51.218 46.4836 51.4509 46.099 51.7644 45.7856C52.0778 45.4722 52.4624 45.2392 52.8854 45.1066L52.3993 44.7886C51.6115 45.9038 50.6127 46.8537 49.4593 47.5846C48.9313 47.9686 48.3973 48.3466 47.8573 48.7066C47.2617 49.2164 46.5702 49.602 45.8234 49.8406L46.2194 50.0206C46.1294 49.1506 47.1133 48.0226 47.6173 47.3866C48.1213 46.7506 48.9314 45.5866 49.7714 45.4246L49.2554 45.1906C48.9434 46.6846 47.4133 47.8366 46.3093 48.7906C45.2053 49.7446 43.9633 50.6806 42.7093 51.5506L43.3574 51.8446C44.6414 50.4286 46.1113 48.1966 45.6253 46.1866C45.5473 45.8506 44.9893 46.0426 44.8333 46.1866C44.5389 46.4656 44.2827 46.7824 44.0714 47.1286C43.8314 47.5246 44.7134 47.5066 44.8994 47.2066V47.1766Z" fill="#131313"/>
<path d="M67.4365 26.9819L26.3883 43.6999L27.2053 45.7059L68.2535 28.9879L67.4365 26.9819Z" fill="#131313"/>
<path d="M36.846 68.892L28.038 70.092L29.118 78.138L29.22 78.9L35.934 129L36.036 129.762L37.11 137.808L45.156 136.728L45.918 136.626L65.562 133.992L73.608 132.918L72.528 124.872L72.426 124.11L65.718 74.022L64.518 65.214L55.71 66.414L36.828 68.94L36.846 68.892ZM70.806 123.552C68.7667 124.012 66.9543 125.175 65.6861 126.837C64.418 128.499 63.7751 130.554 63.87 132.642L46.44 135C45.9826 132.96 44.8215 131.146 43.1604 129.877C41.4994 128.608 39.4444 127.964 37.356 128.058L30.84 79.458C32.8922 79.0016 34.7167 77.8338 35.9906 76.1614C37.2644 74.4889 37.9054 72.4197 37.8 70.32L55.2 67.98C55.6574 70.0199 56.8185 71.8336 58.4795 73.103C60.1406 74.3724 62.1956 75.0163 64.284 74.922L70.806 123.552Z" fill="#131313"/>
<path d="M50.826 110.346C55.7236 110.346 59.694 106.376 59.694 101.478C59.694 96.5804 55.7236 92.61 50.826 92.61C45.9283 92.61 41.958 96.5804 41.958 101.478C41.958 106.376 45.9283 110.346 50.826 110.346Z" fill="#131313"/>
<path d="M52.848 120.21C54.8461 120.21 56.466 118.59 56.466 116.592C56.466 114.594 54.8461 112.974 52.848 112.974C50.8498 112.974 49.23 114.594 49.23 116.592C49.23 118.59 50.8498 120.21 52.848 120.21Z" fill="#131313"/>
<path d="M48.798 89.988C50.7962 89.988 52.416 88.3682 52.416 86.37C52.416 84.3718 50.7962 82.752 48.798 82.752C46.7998 82.752 45.18 84.3718 45.18 86.37C45.18 88.3682 46.7998 89.988 48.798 89.988Z" fill="#131313"/>
<path d="M27.192 75.438L10.908 85.32L3.31198 89.928L7.51198 96.87L7.90798 97.524L34.128 140.724L34.524 141.378L38.724 148.32L45.666 144.12L46.32 143.724L61.734 134.364C61.47 134.364 61.2 134.364 60.936 134.364C60.4279 134.372 59.9255 134.257 59.472 134.028L59.238 134.058L46.2 142.02C44.9623 140.335 43.1714 139.14 41.1409 138.643C39.1104 138.146 36.9697 138.379 35.094 139.302L9.59998 97.356C11.2847 96.1183 12.4802 94.3274 12.9771 92.2969C13.474 90.2664 13.2407 88.1258 12.318 86.25L27.348 77.13C27.9647 77.9758 28.729 78.7034 29.604 79.278C29.5427 78.8402 29.5968 78.394 29.761 77.9836C29.9252 77.5732 30.1937 77.2127 30.54 76.938C30.8693 76.6873 31.2579 76.5261 31.668 76.47C31.728 76.368 31.788 76.26 31.854 76.158C32.238 75.528 32.688 74.958 33.12 74.358C33.336 74.064 33.54 73.758 33.72 73.464V73.422C33.786 73.266 33.864 73.11 33.924 72.954C34.0364 72.6604 34.2093 72.3938 34.4316 72.1716C34.6538 71.9493 34.9204 71.7764 35.214 71.664L34.8 70.8L27.192 75.438Z" fill="#131313"/>
<path d="M34.128 115.2C33.942 113.4 33.936 111.6 33.738 109.8C33.444 107.106 32.736 104.4 32.862 101.646C32.628 101.76 32.394 101.886 32.166 102.024C30.6862 102.924 29.5023 104.237 28.7603 105.802C28.0183 107.367 27.7507 109.115 27.9906 110.83C28.2306 112.545 28.9674 114.152 30.1103 115.454C31.2532 116.755 32.7521 117.693 34.422 118.152C34.332 117.15 34.23 116.172 34.128 115.2Z" fill="#131313"/>
<path d="M28.86 100.158C30.8582 100.158 32.478 98.5382 32.478 96.54C32.478 94.5418 30.8582 92.922 28.86 92.922C26.8619 92.922 25.242 94.5418 25.242 96.54C25.242 98.5382 26.8619 100.158 28.86 100.158Z" fill="#131313"/>
<path d="M64.5342 65.1873L28.0382 70.0764L37.1081 137.782L73.6041 132.893L64.5342 65.1873Z" stroke="#131313" stroke-width="4" stroke-linecap="round" stroke-linejoin="round"/>
<path d="M34.788 70.824L3.31198 89.928L38.748 148.326L61.758 134.358" stroke="#131313" stroke-width="4" stroke-linecap="round" stroke-linejoin="round"/>
</g>
<defs>
<clipPath id="clip0">
<rect width="150" height="150" fill="white"/>
</clipPath>
</defs>
</svg>
