<svg width="157" height="157" viewBox="0 0 157 157" fill="none" xmlns="http://www.w3.org/2000/svg">
<path d="M78.5 130.06L6.66998 154.2V26.9398L78.5 2.7998V130.06Z" stroke="#131313" stroke-width="4" stroke-linecap="round" stroke-linejoin="round"/>
<path d="M78.5 130.06L150.33 154.2V26.9398L78.5 2.7998V130.06Z" stroke="#131313" stroke-width="4" stroke-linecap="round" stroke-linejoin="round"/>
<path d="M86.99 29.3999L135.59 45.7299" stroke="#131313" stroke-width="4" stroke-linecap="round" stroke-linejoin="round"/>
<path d="M86.99 37.5698L135.59 53.8998" stroke="#131313" stroke-width="4" stroke-linecap="round" stroke-linejoin="round"/>
<path d="M86.99 45.73L135.59 62.07" stroke="#131313" stroke-width="4" stroke-linecap="round" stroke-linejoin="round"/>
<path d="M86.99 53.8999L135.59 70.2299" stroke="#131313" stroke-width="4" stroke-linecap="round" stroke-linejoin="round"/>
<path d="M70.21 54.96L21.62 71.29" stroke="#131313" stroke-width="4" stroke-linecap="round" stroke-linejoin="round"/>
<path d="M70.21 63.1299L21.62 79.4599" stroke="#131313" stroke-width="4" stroke-linecap="round" stroke-linejoin="round"/>
<path d="M70.21 71.29L21.62 87.62" stroke="#131313" stroke-width="4" stroke-linecap="round" stroke-linejoin="round"/>
<path d="M70.21 79.46L21.62 95.79" stroke="#131313" stroke-width="4" stroke-linecap="round" stroke-linejoin="round"/>
<path d="M86.99 62.0698L135.59 78.3998" stroke="#131313" stroke-width="4" stroke-linecap="round" stroke-linejoin="round"/>
<path d="M107.7 87.5L135.59 96.88" stroke="#131313" stroke-width="4" stroke-linecap="round" stroke-linejoin="round"/>
<path d="M107.7 94.73L135.59 104.1" stroke="#131313" stroke-width="4" stroke-linecap="round" stroke-linejoin="round"/>
<path d="M107.7 102.48L135.59 111.86" stroke="#131313" stroke-width="4" stroke-linecap="round" stroke-linejoin="round"/>
</svg>
