<svg width="157" height="157" viewBox="0 0 157 157" fill="none" xmlns="http://www.w3.org/2000/svg">
<path d="M26.2704 3C23.9623 2.99869 21.6765 3.45218 19.5436 4.33457C17.4108 5.21696 15.4727 6.51094 13.8401 8.1426C12.2075 9.77426 10.9124 11.7116 10.0288 13.8439C9.14522 15.9763 8.69043 18.2618 8.69043 20.57V136.43C8.69043 138.738 9.14522 141.024 10.0288 143.156C10.9124 145.288 12.2075 147.226 13.8401 148.857C15.4727 150.489 17.4108 151.783 19.5436 152.665C21.6765 153.548 23.9623 154.001 26.2704 154H149.69V13.09H26.2704V3Z" stroke="#131313" stroke-width="4" stroke-linecap="round" stroke-linejoin="round"/>
<path d="M8.69043 20.57C8.69043 18.2618 9.14522 15.9763 10.0288 13.8439C10.9124 11.7116 12.2075 9.77426 13.8401 8.1426C15.4727 6.51094 17.4108 5.21696 19.5436 4.33457C21.6765 3.45218 23.9623 2.99869 26.2704 3V118.87C23.9631 118.869 21.6781 119.322 19.5459 120.204C17.4137 121.085 15.4761 122.378 13.8436 124.009C12.2112 125.64 10.9159 127.576 10.0317 129.707C9.1475 131.838 8.69174 134.123 8.69043 136.43V20.57Z" stroke="#131313" stroke-width="4" stroke-linecap="round" stroke-linejoin="round"/>
<path d="M129.53 82.0202V40.4902H50.1504V130.71H129.53V104.17" stroke="#131313" stroke-width="4" stroke-linecap="round" stroke-linejoin="round"/>
<path d="M86.2598 40.4902V72.5702" stroke="#131313" stroke-width="4" stroke-linecap="round" stroke-linejoin="round"/>
<path d="M72.2197 72.5698H108.9" stroke="#131313" stroke-width="4" stroke-linecap="round" stroke-linejoin="round"/>
<path d="M94.5703 130.71V101.78" stroke="#131313" stroke-width="4" stroke-linecap="round" stroke-linejoin="round"/>
<path d="M50.1504 101.78H74.6504" stroke="#131313" stroke-width="4" stroke-linecap="round" stroke-linejoin="round"/>
</svg>
