<svg width="157" height="157" viewBox="0 0 157 157" fill="none" xmlns="http://www.w3.org/2000/svg">
<path d="M136.53 118.14H3.11035V151.6H136.53V118.14Z" stroke="#131313" stroke-width="4" stroke-linecap="round" stroke-linejoin="round"/>
<path d="M71.9111 31.4466L152.652 89.3369C153.342 89.8315 153.807 90.5797 153.945 91.4171C154.083 92.2545 153.883 93.1124 153.388 93.8022L137.615 115.802C137.12 116.492 136.372 116.957 135.535 117.095C134.697 117.233 133.839 117.032 133.15 116.538L27.3206 40.6599L28.8356 38.5469C33.6062 31.8931 40.8246 27.4071 48.9028 26.0755C56.9811 24.744 65.2574 26.676 71.9111 31.4466V31.4466Z" stroke="#131313" stroke-width="4" stroke-linecap="round" stroke-linejoin="round"/>
<path d="M23.7803 118.14L40.5903 131.54L77.7003 118.14" stroke="#131313" stroke-width="4" stroke-linecap="round" stroke-linejoin="round"/>
<path d="M130.09 126.46V142.8" stroke="#131313" stroke-width="4" stroke-linecap="round" stroke-linejoin="round"/>
<path d="M124.64 126.46V142.8" stroke="#131313" stroke-width="4" stroke-linecap="round" stroke-linejoin="round"/>
<path d="M118.85 126.46V142.8" stroke="#131313" stroke-width="4" stroke-linecap="round" stroke-linejoin="round"/>
</svg>
