<svg width="795" height="552" viewBox="0 0 795 552" fill="none" xmlns="http://www.w3.org/2000/svg">
<g clip-path="url(#clip0)">
<path d="M439.05 265.391L301.415 157.339" stroke="#131313" stroke-linecap="round" stroke-linejoin="round"/>
<path d="M383.458 243.461L283.067 164.686" stroke="#131313" stroke-linecap="round" stroke-linejoin="round"/>
<path d="M383.747 322.105L216.867 191.187" stroke="#131313" stroke-linecap="round" stroke-linejoin="round"/>
<path d="M311.389 307.847L181.023 205.538" stroke="#131313" stroke-linecap="round" stroke-linejoin="round"/>
<path d="M256.425 389.056L76.1015 247.542" stroke="#131313" stroke-linecap="round" stroke-linejoin="round"/>
<path d="M225.548 401.429L45.2174 259.907" stroke="#131313" stroke-linecap="round" stroke-linejoin="round"/>
<path d="M484.984 230.808L361.002 133.489" stroke="#131313" stroke-linecap="round" stroke-linejoin="round"/>
<path d="M559.275 160.028L469.903 89.8921" stroke="#131313" stroke-linecap="round" stroke-linejoin="round"/>
<path d="M601.324 168.256L490.803 81.5204" stroke="#131313" stroke-linecap="round" stroke-linejoin="round"/>
<path d="M437.319 227.388L332.299 144.974" stroke="#131313" stroke-linecap="round" stroke-linejoin="round"/>
<path d="M102.304 295.207L30.2511 324.062" stroke="#131313" stroke-linecap="round" stroke-linejoin="round"/>
<path d="M140.769 310.61L72.2898 338.03" stroke="#131313" stroke-linecap="round" stroke-linejoin="round"/>
<path d="M152.887 323.689L87.4157 349.897" stroke="#131313" stroke-linecap="round" stroke-linejoin="round"/>
<path d="M222.16 402.785L161.524 427.081" stroke="#131313" stroke-linecap="round" stroke-linejoin="round"/>
<path d="M105.003 343.433L108.922 316.027L198.596 386.405L229.467 374.023L225.548 401.429L194.676 413.811L105.003 343.433ZM107.866 323.412C106.918 324.04 105.905 324.566 104.846 324.98C96.3275 328.396 83.6043 326.599 76.4334 320.97C73.0003 318.265 71.4422 315.164 71.7226 312.295L75.6358 284.933L115.945 290.698L112.356 314.617L108.927 315.997L107.866 323.412Z" fill="#FCFCFC" stroke="#131313" stroke-width="2" stroke-linecap="round" stroke-linejoin="round"/>
<path d="M308.229 256.866L311.375 234.869L431.919 292.865L428 320.272L397.129 332.654L320.196 272.283L308.229 256.866ZM400.142 226.164L396.224 253.563C392.568 254.765 390.156 255.606 388.987 256.086C388.175 256.42 387.361 256.769 386.548 257.111L367.854 253.208L380.743 224.893L400.142 226.164Z" fill="#FCFCFC" stroke="#131313" stroke-width="2" stroke-linecap="round" stroke-linejoin="round"/>
<path d="M393.067 220.617L395.872 200.999L485.547 271.369L516.426 258.988L512.507 286.387L481.629 298.768L399.03 233.945L393.067 220.617ZM394.81 208.482C393.971 208.999 393.087 209.44 392.169 209.799C388.757 211.083 385.122 211.669 381.479 211.523L370.945 209.589C368.368 208.716 365.949 207.434 363.779 205.792C360.063 202.879 358.566 199.511 359.163 196.459L363.214 168.132L403.253 173.858L399.017 203.48L395.902 201.003L394.81 208.482Z" fill="#FCFCFC" stroke="#131313" stroke-width="2" stroke-linecap="round" stroke-linejoin="round"/>
<path d="M575.989 235.096L572.069 262.503L541.198 274.885L451.523 204.514L455.441 177.115L575.989 235.096ZM653.96 203.858L650.041 231.257L619.17 243.639L571.83 206.481C564.721 200.883 557.57 197.461 550.379 196.213C543.301 194.961 536.014 195.726 529.351 198.421L507.819 189.737L525.925 161.428C525.925 161.428 552.703 158.325 553.518 158.503C554.333 158.68 593.65 170.74 593.994 171.224C594.337 171.708 634.736 196.925 634.736 196.925L653.96 203.858Z" fill="#FCFCFC" stroke="#131313" stroke-width="2" stroke-linecap="round" stroke-linejoin="round"/>
<path d="M678.363 139.107L669.863 142.396L661.039 143.516L665.433 150.771L669.861 157.848L681.898 170.961L713.283 178.008L745.008 160.778L741.089 188.184C739.958 190.858 737.674 193.432 734.239 195.908C730.388 198.613 726.222 200.837 721.831 202.533C709.32 207.574 696.947 209.36 684.715 207.89C672.482 206.421 661.148 201.585 650.713 193.384L614.309 164.807L607.624 167.478L573.935 159.605L577.525 153.522L579.138 149.935L580.777 138.473L572.921 132.348L576.843 104.927C576.843 104.927 646.978 112.4 648.516 113.185C650.054 113.97 682.282 111.708 682.282 111.708L678.363 139.107Z" fill="#FCFCFC" stroke="#131313" stroke-width="2" stroke-linecap="round" stroke-linejoin="round"/>
<path d="M317.617 309.547L321.576 281.863L303.656 281.202L277.284 254.426L230.254 248.921C230.254 248.921 181.547 262.822 174.113 266.087C166.678 269.353 143.633 270.066 143.633 270.066L139.714 297.472L256.398 389.037L288.452 376.183L292.374 348.761L282.715 341.188L284.092 340.431C296.362 335.512 305.311 329.921 310.938 323.656C315.043 319.137 317.269 314.434 317.617 309.547ZM255.782 304.131C254.811 304.351 240.254 309.66 240.254 309.66L234.996 304.327L222.244 305.137L219.932 291.445C229.56 287.585 238.63 286.024 247.142 286.763C254.636 287.336 261.835 289.928 267.973 294.262L269.749 295.898C269.749 295.898 256.761 303.912 255.797 304.134L255.782 304.131Z" fill="#FCFCFC" stroke="#131313" stroke-width="2" stroke-linecap="round" stroke-linejoin="round"/>
<path d="M112.274 318.659L108.354 346.066" stroke="#131313" stroke-width="2" stroke-linecap="round" stroke-linejoin="round"/>
<path d="M122.048 326.333L118.13 353.732" stroke="#131313" stroke-width="2" stroke-linecap="round" stroke-linejoin="round"/>
<path d="M117.142 322.654L113.224 350.053" stroke="#131313" stroke-width="2" stroke-linecap="round" stroke-linejoin="round"/>
<path d="M126.933 330.162L123.013 357.569" stroke="#131313" stroke-width="2" stroke-linecap="round" stroke-linejoin="round"/>
<path d="M131.823 334L127.905 361.399" stroke="#131313" stroke-width="2" stroke-linecap="round" stroke-linejoin="round"/>
<path d="M136.713 337.791L132.793 365.198" stroke="#131313" stroke-width="2" stroke-linecap="round" stroke-linejoin="round"/>
<path d="M141.599 341.666L137.679 369.072" stroke="#131313" stroke-width="2" stroke-linecap="round" stroke-linejoin="round"/>
<path d="M146.482 345.502L142.563 372.901" stroke="#131313" stroke-width="2" stroke-linecap="round" stroke-linejoin="round"/>
<path d="M151.365 349.339L147.447 376.738" stroke="#131313" stroke-width="2" stroke-linecap="round" stroke-linejoin="round"/>
<path d="M156.256 353.176L152.337 380.575" stroke="#131313" stroke-width="2" stroke-linecap="round" stroke-linejoin="round"/>
<path d="M161.14 357.005L157.221 384.412" stroke="#131313" stroke-width="2" stroke-linecap="round" stroke-linejoin="round"/>
<path d="M166.024 360.842L162.105 388.241" stroke="#131313" stroke-width="2" stroke-linecap="round" stroke-linejoin="round"/>
<path d="M170.914 364.679L166.996 392.078" stroke="#131313" stroke-width="2" stroke-linecap="round" stroke-linejoin="round"/>
<path d="M175.799 368.508L171.879 395.915" stroke="#131313" stroke-width="2" stroke-linecap="round" stroke-linejoin="round"/>
<path d="M180.69 372.346L176.771 399.745" stroke="#131313" stroke-width="2" stroke-linecap="round" stroke-linejoin="round"/>
<path d="M190.415 380.303L186.496 407.709" stroke="#131313" stroke-width="2" stroke-linecap="round" stroke-linejoin="round"/>
<path d="M185.578 376.144L181.66 403.543" stroke="#131313" stroke-width="2" stroke-linecap="round" stroke-linejoin="round"/>
<path d="M195.352 383.818L191.434 411.217" stroke="#131313" stroke-width="2" stroke-linecap="round" stroke-linejoin="round"/>
<path d="M314.362 237.221L311.215 259.225" stroke="#131313" stroke-width="2" stroke-linecap="round" stroke-linejoin="round"/>
<path d="M324.137 244.887L320.218 272.286" stroke="#131313" stroke-width="2" stroke-linecap="round" stroke-linejoin="round"/>
<path d="M319.224 241.207L315.86 264.722" stroke="#131313" stroke-width="2" stroke-linecap="round" stroke-linejoin="round"/>
<path d="M329.02 248.723L325.101 276.122" stroke="#131313" stroke-width="2" stroke-linecap="round" stroke-linejoin="round"/>
<path d="M333.912 252.553L329.992 279.96" stroke="#131313" stroke-width="2" stroke-linecap="round" stroke-linejoin="round"/>
<path d="M338.801 256.352L334.882 283.751" stroke="#131313" stroke-width="2" stroke-linecap="round" stroke-linejoin="round"/>
<path d="M343.679 260.226L339.76 287.625" stroke="#131313" stroke-width="2" stroke-linecap="round" stroke-linejoin="round"/>
<path d="M348.569 264.064L344.651 291.463" stroke="#131313" stroke-width="2" stroke-linecap="round" stroke-linejoin="round"/>
<path d="M353.454 267.892L349.534 295.299" stroke="#131313" stroke-width="2" stroke-linecap="round" stroke-linejoin="round"/>
<path d="M358.337 271.729L354.418 299.128" stroke="#131313" stroke-width="2" stroke-linecap="round" stroke-linejoin="round"/>
<path d="M363.228 275.566L359.309 302.965" stroke="#131313" stroke-width="2" stroke-linecap="round" stroke-linejoin="round"/>
<path d="M368.112 279.395L364.193 306.802" stroke="#131313" stroke-width="2" stroke-linecap="round" stroke-linejoin="round"/>
<path d="M373.003 283.233L369.084 310.632" stroke="#131313" stroke-width="2" stroke-linecap="round" stroke-linejoin="round"/>
<path d="M377.886 287.069L373.968 314.468" stroke="#131313" stroke-width="2" stroke-linecap="round" stroke-linejoin="round"/>
<path d="M382.77 290.906L378.851 318.305" stroke="#131313" stroke-width="2" stroke-linecap="round" stroke-linejoin="round"/>
<path d="M392.503 298.864L388.584 326.263" stroke="#131313" stroke-width="2" stroke-linecap="round" stroke-linejoin="round"/>
<path d="M387.667 294.698L383.747 322.105" stroke="#131313" stroke-width="2" stroke-linecap="round" stroke-linejoin="round"/>
<path d="M397.433 302.371L393.514 329.777" stroke="#131313" stroke-width="2" stroke-linecap="round" stroke-linejoin="round"/>
<path d="M398.987 203.475L396.19 223.033" stroke="#131313" stroke-width="2" stroke-linecap="round" stroke-linejoin="round"/>
<path d="M408.762 211.142L404.842 238.548" stroke="#131313" stroke-width="2" stroke-linecap="round" stroke-linejoin="round"/>
<path d="M403.856 207.462L399.936 234.869" stroke="#131313" stroke-width="2" stroke-linecap="round" stroke-linejoin="round"/>
<path d="M413.645 214.978L409.727 242.377" stroke="#131313" stroke-width="2" stroke-linecap="round" stroke-linejoin="round"/>
<path d="M418.536 218.815L414.617 246.214" stroke="#131313" stroke-width="2" stroke-linecap="round" stroke-linejoin="round"/>
<path d="M423.426 222.607L419.506 250.013" stroke="#131313" stroke-width="2" stroke-linecap="round" stroke-linejoin="round"/>
<path d="M428.304 226.481L424.384 253.887" stroke="#131313" stroke-width="2" stroke-linecap="round" stroke-linejoin="round"/>
<path d="M433.194 230.318L429.276 257.717" stroke="#131313" stroke-width="2" stroke-linecap="round" stroke-linejoin="round"/>
<path d="M438.078 234.155L434.159 261.554" stroke="#131313" stroke-width="2" stroke-linecap="round" stroke-linejoin="round"/>
<path d="M442.97 237.985L439.05 265.391" stroke="#131313" stroke-width="2" stroke-linecap="round" stroke-linejoin="round"/>
<path d="M447.853 241.821L443.934 269.22" stroke="#131313" stroke-width="2" stroke-linecap="round" stroke-linejoin="round"/>
<path d="M452.736 245.657L448.818 273.056" stroke="#131313" stroke-width="2" stroke-linecap="round" stroke-linejoin="round"/>
<path d="M457.627 249.495L453.708 276.894" stroke="#131313" stroke-width="2" stroke-linecap="round" stroke-linejoin="round"/>
<path d="M462.511 253.324L458.592 280.73" stroke="#131313" stroke-width="2" stroke-linecap="round" stroke-linejoin="round"/>
<path d="M467.395 257.16L463.476 284.559" stroke="#131313" stroke-width="2" stroke-linecap="round" stroke-linejoin="round"/>
<path d="M477.128 265.118L473.209 292.517" stroke="#131313" stroke-width="2" stroke-linecap="round" stroke-linejoin="round"/>
<path d="M472.291 260.96L468.372 288.359" stroke="#131313" stroke-width="2" stroke-linecap="round" stroke-linejoin="round"/>
<path d="M482.065 268.634L478.146 296.033" stroke="#131313" stroke-width="2" stroke-linecap="round" stroke-linejoin="round"/>
<path d="M459.578 180.402L455.66 207.801" stroke="#131313" stroke-width="2" stroke-linecap="round" stroke-linejoin="round"/>
<path d="M469.353 188.069L465.434 215.475" stroke="#131313" stroke-width="2" stroke-linecap="round" stroke-linejoin="round"/>
<path d="M464.448 184.389L460.529 211.788" stroke="#131313" stroke-width="2" stroke-linecap="round" stroke-linejoin="round"/>
<path d="M474.237 191.905L470.318 219.304" stroke="#131313" stroke-width="2" stroke-linecap="round" stroke-linejoin="round"/>
<path d="M479.128 195.742L475.209 223.141" stroke="#131313" stroke-width="2" stroke-linecap="round" stroke-linejoin="round"/>
<path d="M484.017 199.534L480.099 226.933" stroke="#131313" stroke-width="2" stroke-linecap="round" stroke-linejoin="round"/>
<path d="M488.903 203.409L484.984 230.808" stroke="#131313" stroke-width="2" stroke-linecap="round" stroke-linejoin="round"/>
<path d="M493.786 207.245L489.867 234.644" stroke="#131313" stroke-width="2" stroke-linecap="round" stroke-linejoin="round"/>
<path d="M498.669 211.082L494.751 238.481" stroke="#131313" stroke-width="2" stroke-linecap="round" stroke-linejoin="round"/>
<path d="M503.561 214.912L499.642 242.318" stroke="#131313" stroke-width="2" stroke-linecap="round" stroke-linejoin="round"/>
<path d="M508.445 218.748L504.526 246.147" stroke="#131313" stroke-width="2" stroke-linecap="round" stroke-linejoin="round"/>
<path d="M513.328 222.584L509.409 249.983" stroke="#131313" stroke-width="2" stroke-linecap="round" stroke-linejoin="round"/>
<path d="M518.22 226.414L514.3 253.821" stroke="#131313" stroke-width="2" stroke-linecap="round" stroke-linejoin="round"/>
<path d="M523.103 230.251L519.184 257.65" stroke="#131313" stroke-width="2" stroke-linecap="round" stroke-linejoin="round"/>
<path d="M527.994 234.088L524.075 261.487" stroke="#131313" stroke-width="2" stroke-linecap="round" stroke-linejoin="round"/>
<path d="M537.72 242.045L533.801 269.444" stroke="#131313" stroke-width="2" stroke-linecap="round" stroke-linejoin="round"/>
<path d="M532.882 237.887L528.964 265.286" stroke="#131313" stroke-width="2" stroke-linecap="round" stroke-linejoin="round"/>
<path d="M542.658 245.554L538.738 272.96" stroke="#131313" stroke-width="2" stroke-linecap="round" stroke-linejoin="round"/>
<path d="M623.319 141.228L619.401 168.627" stroke="#131313" stroke-width="2" stroke-linecap="round" stroke-linejoin="round"/>
<path d="M633.095 148.895L629.176 176.294" stroke="#131313" stroke-width="2" stroke-linecap="round" stroke-linejoin="round"/>
<path d="M628.189 145.216L624.27 172.615" stroke="#131313" stroke-width="2" stroke-linecap="round" stroke-linejoin="round"/>
<path d="M637.978 152.731L634.059 180.13" stroke="#131313" stroke-width="2" stroke-linecap="round" stroke-linejoin="round"/>
<path d="M642.87 156.561L638.95 183.968" stroke="#131313" stroke-width="2" stroke-linecap="round" stroke-linejoin="round"/>
<path d="M588.517 133.502L585.803 152.477" stroke="#131313" stroke-width="2" stroke-linecap="round" stroke-linejoin="round"/>
<path d="M582.867 110.347L579.1 136.683" stroke="#131313" stroke-width="2" stroke-linecap="round" stroke-linejoin="round"/>
<path d="M587.041 112.944L584.887 128.005" stroke="#131313" stroke-width="2" stroke-linecap="round" stroke-linejoin="round"/>
<path d="M591.263 114.304L589.109 129.365" stroke="#131313" stroke-width="2" stroke-linecap="round" stroke-linejoin="round"/>
<path d="M584.607 129.966L581.7 150.287" stroke="#131313" stroke-width="2" stroke-linecap="round" stroke-linejoin="round"/>
<path d="M579.497 107.254L575.666 134.039" stroke="#131313" stroke-width="2" stroke-linecap="round" stroke-linejoin="round"/>
<path d="M593.401 137.331L590.837 155.258" stroke="#131313" stroke-width="2" stroke-linecap="round" stroke-linejoin="round"/>
<path d="M598.284 141.168L595.785 158.646" stroke="#131313" stroke-width="2" stroke-linecap="round" stroke-linejoin="round"/>
<path d="M647.759 160.36L643.84 187.759" stroke="#131313" stroke-width="2" stroke-linecap="round" stroke-linejoin="round"/>
<path d="M652.644 164.235L648.725 191.634" stroke="#131313" stroke-width="2" stroke-linecap="round" stroke-linejoin="round"/>
<path d="M657.527 168.071L653.609 195.47" stroke="#131313" stroke-width="2" stroke-linecap="round" stroke-linejoin="round"/>
<path d="M662.411 171.9L658.492 199.307" stroke="#131313" stroke-width="2" stroke-linecap="round" stroke-linejoin="round"/>
<path d="M667.528 174.159L663.609 201.558" stroke="#131313" stroke-width="2" stroke-linecap="round" stroke-linejoin="round"/>
<path d="M672.636 176.424L668.733 203.719" stroke="#131313" stroke-width="2" stroke-linecap="round" stroke-linejoin="round"/>
<path d="M677.812 178.218L673.893 205.617" stroke="#131313" stroke-width="2" stroke-linecap="round" stroke-linejoin="round"/>
<path d="M683.025 179.796L679.141 206.956" stroke="#131313" stroke-width="2" stroke-linecap="round" stroke-linejoin="round"/>
<path d="M688.368 180.423L684.447 207.837" stroke="#131313" stroke-width="2" stroke-linecap="round" stroke-linejoin="round"/>
<path d="M693.739 180.901L689.827 208.255" stroke="#131313" stroke-width="2" stroke-linecap="round" stroke-linejoin="round"/>
<path d="M691.029 180.834L687.117 208.188" stroke="#131313" stroke-width="2" stroke-linecap="round" stroke-linejoin="round"/>
<path d="M704.652 180.56L700.733 207.959" stroke="#131313" stroke-width="2" stroke-linecap="round" stroke-linejoin="round"/>
<path d="M699.177 180.862L695.246 208.343" stroke="#131313" stroke-width="2" stroke-linecap="round" stroke-linejoin="round"/>
<path d="M710.147 180.171L706.289 207.143" stroke="#131313" stroke-width="2" stroke-linecap="round" stroke-linejoin="round"/>
<path d="M716.061 178.405L712.205 205.363" stroke="#131313" stroke-width="2" stroke-linecap="round" stroke-linejoin="round"/>
<path d="M721.742 176.66L717.823 204.066" stroke="#131313" stroke-width="2" stroke-linecap="round" stroke-linejoin="round"/>
<path d="M727.415 175.028L723.624 201.537" stroke="#131313" stroke-width="2" stroke-linecap="round" stroke-linejoin="round"/>
<path d="M733.34 171.585L729.493 198.482" stroke="#131313" stroke-width="2" stroke-linecap="round" stroke-linejoin="round"/>
<path d="M739.336 167.64L735.457 194.762" stroke="#131313" stroke-width="2" stroke-linecap="round" stroke-linejoin="round"/>
<path d="M742.151 165.263L738.272 192.385" stroke="#131313" stroke-width="2" stroke-linecap="round" stroke-linejoin="round"/>
<path d="M736.323 169.744L732.444 196.866" stroke="#131313" stroke-width="2" stroke-linecap="round" stroke-linejoin="round"/>
<path d="M730.37 173.336L726.491 200.458" stroke="#131313" stroke-width="2" stroke-linecap="round" stroke-linejoin="round"/>
<path d="M724.557 175.994L720.678 203.116" stroke="#131313" stroke-width="2" stroke-linecap="round" stroke-linejoin="round"/>
<path d="M718.849 177.872L714.969 205.002" stroke="#131313" stroke-width="2" stroke-linecap="round" stroke-linejoin="round"/>
<path d="M713.08 179.429L709.201 206.552" stroke="#131313" stroke-width="2" stroke-linecap="round" stroke-linejoin="round"/>
<path d="M707.377 180.523L703.498 207.645" stroke="#131313" stroke-width="2" stroke-linecap="round" stroke-linejoin="round"/>
<path d="M701.876 181.003L697.997 208.125" stroke="#131313" stroke-width="2" stroke-linecap="round" stroke-linejoin="round"/>
<path d="M696.433 181.026L692.554 208.149" stroke="#131313" stroke-width="2" stroke-linecap="round" stroke-linejoin="round"/>
<path d="M534.256 170.857L530.378 197.972" stroke="#131313" stroke-width="2" stroke-linecap="round" stroke-linejoin="round"/>
<path d="M545.489 168.333L541.569 195.74" stroke="#131313" stroke-width="2" stroke-linecap="round" stroke-linejoin="round"/>
<path d="M539.959 169.016L536.04 196.415" stroke="#131313" stroke-width="2" stroke-linecap="round" stroke-linejoin="round"/>
<path d="M550.863 168.736L547.017 195.626" stroke="#131313" stroke-width="2" stroke-linecap="round" stroke-linejoin="round"/>
<path d="M556.194 169.498L552.334 196.485" stroke="#131313" stroke-width="2" stroke-linecap="round" stroke-linejoin="round"/>
<path d="M561.43 170.865L557.581 197.778" stroke="#131313" stroke-width="2" stroke-linecap="round" stroke-linejoin="round"/>
<path d="M566.556 173.057L562.638 200.456" stroke="#131313" stroke-width="2" stroke-linecap="round" stroke-linejoin="round"/>
<path d="M571.54 176.19L567.67 203.252" stroke="#131313" stroke-width="2" stroke-linecap="round" stroke-linejoin="round"/>
<path d="M576.472 179.689L572.553 207.088" stroke="#131313" stroke-width="2" stroke-linecap="round" stroke-linejoin="round"/>
<path d="M581.363 183.519L577.444 210.926" stroke="#131313" stroke-width="2" stroke-linecap="round" stroke-linejoin="round"/>
<path d="M586.247 187.356L582.327 214.762" stroke="#131313" stroke-width="2" stroke-linecap="round" stroke-linejoin="round"/>
<path d="M591.13 191.192L587.211 218.591" stroke="#131313" stroke-width="2" stroke-linecap="round" stroke-linejoin="round"/>
<path d="M596.021 195.03L592.102 222.429" stroke="#131313" stroke-width="2" stroke-linecap="round" stroke-linejoin="round"/>
<path d="M600.905 198.859L596.986 226.265" stroke="#131313" stroke-width="2" stroke-linecap="round" stroke-linejoin="round"/>
<path d="M605.796 202.696L601.878 230.095" stroke="#131313" stroke-width="2" stroke-linecap="round" stroke-linejoin="round"/>
<path d="M615.522 210.653L611.649 237.73" stroke="#131313" stroke-width="2" stroke-linecap="round" stroke-linejoin="round"/>
<path d="M610.685 206.495L606.766 233.894" stroke="#131313" stroke-width="2" stroke-linecap="round" stroke-linejoin="round"/>
<path d="M620.459 214.169L616.54 241.568" stroke="#131313" stroke-width="2" stroke-linecap="round" stroke-linejoin="round"/>
<path d="M526.6 174.443L523.989 192.699" stroke="#131313" stroke-width="2" stroke-linecap="round" stroke-linejoin="round"/>
<path d="M523.094 177.537L521.476 188.85" stroke="#131313" stroke-width="2" stroke-linecap="round" stroke-linejoin="round"/>
<path d="M530.083 173.055L526.816 195.905" stroke="#131313" stroke-width="2" stroke-linecap="round" stroke-linejoin="round"/>
<path d="M75.6487 284.897L71.7301 312.296" stroke="#131313" stroke-width="2" stroke-linecap="round" stroke-linejoin="round"/>
<path d="M115.925 289.657L112.351 314.647" stroke="#131313" stroke-width="2" stroke-linecap="round" stroke-linejoin="round"/>
<path d="M260.345 361.65L256.426 389.049L288.48 376.202L292.399 348.796L260.345 361.65Z" stroke="#131313" stroke-width="2" stroke-linecap="round" stroke-linejoin="round"/>
<path d="M363.044 169.161L359.124 196.568" stroke="#131313" stroke-width="2" stroke-linecap="round" stroke-linejoin="round"/>
<path d="M403.148 175.286L399.69 199.468" stroke="#131313" stroke-width="2" stroke-linecap="round" stroke-linejoin="round"/>
<path d="M682.281 111.707L648.737 125.15L670.518 142.252L678.363 139.106L682.281 111.707Z" stroke="#131313" stroke-width="2" stroke-linecap="round" stroke-linejoin="round"/>
<path d="M582.198 128.377L579.118 149.917" stroke="#131313" stroke-width="2" stroke-linecap="round" stroke-linejoin="round"/>
<path d="M599.498 161.208L601.973 143.902L618.215 137.391L614.296 164.79L607.602 167.474" stroke="#131313" stroke-width="2" stroke-linecap="round" stroke-linejoin="round"/>
<path d="M198.596 386.405L194.677 413.804L225.548 401.429L229.467 374.023L198.596 386.405Z" stroke="#131313" stroke-width="2" stroke-linecap="round" stroke-linejoin="round"/>
<path d="M401.048 305.247L397.13 332.646L428 320.272L431.919 292.865L401.048 305.247Z" stroke="#131313" stroke-width="2" stroke-linecap="round" stroke-linejoin="round"/>
<path d="M485.547 271.369L481.628 298.768L512.506 286.395L516.425 258.996L485.547 271.369Z" stroke="#131313" stroke-width="2" stroke-linecap="round" stroke-linejoin="round"/>
<path d="M545.116 247.486L541.197 274.892" stroke="#131313" stroke-width="2" stroke-linecap="round" stroke-linejoin="round"/>
<path d="M623.09 216.233L619.171 243.632" stroke="#131313" stroke-width="2" stroke-linecap="round" stroke-linejoin="round"/>
<path d="M147.304 272.98L143.385 300.379" stroke="#131313" stroke-width="2" stroke-linecap="round" stroke-linejoin="round"/>
<path d="M157.079 280.647L153.16 308.053" stroke="#131313" stroke-width="2" stroke-linecap="round" stroke-linejoin="round"/>
<path d="M152.166 276.967L148.246 304.373" stroke="#131313" stroke-width="2" stroke-linecap="round" stroke-linejoin="round"/>
<path d="M161.962 284.483L158.044 311.882" stroke="#131313" stroke-width="2" stroke-linecap="round" stroke-linejoin="round"/>
<path d="M166.846 288.32L162.927 315.719" stroke="#131313" stroke-width="2" stroke-linecap="round" stroke-linejoin="round"/>
<path d="M171.743 292.112L167.824 319.511" stroke="#131313" stroke-width="2" stroke-linecap="round" stroke-linejoin="round"/>
<path d="M176.621 295.986L172.701 323.393" stroke="#131313" stroke-width="2" stroke-linecap="round" stroke-linejoin="round"/>
<path d="M181.504 299.822L177.586 327.221" stroke="#131313" stroke-width="2" stroke-linecap="round" stroke-linejoin="round"/>
<path d="M186.395 303.66L182.476 331.059" stroke="#131313" stroke-width="2" stroke-linecap="round" stroke-linejoin="round"/>
<path d="M191.279 307.489L187.36 334.895" stroke="#131313" stroke-width="2" stroke-linecap="round" stroke-linejoin="round"/>
<path d="M251.278 259.716L247.435 286.583" stroke="#131313" stroke-width="2" stroke-linecap="round" stroke-linejoin="round"/>
<path d="M261.858 261.756L257.976 288.9" stroke="#131313" stroke-width="2" stroke-linecap="round" stroke-linejoin="round"/>
<path d="M256.601 260.477L252.759 287.345" stroke="#131313" stroke-width="2" stroke-linecap="round" stroke-linejoin="round"/>
<path d="M266.985 263.886L263.094 291.091" stroke="#131313" stroke-width="2" stroke-linecap="round" stroke-linejoin="round"/>
<path d="M271.984 266.968L268.177 293.589" stroke="#131313" stroke-width="2" stroke-linecap="round" stroke-linejoin="round"/>
<path d="M276.798 271.291L273.974 291.036" stroke="#131313" stroke-width="2" stroke-linecap="round" stroke-linejoin="round"/>
<path d="M280.493 276.331L279.095 286.103" stroke="#131313" stroke-width="2" stroke-linecap="round" stroke-linejoin="round"/>
<path d="M196.17 311.326L192.252 338.725" stroke="#131313" stroke-width="2" stroke-linecap="round" stroke-linejoin="round"/>
<path d="M201.053 315.163L197.135 342.562" stroke="#131313" stroke-width="2" stroke-linecap="round" stroke-linejoin="round"/>
<path d="M77.0355 290.211L73.1169 317.61" stroke="#131313" stroke-width="2" stroke-linecap="round" stroke-linejoin="round"/>
<path d="M82.3166 295.432L78.4633 322.375" stroke="#131313" stroke-width="2" stroke-linecap="round" stroke-linejoin="round"/>
<path d="M79.3241 293.012L75.4612 320.022" stroke="#131313" stroke-width="2" stroke-linecap="round" stroke-linejoin="round"/>
<path d="M86.922 297.099L83.0034 324.498" stroke="#131313" stroke-width="2" stroke-linecap="round" stroke-linejoin="round"/>
<path d="M92.0824 298.997L88.2173 326.022" stroke="#131313" stroke-width="2" stroke-linecap="round" stroke-linejoin="round"/>
<path d="M97.4462 299.528L93.6217 326.268" stroke="#131313" stroke-width="2" stroke-linecap="round" stroke-linejoin="round"/>
<path d="M102.909 299.309L99.0668 326.177" stroke="#131313" stroke-width="2" stroke-linecap="round" stroke-linejoin="round"/>
<path d="M108.546 297.878L104.672 324.963" stroke="#131313" stroke-width="2" stroke-linecap="round" stroke-linejoin="round"/>
<path d="M113.069 295.364L110.207 315.378" stroke="#131313" stroke-width="2" stroke-linecap="round" stroke-linejoin="round"/>
<path d="M205.937 318.999L202.018 346.398" stroke="#131313" stroke-width="2" stroke-linecap="round" stroke-linejoin="round"/>
<path d="M210.829 322.829L206.909 350.236" stroke="#131313" stroke-width="2" stroke-linecap="round" stroke-linejoin="round"/>
<path d="M215.712 326.665L211.793 354.064" stroke="#131313" stroke-width="2" stroke-linecap="round" stroke-linejoin="round"/>
<path d="M225.445 334.624L221.527 362.023" stroke="#131313" stroke-width="2" stroke-linecap="round" stroke-linejoin="round"/>
<path d="M220.601 330.464L216.682 357.863" stroke="#131313" stroke-width="2" stroke-linecap="round" stroke-linejoin="round"/>
<path d="M230.375 338.138L226.456 365.537" stroke="#131313" stroke-width="2" stroke-linecap="round" stroke-linejoin="round"/>
<path d="M235.223 341.848L231.304 369.247" stroke="#131313" stroke-width="2" stroke-linecap="round" stroke-linejoin="round"/>
<path d="M244.949 349.805L241.029 377.211" stroke="#131313" stroke-width="2" stroke-linecap="round" stroke-linejoin="round"/>
<path d="M240.111 345.646L236.193 373.046" stroke="#131313" stroke-width="2" stroke-linecap="round" stroke-linejoin="round"/>
<path d="M249.885 353.32L245.967 380.719" stroke="#131313" stroke-width="2" stroke-linecap="round" stroke-linejoin="round"/>
<path d="M254.685 357.046L250.767 384.445" stroke="#131313" stroke-width="2" stroke-linecap="round" stroke-linejoin="round"/>
<path d="M625.506 215.471L621.648 242.444" stroke="#131313" stroke-width="2" stroke-linecap="round" stroke-linejoin="round"/>
<path d="M631.556 212.801L627.631 240.245" stroke="#131313" stroke-width="2" stroke-linecap="round" stroke-linejoin="round"/>
<path d="M637.324 210.458L633.394 237.931" stroke="#131313" stroke-width="2" stroke-linecap="round" stroke-linejoin="round"/>
<path d="M643.036 208.496L639.157 235.618" stroke="#131313" stroke-width="2" stroke-linecap="round" stroke-linejoin="round"/>
<path d="M648.805 206.198L644.927 233.312" stroke="#131313" stroke-width="2" stroke-linecap="round" stroke-linejoin="round"/>
<path d="M651.681 205.052L647.802 232.174" stroke="#131313" stroke-width="2" stroke-linecap="round" stroke-linejoin="round"/>
<path d="M645.96 207.066L642.057 234.36" stroke="#131313" stroke-width="2" stroke-linecap="round" stroke-linejoin="round"/>
<path d="M640.199 209.372L636.324 236.465" stroke="#131313" stroke-width="2" stroke-linecap="round" stroke-linejoin="round"/>
<path d="M634.428 211.685L630.524 238.987" stroke="#131313" stroke-width="2" stroke-linecap="round" stroke-linejoin="round"/>
<path d="M628.544 214.043L624.625 241.449" stroke="#131313" stroke-width="2" stroke-linecap="round" stroke-linejoin="round"/>
<path d="M653.446 122.571L649.364 151.107" stroke="#131313" stroke-width="2" stroke-linecap="round" stroke-linejoin="round"/>
<path d="M659.518 119.698L655.366 148.728" stroke="#131313" stroke-width="2" stroke-linecap="round" stroke-linejoin="round"/>
<path d="M665.318 117.176L661.162 146.236" stroke="#131313" stroke-width="2" stroke-linecap="round" stroke-linejoin="round"/>
<path d="M671.054 115.049L666.95 143.75" stroke="#131313" stroke-width="2" stroke-linecap="round" stroke-linejoin="round"/>
<path d="M676.84 112.578L672.738 141.257" stroke="#131313" stroke-width="2" stroke-linecap="round" stroke-linejoin="round"/>
<path d="M679.736 111.343L675.632 140.037" stroke="#131313" stroke-width="2" stroke-linecap="round" stroke-linejoin="round"/>
<path d="M673.993 113.515L669.863 142.395" stroke="#131313" stroke-width="2" stroke-linecap="round" stroke-linejoin="round"/>
<path d="M668.198 116L664.099 144.663" stroke="#131313" stroke-width="2" stroke-linecap="round" stroke-linejoin="round"/>
<path d="M662.41 118.493L658.278 147.381" stroke="#131313" stroke-width="2" stroke-linecap="round" stroke-linejoin="round"/>
<path d="M656.5 121.03L652.354 150.023" stroke="#131313" stroke-width="2" stroke-linecap="round" stroke-linejoin="round"/>
<path d="M607.826 141.761L604.494 165.06" stroke="#131313" stroke-width="2" stroke-linecap="round" stroke-linejoin="round"/>
<path d="M613.594 139.463L609.716 166.578" stroke="#131313" stroke-width="2" stroke-linecap="round" stroke-linejoin="round"/>
<path d="M616.47 138.317L612.591 165.439" stroke="#131313" stroke-width="2" stroke-linecap="round" stroke-linejoin="round"/>
<path d="M610.75 140.332L606.958 166.848" stroke="#131313" stroke-width="2" stroke-linecap="round" stroke-linejoin="round"/>
<path d="M604.988 142.638L602.091 162.899" stroke="#131313" stroke-width="2" stroke-linecap="round" stroke-linejoin="round"/>
<path d="M547.641 246.709L543.784 273.682" stroke="#131313" stroke-width="2" stroke-linecap="round" stroke-linejoin="round"/>
<path d="M553.686 244.031L549.761 271.475" stroke="#131313" stroke-width="2" stroke-linecap="round" stroke-linejoin="round"/>
<path d="M559.452 241.695L555.524 269.161" stroke="#131313" stroke-width="2" stroke-linecap="round" stroke-linejoin="round"/>
<path d="M565.173 239.726L561.294 266.848" stroke="#131313" stroke-width="2" stroke-linecap="round" stroke-linejoin="round"/>
<path d="M570.934 237.427L567.056 264.542" stroke="#131313" stroke-width="2" stroke-linecap="round" stroke-linejoin="round"/>
<path d="M573.817 236.282L569.938 263.405" stroke="#131313" stroke-width="2" stroke-linecap="round" stroke-linejoin="round"/>
<path d="M568.09 238.296L564.186 265.59" stroke="#131313" stroke-width="2" stroke-linecap="round" stroke-linejoin="round"/>
<path d="M562.327 240.61L558.453 267.694" stroke="#131313" stroke-width="2" stroke-linecap="round" stroke-linejoin="round"/>
<path d="M556.565 242.916L552.659 270.225" stroke="#131313" stroke-width="2" stroke-linecap="round" stroke-linejoin="round"/>
<path d="M550.673 245.28L546.754 272.679" stroke="#131313" stroke-width="2" stroke-linecap="round" stroke-linejoin="round"/>
<path d="M487.85 270.76L483.992 297.732" stroke="#131313" stroke-width="2" stroke-linecap="round" stroke-linejoin="round"/>
<path d="M493.893 268.089L489.969 295.525" stroke="#131313" stroke-width="2" stroke-linecap="round" stroke-linejoin="round"/>
<path d="M499.66 265.745L495.731 293.219" stroke="#131313" stroke-width="2" stroke-linecap="round" stroke-linejoin="round"/>
<path d="M505.373 263.783L501.494 290.905" stroke="#131313" stroke-width="2" stroke-linecap="round" stroke-linejoin="round"/>
<path d="M511.141 261.485L507.264 288.592" stroke="#131313" stroke-width="2" stroke-linecap="round" stroke-linejoin="round"/>
<path d="M514.017 260.339L510.138 287.461" stroke="#131313" stroke-width="2" stroke-linecap="round" stroke-linejoin="round"/>
<path d="M508.298 262.346L504.393 289.648" stroke="#131313" stroke-width="2" stroke-linecap="round" stroke-linejoin="round"/>
<path d="M502.535 264.66L498.661 291.752" stroke="#131313" stroke-width="2" stroke-linecap="round" stroke-linejoin="round"/>
<path d="M496.765 266.972L492.86 294.274" stroke="#131313" stroke-width="2" stroke-linecap="round" stroke-linejoin="round"/>
<path d="M490.881 269.33L486.963 296.729" stroke="#131313" stroke-width="2" stroke-linecap="round" stroke-linejoin="round"/>
<path d="M403.366 304.479L399.508 331.452" stroke="#131313" stroke-width="2" stroke-linecap="round" stroke-linejoin="round"/>
<path d="M409.409 301.808L405.484 329.252" stroke="#131313" stroke-width="2" stroke-linecap="round" stroke-linejoin="round"/>
<path d="M415.176 299.465L411.247 326.939" stroke="#131313" stroke-width="2" stroke-linecap="round" stroke-linejoin="round"/>
<path d="M420.896 297.504L417.017 324.626" stroke="#131313" stroke-width="2" stroke-linecap="round" stroke-linejoin="round"/>
<path d="M426.657 295.205L422.78 322.312" stroke="#131313" stroke-width="2" stroke-linecap="round" stroke-linejoin="round"/>
<path d="M429.541 294.06L425.662 321.182" stroke="#131313" stroke-width="2" stroke-linecap="round" stroke-linejoin="round"/>
<path d="M423.822 296.067L419.917 323.368" stroke="#131313" stroke-width="2" stroke-linecap="round" stroke-linejoin="round"/>
<path d="M418.051 298.379L414.177 325.472" stroke="#131313" stroke-width="2" stroke-linecap="round" stroke-linejoin="round"/>
<path d="M412.288 300.693L408.384 327.995" stroke="#131313" stroke-width="2" stroke-linecap="round" stroke-linejoin="round"/>
<path d="M406.405 303.051L402.485 330.457" stroke="#131313" stroke-width="2" stroke-linecap="round" stroke-linejoin="round"/>
<path d="M382.991 234.713L380.768 250.253" stroke="#131313" stroke-width="2" stroke-linecap="round" stroke-linejoin="round"/>
<path d="M389.429 230.289L385.724 256.199" stroke="#131313" stroke-width="2" stroke-linecap="round" stroke-linejoin="round"/>
<path d="M395.198 227.991L391.32 255.106" stroke="#131313" stroke-width="2" stroke-linecap="round" stroke-linejoin="round"/>
<path d="M398.074 226.845L394.195 253.967" stroke="#131313" stroke-width="2" stroke-linecap="round" stroke-linejoin="round"/>
<path d="M392.354 228.86L388.45 256.154" stroke="#131313" stroke-width="2" stroke-linecap="round" stroke-linejoin="round"/>
<path d="M386.502 231.795L383.331 253.964" stroke="#131313" stroke-width="2" stroke-linecap="round" stroke-linejoin="round"/>
<path d="M263.232 360.803L259.374 387.775" stroke="#131313" stroke-width="2" stroke-linecap="round" stroke-linejoin="round"/>
<path d="M269.275 358.132L265.351 385.568" stroke="#131313" stroke-width="2" stroke-linecap="round" stroke-linejoin="round"/>
<path d="M275.042 355.788L271.113 383.262" stroke="#131313" stroke-width="2" stroke-linecap="round" stroke-linejoin="round"/>
<path d="M280.762 353.827L276.883 380.949" stroke="#131313" stroke-width="2" stroke-linecap="round" stroke-linejoin="round"/>
<path d="M286.523 351.528L282.646 378.636" stroke="#131313" stroke-width="2" stroke-linecap="round" stroke-linejoin="round"/>
<path d="M289.407 350.383L285.528 377.505" stroke="#131313" stroke-width="2" stroke-linecap="round" stroke-linejoin="round"/>
<path d="M283.68 352.389L279.775 379.691" stroke="#131313" stroke-width="2" stroke-linecap="round" stroke-linejoin="round"/>
<path d="M277.917 354.703L274.042 381.795" stroke="#131313" stroke-width="2" stroke-linecap="round" stroke-linejoin="round"/>
<path d="M272.154 357.017L268.25 384.319" stroke="#131313" stroke-width="2" stroke-linecap="round" stroke-linejoin="round"/>
<path d="M266.263 359.373L262.344 386.772" stroke="#131313" stroke-width="2" stroke-linecap="round" stroke-linejoin="round"/>
<path d="M202.198 272.708L201.557 277.189" stroke="#131313" stroke-width="2" stroke-linecap="round" stroke-linejoin="round"/>
<path d="M208.177 270.486L206.615 281.402" stroke="#131313" stroke-width="2" stroke-linecap="round" stroke-linejoin="round"/>
<path d="M213.949 268.105L211.526 285.044" stroke="#131313" stroke-width="2" stroke-linecap="round" stroke-linejoin="round"/>
<path d="M219.686 266.024L216.413 288.911" stroke="#131313" stroke-width="2" stroke-linecap="round" stroke-linejoin="round"/>
<path d="M225.489 263.433L221.611 290.548" stroke="#131313" stroke-width="2" stroke-linecap="round" stroke-linejoin="round"/>
<path d="M228.372 262.288L224.493 289.41" stroke="#131313" stroke-width="2" stroke-linecap="round" stroke-linejoin="round"/>
<path d="M222.589 264.691L218.854 290.81" stroke="#131313" stroke-width="2" stroke-linecap="round" stroke-linejoin="round"/>
<path d="M216.838 266.922L213.941 287.176" stroke="#131313" stroke-width="2" stroke-linecap="round" stroke-linejoin="round"/>
<path d="M211.042 269.468L209.074 283.227" stroke="#131313" stroke-width="2" stroke-linecap="round" stroke-linejoin="round"/>
<path d="M233.84 261.077L229.972 288.125" stroke="#131313" stroke-width="2" stroke-linecap="round" stroke-linejoin="round"/>
<path d="M239.441 259.893L235.562 287.016" stroke="#131313" stroke-width="2" stroke-linecap="round" stroke-linejoin="round"/>
<path d="M244.975 259.234L241.099 286.334" stroke="#131313" stroke-width="2" stroke-linecap="round" stroke-linejoin="round"/>
<path d="M247.633 259.614L243.831 286.198" stroke="#131313" stroke-width="2" stroke-linecap="round" stroke-linejoin="round"/>
<path d="M242.233 259.392L238.308 286.836" stroke="#131313" stroke-width="2" stroke-linecap="round" stroke-linejoin="round"/>
<path d="M236.639 260.47L232.78 287.45" stroke="#131313" stroke-width="2" stroke-linecap="round" stroke-linejoin="round"/>
<path d="M231.054 261.542L227.207 288.439" stroke="#131313" stroke-width="2" stroke-linecap="round" stroke-linejoin="round"/>
<path d="M205.171 271.682L204.082 279.299" stroke="#131313" stroke-width="2" stroke-linecap="round" stroke-linejoin="round"/>
<path d="M293.837 310.483L289.98 337.455" stroke="#131313" stroke-width="2" stroke-linecap="round" stroke-linejoin="round"/>
<path d="M299.88 307.812L295.955 335.256" stroke="#131313" stroke-width="2" stroke-linecap="round" stroke-linejoin="round"/>
<path d="M305.952 303.389L301.956 331.334" stroke="#131313" stroke-width="2" stroke-linecap="round" stroke-linejoin="round"/>
<path d="M312.032 298.861L308.109 326.29" stroke="#131313" stroke-width="2" stroke-linecap="round" stroke-linejoin="round"/>
<path d="M318.633 290.689L314.678 318.342" stroke="#131313" stroke-width="2" stroke-linecap="round" stroke-linejoin="round"/>
<path d="M315.264 295.284L311.237 323.439" stroke="#131313" stroke-width="2" stroke-linecap="round" stroke-linejoin="round"/>
<path d="M308.967 301.278L305.025 328.842" stroke="#131313" stroke-width="2" stroke-linecap="round" stroke-linejoin="round"/>
<path d="M302.913 305.627L298.964 333.235" stroke="#131313" stroke-width="2" stroke-linecap="round" stroke-linejoin="round"/>
<path d="M296.876 309.054L292.956 336.461" stroke="#131313" stroke-width="2" stroke-linecap="round" stroke-linejoin="round"/>
<path d="M264.835 321.872L264.154 326.63" stroke="#131313" stroke-width="2" stroke-linecap="round" stroke-linejoin="round"/>
<path d="M270.878 319.201L269.244 330.626" stroke="#131313" stroke-width="2" stroke-linecap="round" stroke-linejoin="round"/>
<path d="M276.608 317.165L274.185 334.112" stroke="#131313" stroke-width="2" stroke-linecap="round" stroke-linejoin="round"/>
<path d="M282.366 314.889L279.037 338.165" stroke="#131313" stroke-width="2" stroke-linecap="round" stroke-linejoin="round"/>
<path d="M288.133 312.599L284.256 339.706" stroke="#131313" stroke-width="2" stroke-linecap="round" stroke-linejoin="round"/>
<path d="M291.01 311.445L287.13 338.575" stroke="#131313" stroke-width="2" stroke-linecap="round" stroke-linejoin="round"/>
<path d="M285.29 313.46L281.464 340.215" stroke="#131313" stroke-width="2" stroke-linecap="round" stroke-linejoin="round"/>
<path d="M279.52 315.772L276.62 336.048" stroke="#131313" stroke-width="2" stroke-linecap="round" stroke-linejoin="round"/>
<path d="M273.758 318.078L271.707 332.421" stroke="#131313" stroke-width="2" stroke-linecap="round" stroke-linejoin="round"/>
<path d="M267.873 320.444L266.721 328.502" stroke="#131313" stroke-width="2" stroke-linecap="round" stroke-linejoin="round"/>
<path d="M202.746 384.952L198.888 411.925" stroke="#131313" stroke-width="2" stroke-linecap="round" stroke-linejoin="round"/>
<path d="M208.789 382.281L204.865 409.718" stroke="#131313" stroke-width="2" stroke-linecap="round" stroke-linejoin="round"/>
<path d="M214.556 379.938L210.627 407.412" stroke="#131313" stroke-width="2" stroke-linecap="round" stroke-linejoin="round"/>
<path d="M220.277 377.969L216.397 405.099" stroke="#131313" stroke-width="2" stroke-linecap="round" stroke-linejoin="round"/>
<path d="M226.037 375.678L222.16 402.785" stroke="#131313" stroke-width="2" stroke-linecap="round" stroke-linejoin="round"/>
<path d="M223.202 376.54L219.298 403.834" stroke="#131313" stroke-width="2" stroke-linecap="round" stroke-linejoin="round"/>
<path d="M217.431 378.852L213.558 405.937" stroke="#131313" stroke-width="2" stroke-linecap="round" stroke-linejoin="round"/>
<path d="M211.668 381.166L207.764 408.468" stroke="#131313" stroke-width="2" stroke-linecap="round" stroke-linejoin="round"/>
<path d="M205.785 383.524L201.866 410.923" stroke="#131313" stroke-width="2" stroke-linecap="round" stroke-linejoin="round"/>
<path d="M364.464 174.778L360.544 202.184" stroke="#131313" stroke-width="2" stroke-linecap="round" stroke-linejoin="round"/>
<path d="M369.744 180.007L365.89 206.949" stroke="#131313" stroke-width="2" stroke-linecap="round" stroke-linejoin="round"/>
<path d="M366.76 177.58L362.896 204.597" stroke="#131313" stroke-width="2" stroke-linecap="round" stroke-linejoin="round"/>
<path d="M374.302 182.003L370.43 209.072" stroke="#131313" stroke-width="2" stroke-linecap="round" stroke-linejoin="round"/>
<path d="M379.517 183.573L376.091 207.53" stroke="#131313" stroke-width="2" stroke-linecap="round" stroke-linejoin="round"/>
<path d="M384.873 184.102L381.049 210.843" stroke="#131313" stroke-width="2" stroke-linecap="round" stroke-linejoin="round"/>
<path d="M390.337 183.883L386.494 210.751" stroke="#131313" stroke-width="2" stroke-linecap="round" stroke-linejoin="round"/>
<path d="M395.981 182.454L392.107 209.538" stroke="#131313" stroke-width="2" stroke-linecap="round" stroke-linejoin="round"/>
<path d="M400.497 179.931L397.634 199.953" stroke="#131313" stroke-width="2" stroke-linecap="round" stroke-linejoin="round"/>
<path d="M321.723 281.259L317.261 312.458" stroke="#131313" stroke-width="2" stroke-linecap="round" stroke-linejoin="round"/>
<path d="M108.922 316.027L139.794 303.645L229.468 374.015L198.597 386.397L108.922 316.027ZM111.194 281.231C118.369 286.838 117.279 294.187 108.761 297.604C100.243 301.02 87.5197 299.223 80.3488 293.593C73.1778 287.964 74.265 280.629 82.7831 277.213C91.3013 273.797 104.027 275.579 111.198 281.208L111.194 281.231Z" fill="#FCFCFC" stroke="#131313" stroke-width="2" stroke-linecap="round" stroke-linejoin="round"/>
<path d="M240.756 237.291C252.701 236.322 264.724 237.386 276.313 240.437C287.155 243.262 297.306 248.271 306.143 255.156C314.701 261.877 319.732 268.72 321.237 275.684C322.742 282.649 320.673 289.278 315.031 295.572C309.387 301.849 300.438 307.441 288.184 312.346L260.232 323.55L292.403 348.766L260.349 361.62L143.661 270.085L203.634 246.053C215.481 241.235 228.003 238.279 240.756 237.291ZM281.068 282.888C282.577 278.136 280.111 273.228 273.669 268.163C267.179 263.043 259.309 259.972 251.064 259.342C242.552 258.603 233.481 260.166 223.852 264.031L197.723 274.503L238.257 306.26L264.378 295.787C273.989 291.944 279.552 287.644 281.068 282.888Z" fill="#51C0FF" stroke="#131313" stroke-width="2" stroke-linecap="round" stroke-linejoin="round"/>
<path d="M381.479 211.523L400.142 226.164C396.487 227.367 394.075 228.205 392.907 228.679C384.042 232.222 379.19 236.646 378.349 241.951C377.509 247.257 381.248 253.167 389.565 259.681L431.899 292.901L401.028 305.282L311.374 234.869L340.859 223.053L352.695 232.335C352.058 227.454 353.761 222.885 357.803 218.627C361.844 214.37 367.955 210.604 376.134 207.33L381.479 211.523Z" fill="#FCFCFC" stroke="#131313" stroke-width="2" stroke-linecap="round" stroke-linejoin="round"/>
<path d="M395.872 200.999L426.751 188.618L516.425 258.996L485.546 271.377L395.872 200.999ZM398.499 166.017C405.674 171.624 404.583 178.981 396.065 182.397C387.547 185.813 374.824 184.016 367.653 178.387C360.482 172.757 361.569 165.423 370.087 162.007C378.605 158.591 391.351 160.391 398.499 166.017Z" fill="#FCFCFC" stroke="#131313" stroke-width="2" stroke-linecap="round" stroke-linejoin="round"/>
<path d="M560.782 145.165C575.565 147.141 589.511 153.277 602.621 163.571L653.96 203.858L623.089 216.24L575.748 179.09C568.638 173.492 561.488 170.069 554.296 168.822C547.129 167.55 539.747 168.348 533.019 171.123C525.233 174.24 521.062 178.316 520.505 183.351C519.948 188.387 523.667 194.045 531.661 200.324L575.989 235.096L545.117 247.478L455.442 177.115L486.313 164.734L496.822 172.986C497.136 168.381 497.913 164.606 501.93 160.561C505.946 156.517 511.57 153.038 518.831 150.129C532.021 144.838 546.004 143.183 560.782 145.165Z" fill="#FCFCFC" stroke="#131313" stroke-width="2" stroke-linecap="round" stroke-linejoin="round"/>
<path d="M745.008 160.778C743.878 163.446 741.594 166.023 738.157 168.509C734.308 171.216 730.141 173.441 725.75 175.134C713.225 180.163 700.849 181.935 688.623 180.452C676.398 178.968 665.064 174.133 654.622 165.946L618.218 137.369L602.006 143.884L582.198 128.377L598.409 121.869L576.842 104.927L607.364 92.6936L628.961 109.632L662.506 96.1898L682.282 111.708L648.737 125.15L684.826 153.476C688.314 156.297 692.475 158.163 696.902 158.891C701.202 159.573 705.606 159.056 709.63 157.398C714.459 155.467 717.472 152.958 718.667 149.872L745.008 160.778Z" fill="#FCFCFC" stroke="#131313" stroke-width="2" stroke-linecap="round" stroke-linejoin="round"/>
<path d="M83.6233 346.018L76.5422 340.455" stroke="#131313" stroke-linecap="round" stroke-linejoin="round"/>
<path d="M78.2885 343.415L75.9175 340.763L73.5401 338.102L77.2556 340.221L80.9625 342.347L79.6255 342.881L78.2885 343.415Z" fill="#131313"/>
<path d="M82.9806 343.941L85.3313 346.575L87.6831 349.202L84.0104 347.104L80.3302 345.005L81.6522 344.469L82.9806 343.941Z" fill="#131313"/>
<path d="M154.519 417.085L46.298 332.159" stroke="#131313" stroke-linecap="round" stroke-linejoin="round"/>
<path d="M44.084 333.537L39.3933 328.301L34.7101 323.065L42.0277 327.242L49.3516 331.428L46.7173 332.486L44.084 333.537Z" fill="#131313"/>
<path d="M155.381 414.635L160.071 419.879L164.754 425.115L157.437 420.93L150.112 416.753L152.747 415.694L155.381 414.635Z" fill="#131313"/>
<path d="M194.871 412.45L187.804 461.861" stroke="#131313" stroke-linecap="round" stroke-linejoin="round"/>
<path d="M741.524 185.139L733.218 243.214" stroke="#131313" stroke-miterlimit="10"/>
<path d="M728.728 231.929L198.058 444.385" stroke="#131313" stroke-linecap="round" stroke-linejoin="round"/>
<path d="M204.732 444.354L197.857 445.791L190.974 447.227L198.259 442.978L205.536 438.735L205.134 441.548L204.732 444.354Z" fill="#131313"/>
<path d="M720.59 233.063L727.471 231.635L734.354 230.199L727.07 234.44L719.786 238.682L720.187 235.876L720.59 233.063Z" fill="#131313"/>
<path d="M718.849 177.872L790.286 149.693" stroke="#131313" stroke-miterlimit="10"/>
<path d="M719.425 203.494L780.199 179.248" stroke="#131313" stroke-miterlimit="10"/>
<path d="M778.562 163.08L777.284 172.013" stroke="#131313" stroke-miterlimit="10"/>
<path d="M776.309 165.369L779.505 156.488L780.386 163.738L776.309 165.369Z" fill="#131313"/>
<path d="M775.454 171.355L776.343 178.598L779.53 169.723L775.454 171.355Z" fill="#131313"/>
<path d="M70.7962 252.8L55.2103 259.053" stroke="#131313" stroke-miterlimit="10"/>
<path d="M71.1148 254.632L76.7687 250.409L67.8176 252.046L71.1148 254.632Z" fill="#131313"/>
<path d="M58.1954 259.816L49.2378 261.444L54.8917 257.221L58.1954 259.816Z" fill="#131313"/>
<path d="M211.788 197.103L192.572 204.807" stroke="#131313" stroke-miterlimit="10"/>
<path d="M212.176 199.357L219.148 194.147L208.11 196.165L212.176 199.357Z" fill="#131313"/>
<path d="M196.251 205.738L185.213 207.755L192.184 202.553L196.251 205.738Z" fill="#131313"/>
<path d="M298.867 160.571L289.457 164.348" stroke="#131313" stroke-miterlimit="10"/>
<path d="M299.07 161.714L302.474 159.124L297.051 160.074L299.07 161.714Z" fill="#131313"/>
<path d="M291.273 164.844L285.851 165.787L289.254 163.204L291.273 164.844Z" fill="#131313"/>
<path d="M487.289 84.6674L476.34 89.0568" stroke="#131313" stroke-miterlimit="10"/>
<path d="M487.511 85.9512L491.479 82.9913L485.195 84.1388L487.511 85.9512Z" fill="#131313"/>
<path d="M478.441 89.5939L472.15 90.7403L476.126 87.774L478.441 89.5939Z" fill="#131313"/>
<path d="M356.623 138.573L341.913 144.471" stroke="#131313" stroke-miterlimit="10"/>
<path d="M356.919 140.295L362.257 136.31L353.807 137.858L356.919 140.295Z" fill="#131313"/>
<path d="M344.729 145.187L336.281 146.727L341.618 142.742L344.729 145.187Z" fill="#131313"/>
<path d="M493.001 306.283L492.691 308.456L485.88 322.782L482.462 324.145L489.018 310.447L484.512 312.243L484.175 314.602L481.378 315.717L482.107 310.626L493.001 306.283ZM502.399 309.017C503.021 309.107 503.465 309.372 503.732 309.812C504.012 310.247 504.097 310.844 503.989 311.603C503.86 312.5 503.508 313.382 502.933 314.249C502.359 315.102 501.612 315.888 500.691 316.606C499.772 317.31 498.743 317.89 497.604 318.344C496.465 318.798 495.487 319.018 494.671 319.006C493.869 318.974 493.277 318.722 492.892 318.251C492.523 317.76 492.402 317.067 492.531 316.17C492.639 315.411 492.91 314.672 493.342 313.954C493.788 313.23 494.366 312.557 495.078 311.935C494.62 311.805 494.291 311.546 494.09 311.158C493.891 310.755 493.838 310.23 493.931 309.582C494.051 308.74 494.376 307.921 494.905 307.125C495.434 306.328 496.117 305.607 496.954 304.961C497.793 304.302 498.724 303.768 499.747 303.36C500.783 302.948 501.671 302.756 502.411 302.786C503.166 302.798 503.72 303.026 504.071 303.471C504.423 303.917 504.538 304.56 504.418 305.402C504.325 306.05 504.106 306.684 503.761 307.303C503.418 307.908 502.964 308.479 502.399 309.017ZM499.395 305.823C498.76 306.076 498.225 306.445 497.789 306.931C497.368 307.398 497.118 307.915 497.037 308.48C496.958 309.032 497.083 309.392 497.413 309.56C497.744 309.727 498.232 309.682 498.88 309.424C499.527 309.166 500.067 308.801 500.501 308.329C500.935 307.857 501.191 307.345 501.27 306.793C501.351 306.227 501.22 305.863 500.877 305.701C500.536 305.524 500.042 305.565 499.395 305.823ZM497.956 315.881C498.746 315.566 499.394 315.132 499.9 314.579C500.422 314.007 500.728 313.404 500.818 312.769C500.909 312.134 500.748 311.724 500.335 311.537C499.936 311.345 499.341 311.407 498.551 311.721C497.774 312.031 497.133 312.462 496.626 313.015C496.12 313.569 495.821 314.162 495.73 314.797C495.638 315.446 495.791 315.866 496.191 316.058C496.591 316.25 497.179 316.191 497.956 315.881Z" fill="#131313"/>
<path d="M103.774 361.6C104.592 362.468 104.92 363.253 104.759 363.953C104.61 364.649 104.024 365.2 102.999 365.609C102.208 365.924 101.299 366.079 100.273 366.072C99.2597 366.061 98.1889 365.851 97.0609 365.444C95.9438 365.046 94.8628 364.438 93.8178 363.621C93.0038 362.985 92.324 362.308 91.7784 361.591C91.2568 360.877 90.9544 360.213 90.8713 359.597L94.323 359.448C94.3739 359.946 94.5752 360.463 94.9267 360.998C95.3022 361.537 95.7925 362.042 96.3975 362.515C97.0685 363.04 97.7456 363.393 98.4289 363.575C99.1252 363.752 99.7522 363.729 100.31 363.507C101.425 363.062 101.262 362.277 99.8213 361.151L98.6003 360.196L100.682 359.367L106.229 359.96L101.312 356.117L103.841 355.109L111.926 361.428L109.883 362.242L103.774 361.6ZM114.171 369.175C114.908 369.751 115.404 370.345 115.659 370.957C115.914 371.57 115.893 372.143 115.597 372.676C115.313 373.205 114.75 373.637 113.907 373.973C112.999 374.335 112.009 374.502 110.937 374.475C109.864 374.448 108.804 374.248 107.757 373.873C106.734 373.502 105.816 372.998 105.002 372.362C103.385 371.098 102.703 369.877 102.957 368.698C103.212 367.519 104.422 366.498 106.587 365.635C108.131 365.02 109.701 364.686 111.298 364.634C112.896 364.581 114.42 364.785 115.87 365.245C117.332 365.714 118.646 366.404 119.812 367.316C120.428 367.797 120.932 368.291 121.325 368.796C121.741 369.306 121.998 369.774 122.096 370.203L118.791 370.352C118.673 369.724 118.179 369.07 117.31 368.391C116.331 367.626 115.218 367.154 113.972 366.976C112.726 366.797 111.438 366.947 110.11 367.424C111.597 367.637 112.95 368.22 114.171 369.175ZM107.207 371.308C107.779 371.755 108.423 372.044 109.138 372.174C109.864 372.313 110.538 372.258 111.161 372.01C111.783 371.762 112.094 371.424 112.095 370.995C112.119 370.57 111.834 370.126 111.24 369.662C110.657 369.206 109.984 368.909 109.221 368.772C108.471 368.63 107.797 368.677 107.201 368.915C106.604 369.153 106.299 369.489 106.286 369.922C106.273 370.356 106.58 370.818 107.207 371.308Z" fill="#131313"/>
<path d="M94.7317 339.715C94.9665 340.296 94.96 340.812 94.7123 341.261C94.4757 341.719 94.0007 342.09 93.2874 342.374C92.4444 342.71 91.5016 342.846 90.4592 342.781C89.4296 342.711 88.3713 342.458 87.2841 342.021C86.2099 341.58 85.1888 340.981 84.2208 340.224C83.2528 339.468 82.5689 338.734 82.169 338.024C81.7932 337.317 81.713 336.68 81.9285 336.114C82.168 335.551 82.7092 335.102 83.5522 334.766C84.2655 334.481 85.043 334.347 85.8847 334.362C86.7374 334.385 87.6129 334.549 88.5111 334.853C88.3933 334.394 88.4524 333.981 88.6883 333.614C88.9371 333.242 89.3663 332.935 89.9759 332.692C90.767 332.377 91.6414 332.249 92.599 332.309C93.5566 332.368 94.5265 332.598 95.5088 332.999C96.504 333.394 97.4361 333.931 98.3051 334.61C99.1852 335.298 99.7986 335.969 100.145 336.623C100.516 337.28 100.597 337.871 100.387 338.396C100.177 338.92 99.6771 339.341 98.886 339.656C98.2765 339.899 97.6163 340.026 96.9054 340.036C96.2075 340.042 95.4829 339.935 94.7317 339.715ZM95.9902 335.533C95.4512 335.112 94.861 334.834 94.2198 334.7C93.6025 334.57 93.028 334.611 92.4962 334.823C91.9775 335.029 91.7285 335.317 91.7492 335.685C91.7699 336.053 92.0553 336.452 92.6053 336.882C93.1553 337.312 93.7444 337.597 94.3727 337.736C95.001 337.875 95.5745 337.841 96.0933 337.634C96.625 337.422 96.875 337.128 96.8433 336.751C96.8246 336.369 96.5402 335.963 95.9902 335.533ZM86.5358 339.301C87.2068 339.826 87.9099 340.169 88.645 340.33C89.4042 340.495 90.082 340.458 90.6786 340.221C91.2752 339.983 91.5505 339.639 91.5047 339.19C91.4699 338.75 91.1169 338.267 90.4459 337.743C89.7859 337.227 89.0883 336.888 88.3532 336.727C87.618 336.566 86.9521 336.604 86.3555 336.842C85.746 337.085 85.4586 337.427 85.4935 337.867C85.5283 338.307 85.8758 338.786 86.5358 339.301Z" fill="#131313"/>
<path d="M57.3661 235.758L55.2942 250.245L52.1482 251.499L53.8353 239.702L51.1165 240.786L51.5012 238.096L57.3661 235.758ZM64.9711 232.727L62.8992 247.213L59.7531 248.467L61.4402 236.671L58.7214 237.755L59.1062 235.064L64.9711 232.727Z" fill="#131313"/>
<path d="M291.302 141.626C293.205 140.867 294.605 140.895 295.502 141.708C296.401 142.508 296.685 144.067 296.353 146.385C296.118 148.026 295.626 149.55 294.875 150.955C294.138 152.354 293.202 153.567 292.066 154.592C290.931 155.617 289.677 156.403 288.304 156.95C287.579 157.239 286.898 157.432 286.262 157.53C285.627 157.614 285.099 157.59 284.679 157.458L286.196 154.531C286.787 154.751 287.601 154.654 288.637 154.241C289.789 153.782 290.753 153.06 291.529 152.074C292.307 151.074 292.819 149.881 293.066 148.495C292.126 149.689 290.938 150.573 289.501 151.145C288.633 151.491 287.87 151.62 287.211 151.531C286.553 151.442 286.064 151.142 285.747 150.632C285.431 150.107 285.337 149.396 285.466 148.499C285.604 147.534 285.952 146.595 286.509 145.683C287.067 144.771 287.762 143.967 288.594 143.271C289.441 142.556 290.344 142.008 291.302 141.626ZM290.558 148.363C291.244 148.089 291.829 147.667 292.314 147.097C292.813 146.507 293.108 145.895 293.199 145.261C293.29 144.626 293.15 144.194 292.78 143.964C292.423 143.729 291.876 143.759 291.138 144.053C290.464 144.321 289.887 144.734 289.404 145.29C288.935 145.842 288.652 146.448 288.558 147.111C288.463 147.773 288.594 148.222 288.951 148.457C289.323 148.673 289.859 148.641 290.558 148.363Z" fill="#131313"/>
<path d="M195.533 179.769L193.461 194.256L190.315 195.51L192.002 183.713L189.283 184.797L189.668 182.107L195.533 179.769ZM208.706 185.31L206.492 186.193L206.057 189.235L202.988 190.458L203.424 187.416L196.102 190.334L196.425 188.078L204.148 176.335L207.449 175.019L200.26 186.101L203.911 184.645L204.299 181.934L207.27 180.75L206.883 183.461L209.097 182.579L208.706 185.31Z" fill="#131313"/>
<path d="M344.551 123.051L342.479 137.537L339.333 138.791L341.02 126.995L338.301 128.079L338.686 125.388L344.551 123.051ZM352.156 120.019L350.084 134.506L346.938 135.76L348.625 123.964L345.906 125.047L346.291 122.357L352.156 120.019Z" fill="#131313"/>
<path d="M476.614 67.991L474.542 82.4777L471.396 83.7317L473.083 71.9353L470.364 73.019L470.749 70.3286L476.614 67.991ZM482.694 79.4626C481.568 79.9116 480.607 80.0149 479.811 79.7725C479.016 79.5302 478.445 78.9508 478.1 78.0345C477.77 77.0993 477.717 75.8521 477.94 74.2931C478.163 72.734 478.6 71.2977 479.252 69.9841C479.918 68.6515 480.734 67.5131 481.7 66.5689C482.665 65.6247 483.711 64.9282 484.837 64.4792C485.963 64.0303 486.924 63.927 487.72 64.1693C488.515 64.4117 489.078 65.0005 489.408 65.9358C489.754 66.8521 489.815 68.0897 489.592 69.6488C489.369 71.2078 488.924 72.6536 488.257 73.9862C487.605 75.2999 486.797 76.4288 485.832 77.373C484.866 78.3171 483.821 79.0137 482.694 79.4626ZM483.1 76.6274C483.928 76.2971 484.63 75.6597 485.204 74.7151C485.792 73.7653 486.199 72.4971 486.426 70.9105C486.653 69.3238 486.581 68.2466 486.211 67.6787C485.853 67.1056 485.26 66.9842 484.432 67.3145C483.616 67.6396 482.914 68.277 482.327 69.2268C481.752 70.1714 481.351 71.437 481.124 73.0236C480.898 74.6103 480.963 75.6901 481.32 76.2632C481.691 76.8311 482.284 76.9525 483.1 76.6274Z" fill="#131313"/>
<path d="M763.618 177.431L771.395 174.331L771.121 176.249L764.788 178.773L764.551 180.431L763.107 181.007L763.618 177.431ZM772.243 169.286C772.144 169.973 771.898 170.648 771.502 171.312C771.107 171.976 770.588 172.581 769.944 173.128C769.293 173.67 768.55 174.108 767.713 174.441C766.876 174.775 766.179 174.911 765.622 174.85C765.058 174.785 764.656 174.547 764.414 174.137C764.172 173.727 764.101 173.179 764.199 172.492C764.297 171.806 764.544 171.13 764.939 170.467C765.334 169.803 765.857 169.2 766.507 168.658C767.151 168.111 767.892 167.671 768.729 167.337C769.566 167.004 770.266 166.87 770.829 166.936C771.386 166.996 771.786 167.232 772.027 167.641C772.269 168.051 772.341 168.6 772.243 169.286ZM770.721 169.893C770.793 169.388 770.646 169.074 770.279 168.952C769.913 168.823 769.304 168.928 768.453 169.267C767.601 169.607 766.95 170.004 766.501 170.458C766.053 170.905 765.793 171.381 765.721 171.886C765.65 172.383 765.797 172.696 766.163 172.826C766.529 172.948 767.139 172.839 767.99 172.5C768.842 172.16 769.492 171.767 769.94 171.32C770.389 170.866 770.649 170.39 770.721 169.893Z" fill="#131313"/>
</g>
<defs>
<clipPath id="clip0">
<rect width="739.99" height="451.559" fill="white" transform="translate(63.9311) rotate(8.1392)"/>
</clipPath>
</defs>
</svg>
